M48
; DRILL file {KiCad (5.1.2)-2} date 2025/05/11 13:48:32
; FORMAT={-:-/ absolute / metric / decimal}
; #@! TF.CreationDate,2025-05-11T13:48:32+09:00
; #@! TF.GenerationSoftware,Kicad,Pcbnew,(5.1.2)-2
; #@! TF.FileFunction,Plated,1,2,PTH
FMAT,2
METRIC
T1C0.400
T2C0.800
T3C1.000
T4C1.016
T5C1.200
T6C1.350
T7C2.200
%
G90
G05
T1
X96.313Y-121.726
X97.686Y-64.853
X97.686Y-79.853
X97.686Y-89.853
X97.686Y-99.853
X97.686Y-109.853
X101.813Y-128.726
X107.686Y-59.853
X107.909Y-88.105
X108.267Y-70.345
X108.608Y-120.427
X109.688Y-103.917
X112.813Y-128.726
X115.951Y-72.06
X116.353Y-93.118
X117.221Y-69.202
X117.688Y-109.378
X117.983Y-72.568
X119.253Y-72.568
X119.253Y-90.221
X119.253Y-91.618
X120.142Y-103.81
X120.523Y-72.568
X120.523Y-90.221
X120.523Y-91.618
X121.244Y-122.522
X121.259Y-80.695
X121.793Y-90.221
X121.793Y-91.618
X123.063Y-90.221
X124.953Y-93.918
X125.603Y-99.746
X126.111Y-74.346
X126.111Y-87.046
X126.238Y-102.286
X126.289Y-71.526
X126.809Y-95.872
X126.873Y-98.476
X127.127Y-83.998
X127.444Y-80.442
X127.813Y-122.726
X128.143Y-97.206
X128.143Y-99.746
X128.207Y-79.807
X128.207Y-81.204
X128.686Y-128.853
X128.905Y-72.568
X128.969Y-80.569
X128.969Y-81.966
X129.413Y-98.476
X129.667Y-93.904
X129.667Y-73.33
X129.731Y-81.331
X129.731Y-82.728
X130.112Y-69.393
X130.429Y-74.092
X130.493Y-82.093
X130.619Y-79.045
X130.683Y-94.92
X130.831Y-99.746
X131.191Y-93.65
X132.323Y-99.497
X132.686Y-59.853
X132.969Y-88.57
X133.686Y-122.853
X134.199Y-86.634
X135.001Y-90.602
X135.474Y-80.757
X136.271Y-85.268
X136.271Y-102.819
X136.525Y-90.602
X136.525Y-92.126
X136.779Y-98.603
X137.243Y-87.879
X137.287Y-77.902
X137.35Y-84.315
X137.93Y-92.312
X138.049Y-90.602
X138.367Y-83.553
X138.557Y-88.57
X138.756Y-95.778
X138.831Y-93.163
X139.199Y-103.027
X139.573Y-113.462
X139.681Y-87.863
X140.894Y-87.842
X141.292Y-85.24
X141.415Y-90.602
X141.605Y-89.078
X141.627Y-96.958
X141.627Y-102.772
X141.627Y-104.042
X141.627Y-105.145
X143.186Y-76.553
X144.106Y-83.356
X144.563Y-84.324
X145.237Y-81.128
X147.002Y-89.205
X147.091Y-78.765
X147.603Y-86.785
X147.686Y-59.853
X147.686Y-97.853
X148.039Y-82.48
X149.352Y-85.141
X150.686Y-112.853
X153.313Y-82.726
X153.314Y-89.662
X158.902Y-72.39
X162.686Y-59.853
X162.686Y-89.853
X167.686Y-84.853
X172.686Y-79.853
X177.686Y-64.853
X177.686Y-71.853
X177.686Y-79.853
T2
X128.742Y-92.661
X132.207Y-96.126
T3
X150.039Y-102.072
X150.039Y-104.572
X150.039Y-107.072
X164.475Y-102.088
X164.475Y-107.088
T4
X147.193Y-102.159
X147.193Y-104.699
X147.193Y-107.239
X143.637Y-102.159
X143.637Y-104.699
X143.637Y-107.239
X119.761Y-83.363
X119.761Y-85.903
X119.761Y-88.443
X122.301Y-83.363
X122.301Y-85.903
X122.301Y-88.443
T5
X104.053Y-63.016
X104.053Y-75.516
X109.053Y-63.016
X109.053Y-75.516
X104.053Y-114.986
X104.053Y-127.486
X109.053Y-114.986
X109.053Y-127.486
X165.648Y-59.206
X165.648Y-71.706
X170.648Y-59.206
X170.648Y-71.706
X104.053Y-97.306
X104.053Y-109.806
X109.053Y-97.306
X109.053Y-109.806
X135.168Y-59.206
X135.168Y-71.706
X140.168Y-59.206
X140.168Y-71.706
X104.053Y-80.161
X104.053Y-92.661
X109.053Y-80.161
X109.053Y-92.661
X150.408Y-59.206
X150.408Y-71.706
X155.408Y-59.206
X155.408Y-71.706
X119.928Y-97.306
X119.928Y-109.806
X124.928Y-97.306
X124.928Y-109.806
X119.928Y-115.086
X119.928Y-127.586
X124.928Y-115.086
X124.928Y-127.586
T6
X117.781Y-78.791
X124.281Y-78.791
T7
X157.289Y-97.972
X157.289Y-111.172
T0
M30
