G04 #@! TF.GenerationSoftware,KiCad,Pcbnew,(5.1.2)-2*
G04 #@! TF.CreationDate,2025-05-11T13:48:29+09:00*
G04 #@! TF.ProjectId,FIC_2,4649435f-322e-46b6-9963-61645f706362,rev?*
G04 #@! TF.SameCoordinates,Original*
G04 #@! TF.FileFunction,Legend,Top*
G04 #@! TF.FilePolarity,Positive*
%FSLAX46Y46*%
G04 Gerber Fmt 4.6, Leading zero omitted, Abs format (unit mm)*
G04 Created by KiCad (PCBNEW (5.1.2)-2) date 2025-05-11 13:48:29*
%MOMM*%
%LPD*%
G04 APERTURE LIST*
%ADD10C,0.120000*%
%ADD11C,0.300000*%
%ADD12C,0.250000*%
%ADD13C,0.150000*%
G04 APERTURE END LIST*
D10*
X130213000Y-97825800D02*
X130313000Y-97825800D01*
X129813000Y-98225800D02*
X130213000Y-97825800D01*
X129813000Y-99725800D02*
X129813000Y-98225800D01*
D11*
X96456971Y-117421928D02*
X94956971Y-117234428D01*
X95456971Y-116582642D02*
X96456971Y-116707642D01*
X95599828Y-116600500D02*
X95528400Y-116520142D01*
X95456971Y-116368357D01*
X95456971Y-116154071D01*
X95528400Y-116020142D01*
X95671257Y-115966571D01*
X96456971Y-116064785D01*
X95456971Y-115225500D02*
X96956971Y-115413000D01*
X95528400Y-115234428D02*
X95456971Y-115082642D01*
X95456971Y-114796928D01*
X95528400Y-114663000D01*
X95599828Y-114600500D01*
X95742685Y-114546928D01*
X96171257Y-114600500D01*
X96314114Y-114689785D01*
X96385542Y-114770142D01*
X96456971Y-114921928D01*
X96456971Y-115207642D01*
X96385542Y-115341571D01*
X95456971Y-113225500D02*
X96456971Y-113350500D01*
X95456971Y-113868357D02*
X96242685Y-113966571D01*
X96385542Y-113913000D01*
X96456971Y-113779071D01*
X96456971Y-113564785D01*
X96385542Y-113413000D01*
X96314114Y-113332642D01*
X95456971Y-112725500D02*
X95456971Y-112154071D01*
X94956971Y-112448714D02*
X96242685Y-112609428D01*
X96385542Y-112555857D01*
X96456971Y-112421928D01*
X96456971Y-112279071D01*
X96028400Y-110654071D02*
X96028400Y-109939785D01*
X96456971Y-110850500D02*
X94956971Y-110163000D01*
X96456971Y-109850500D01*
X96385542Y-109413000D02*
X96456971Y-109279071D01*
X96456971Y-108993357D01*
X96385542Y-108841571D01*
X96242685Y-108752285D01*
X96171257Y-108743357D01*
X96028400Y-108796928D01*
X95956971Y-108930857D01*
X95956971Y-109145142D01*
X95885542Y-109279071D01*
X95742685Y-109332642D01*
X95671257Y-109323714D01*
X95528400Y-109234428D01*
X95456971Y-109082642D01*
X95456971Y-108868357D01*
X95528400Y-108734428D01*
X96385542Y-108198714D02*
X96456971Y-108064785D01*
X96456971Y-107779071D01*
X96385542Y-107627285D01*
X96242685Y-107538000D01*
X96171257Y-107529071D01*
X96028400Y-107582642D01*
X95956971Y-107716571D01*
X95956971Y-107930857D01*
X95885542Y-108064785D01*
X95742685Y-108118357D01*
X95671257Y-108109428D01*
X95528400Y-108020142D01*
X95456971Y-107868357D01*
X95456971Y-107654071D01*
X95528400Y-107520142D01*
X96456971Y-106921928D02*
X95456971Y-106796928D01*
X94956971Y-106734428D02*
X95028400Y-106814785D01*
X95099828Y-106752285D01*
X95028400Y-106671928D01*
X94956971Y-106734428D01*
X95099828Y-106752285D01*
X96385542Y-106270142D02*
X96456971Y-106136214D01*
X96456971Y-105850500D01*
X96385542Y-105698714D01*
X96242685Y-105609428D01*
X96171257Y-105600500D01*
X96028400Y-105654071D01*
X95956971Y-105788000D01*
X95956971Y-106002285D01*
X95885542Y-106136214D01*
X95742685Y-106189785D01*
X95671257Y-106180857D01*
X95528400Y-106091571D01*
X95456971Y-105939785D01*
X95456971Y-105725500D01*
X95528400Y-105591571D01*
X95456971Y-105082642D02*
X95456971Y-104511214D01*
X94956971Y-104805857D02*
X96242685Y-104966571D01*
X96385542Y-104913000D01*
X96456971Y-104779071D01*
X96456971Y-104636214D01*
X96314114Y-102118357D02*
X96385542Y-102198714D01*
X96456971Y-102421928D01*
X96456971Y-102564785D01*
X96385542Y-102770142D01*
X96242685Y-102895142D01*
X96099828Y-102948714D01*
X95814114Y-102984428D01*
X95599828Y-102957642D01*
X95314114Y-102850500D01*
X95171257Y-102761214D01*
X95028400Y-102600500D01*
X94956971Y-102377285D01*
X94956971Y-102234428D01*
X95028400Y-102029071D01*
X95099828Y-101966571D01*
X96456971Y-101279071D02*
X96385542Y-101413000D01*
X96314114Y-101475500D01*
X96171257Y-101529071D01*
X95742685Y-101475500D01*
X95599828Y-101386214D01*
X95528400Y-101305857D01*
X95456971Y-101154071D01*
X95456971Y-100939785D01*
X95528400Y-100805857D01*
X95599828Y-100743357D01*
X95742685Y-100689785D01*
X96171257Y-100743357D01*
X96314114Y-100832642D01*
X96385542Y-100913000D01*
X96456971Y-101064785D01*
X96456971Y-101279071D01*
X95456971Y-100011214D02*
X96456971Y-100136214D01*
X95599828Y-100029071D02*
X95528400Y-99948714D01*
X95456971Y-99796928D01*
X95456971Y-99582642D01*
X95528400Y-99448714D01*
X95671257Y-99395142D01*
X96456971Y-99493357D01*
X95456971Y-98868357D02*
X95456971Y-98296928D01*
X94956971Y-98591571D02*
X96242685Y-98752285D01*
X96385542Y-98698714D01*
X96456971Y-98564785D01*
X96456971Y-98421928D01*
X96456971Y-97921928D02*
X95456971Y-97796928D01*
X95742685Y-97832642D02*
X95599828Y-97743357D01*
X95528400Y-97663000D01*
X95456971Y-97511214D01*
X95456971Y-97368357D01*
X96456971Y-96779071D02*
X96385542Y-96913000D01*
X96314114Y-96975500D01*
X96171257Y-97029071D01*
X95742685Y-96975500D01*
X95599828Y-96886214D01*
X95528400Y-96805857D01*
X95456971Y-96654071D01*
X95456971Y-96439785D01*
X95528400Y-96305857D01*
X95599828Y-96243357D01*
X95742685Y-96189785D01*
X96171257Y-96243357D01*
X96314114Y-96332642D01*
X96385542Y-96413000D01*
X96456971Y-96564785D01*
X96456971Y-96779071D01*
X96456971Y-95421928D02*
X96385542Y-95555857D01*
X96242685Y-95609428D01*
X94956971Y-95448714D01*
X96456971Y-94636214D02*
X96385542Y-94770142D01*
X96242685Y-94823714D01*
X94956971Y-94663000D01*
X96385542Y-93484428D02*
X96456971Y-93636214D01*
X96456971Y-93921928D01*
X96385542Y-94055857D01*
X96242685Y-94109428D01*
X95671257Y-94037999D01*
X95528400Y-93948714D01*
X95456971Y-93796928D01*
X95456971Y-93511214D01*
X95528400Y-93377285D01*
X95671257Y-93323714D01*
X95814114Y-93341571D01*
X95956971Y-94073714D01*
X96456971Y-92779071D02*
X95456971Y-92654071D01*
X95742685Y-92689785D02*
X95599828Y-92600499D01*
X95528400Y-92520142D01*
X95456971Y-92368357D01*
X95456971Y-92225499D01*
X97506971Y-117448714D02*
X99006971Y-117136214D01*
X97506971Y-116448714D01*
X98935542Y-115555857D02*
X99006971Y-115707642D01*
X99006971Y-115993357D01*
X98935542Y-116127285D01*
X98792685Y-116180857D01*
X98221257Y-116109428D01*
X98078400Y-116020142D01*
X98006971Y-115868357D01*
X98006971Y-115582642D01*
X98078400Y-115448714D01*
X98221257Y-115395142D01*
X98364114Y-115413000D01*
X98506971Y-116145142D01*
X99006971Y-114850500D02*
X98006971Y-114725500D01*
X98292685Y-114761214D02*
X98149828Y-114671928D01*
X98078400Y-114591571D01*
X98006971Y-114439785D01*
X98006971Y-114296928D01*
X99006971Y-113136214D02*
X99006971Y-113993357D01*
X99006971Y-113564785D02*
X97506971Y-113377285D01*
X97721257Y-113546928D01*
X97864114Y-113707642D01*
X97935542Y-113859428D01*
X98864114Y-112475500D02*
X98935542Y-112413000D01*
X99006971Y-112493357D01*
X98935542Y-112555857D01*
X98864114Y-112475500D01*
X99006971Y-112493357D01*
X97506971Y-111305857D02*
X97506971Y-111163000D01*
X97578400Y-111029071D01*
X97649828Y-110966571D01*
X97792685Y-110913000D01*
X98078400Y-110877285D01*
X98435542Y-110921928D01*
X98721257Y-111029071D01*
X98864114Y-111118357D01*
X98935542Y-111198714D01*
X99006971Y-111350500D01*
X99006971Y-111493357D01*
X98935542Y-111627285D01*
X98864114Y-111689785D01*
X98721257Y-111743357D01*
X98435542Y-111779071D01*
X98078400Y-111734428D01*
X97792685Y-111627285D01*
X97649828Y-111538000D01*
X97578400Y-111457642D01*
X97506971Y-111305857D01*
D10*
X151813000Y-107225800D02*
X151313000Y-107225800D01*
X152313000Y-106725800D02*
X151813000Y-107225800D01*
X152313000Y-106225800D02*
X152313000Y-106725800D01*
X151521160Y-104642920D02*
X151124920Y-104642920D01*
X151813000Y-102225800D02*
X151313000Y-102225800D01*
X152313000Y-102725800D02*
X151813000Y-102225800D01*
X152313000Y-103225800D02*
X152313000Y-102725800D01*
D12*
X152241571Y-105582942D02*
X152289190Y-105440085D01*
X152336809Y-105392466D01*
X152432047Y-105344847D01*
X152574904Y-105344847D01*
X152670142Y-105392466D01*
X152717761Y-105440085D01*
X152765380Y-105535323D01*
X152765380Y-105916276D01*
X151765380Y-105916276D01*
X151765380Y-105582942D01*
X151813000Y-105487704D01*
X151860619Y-105440085D01*
X151955857Y-105392466D01*
X152051095Y-105392466D01*
X152146333Y-105440085D01*
X152193952Y-105487704D01*
X152241571Y-105582942D01*
X152241571Y-105916276D01*
X152670142Y-104344847D02*
X152717761Y-104392466D01*
X152765380Y-104535323D01*
X152765380Y-104630561D01*
X152717761Y-104773419D01*
X152622523Y-104868657D01*
X152527285Y-104916276D01*
X152336809Y-104963895D01*
X152193952Y-104963895D01*
X152003476Y-104916276D01*
X151908238Y-104868657D01*
X151813000Y-104773419D01*
X151765380Y-104630561D01*
X151765380Y-104535323D01*
X151813000Y-104392466D01*
X151860619Y-104344847D01*
X152479666Y-103963895D02*
X152479666Y-103487704D01*
X152765380Y-104059133D02*
X151765380Y-103725800D01*
X152765380Y-103392466D01*
D10*
X157861000Y-75615800D02*
X158115000Y-75361800D01*
X156083000Y-75615800D02*
X156337000Y-75361800D01*
X154051000Y-75615800D02*
X154305000Y-75361800D01*
X152273000Y-75615800D02*
X152527000Y-75361800D01*
X150495000Y-75615800D02*
X150749000Y-75361800D01*
X148717000Y-75361800D02*
X148463000Y-75615800D01*
X158877000Y-75361800D02*
X148717000Y-75361800D01*
X141063000Y-103475800D02*
X142063000Y-103475800D01*
X140313000Y-102725800D02*
X141063000Y-103475800D01*
X140313000Y-101975800D02*
X140313000Y-102725800D01*
X146313000Y-99725800D02*
X146813000Y-100225800D01*
X141313000Y-99725800D02*
X146313000Y-99725800D01*
D13*
X156019000Y-104571800D02*
X153479000Y-104571800D01*
X161099000Y-104571800D02*
X158559000Y-104571800D01*
X157289000Y-105841800D02*
X157289000Y-108381800D01*
X157289000Y-103301800D02*
X157289000Y-100761800D01*
X161099000Y-104571800D02*
G75*
G03X161099000Y-104571800I-3810000J0D01*
G01*
X163889000Y-97971800D02*
X163889000Y-111171800D01*
X163889000Y-111171800D02*
X150689000Y-111171800D01*
X150689000Y-111171800D02*
X150689000Y-97971800D01*
X150689000Y-97971800D02*
X163889000Y-97971800D01*
X172289000Y-104571800D02*
G75*
G03X172289000Y-104571800I-15000000J0D01*
G01*
X148713000Y-80305800D02*
X148463000Y-80555800D01*
X148213000Y-80305800D02*
X148713000Y-80305800D01*
X148463000Y-80555800D02*
X148213000Y-80305800D01*
X148213000Y-80555800D02*
X148713000Y-80555800D01*
X148463000Y-80505800D02*
X148463000Y-80055800D01*
X149013000Y-79205800D02*
X149013000Y-81105800D01*
X147913000Y-79205800D02*
X147913000Y-81105800D01*
X149818000Y-79205800D02*
X149818000Y-81105800D01*
X150918000Y-79205800D02*
X150918000Y-81105800D01*
X150368000Y-80505800D02*
X150368000Y-80055800D01*
X150118000Y-80555800D02*
X150618000Y-80555800D01*
X150368000Y-80555800D02*
X150118000Y-80305800D01*
X150118000Y-80305800D02*
X150618000Y-80305800D01*
X150618000Y-80305800D02*
X150368000Y-80555800D01*
X151723000Y-79205800D02*
X151723000Y-81105800D01*
X152823000Y-79205800D02*
X152823000Y-81105800D01*
X152273000Y-80505800D02*
X152273000Y-80055800D01*
X152023000Y-80555800D02*
X152523000Y-80555800D01*
X152273000Y-80555800D02*
X152023000Y-80305800D01*
X152023000Y-80305800D02*
X152523000Y-80305800D01*
X152523000Y-80305800D02*
X152273000Y-80555800D01*
X154428000Y-80305800D02*
X154178000Y-80555800D01*
X153928000Y-80305800D02*
X154428000Y-80305800D01*
X154178000Y-80555800D02*
X153928000Y-80305800D01*
X153928000Y-80555800D02*
X154428000Y-80555800D01*
X154178000Y-80505800D02*
X154178000Y-80055800D01*
X154728000Y-79205800D02*
X154728000Y-81105800D01*
X153628000Y-79205800D02*
X153628000Y-81105800D01*
X156333000Y-80305800D02*
X156083000Y-80555800D01*
X155833000Y-80305800D02*
X156333000Y-80305800D01*
X156083000Y-80555800D02*
X155833000Y-80305800D01*
X155833000Y-80555800D02*
X156333000Y-80555800D01*
X156083000Y-80505800D02*
X156083000Y-80055800D01*
X156633000Y-79205800D02*
X156633000Y-81105800D01*
X155533000Y-79205800D02*
X155533000Y-81105800D01*
X157438000Y-79205800D02*
X157438000Y-81105800D01*
X158538000Y-79205800D02*
X158538000Y-81105800D01*
X157988000Y-80505800D02*
X157988000Y-80055800D01*
X157738000Y-80555800D02*
X158238000Y-80555800D01*
X157988000Y-80555800D02*
X157738000Y-80305800D01*
X157738000Y-80305800D02*
X158238000Y-80305800D01*
X158238000Y-80305800D02*
X157988000Y-80555800D01*
X121031000Y-80540800D02*
X118031000Y-80540800D01*
X118031000Y-80540800D02*
X118031000Y-77040800D01*
X118031000Y-77040800D02*
X124031000Y-77040800D01*
X124031000Y-77040800D02*
X124031000Y-80540800D01*
X124031000Y-80540800D02*
X121031000Y-80540800D01*
X121031000Y-79515800D02*
X119556000Y-79515800D01*
X119556000Y-79515800D02*
X119556000Y-78065800D01*
X119556000Y-78065800D02*
X122506000Y-78065800D01*
X122506000Y-78065800D02*
X122506000Y-79515800D01*
X122506000Y-79515800D02*
X121031000Y-79515800D01*
X172271106Y-65455800D02*
G75*
G03X172271106Y-65455800I-4123106J0D01*
G01*
X162148000Y-59455800D02*
X174148000Y-59455800D01*
X174148000Y-59455800D02*
X174148000Y-71455800D01*
X174148000Y-71455800D02*
X162148000Y-71455800D01*
X162148000Y-71455800D02*
X162148000Y-59455800D01*
X125643640Y-67134740D02*
X125643640Y-57934860D01*
X117942360Y-67134740D02*
X125643640Y-67134740D01*
X117942360Y-57934860D02*
X117942360Y-67134740D01*
X125643640Y-57934860D02*
X117942360Y-57934860D01*
X125643640Y-58935620D02*
X117942360Y-58935620D01*
D10*
X131154249Y-83440023D02*
X131649223Y-82945049D01*
X132497751Y-83793577D02*
X132002777Y-84288551D01*
X140054577Y-78449249D02*
X140549551Y-78944223D01*
X139701023Y-79792751D02*
X139206049Y-79297777D01*
X142317223Y-82510551D02*
X141822249Y-82015577D01*
X142670777Y-81167049D02*
X143165751Y-81662023D01*
D13*
X123571000Y-89712800D02*
X123571000Y-84632800D01*
X123851000Y-81812800D02*
X123851000Y-83362800D01*
X121031000Y-82092800D02*
X121031000Y-84632800D01*
X121031000Y-84632800D02*
X123571000Y-84632800D01*
X123571000Y-89712800D02*
X118491000Y-89712800D01*
X118491000Y-89712800D02*
X118491000Y-84632800D01*
X123851000Y-81812800D02*
X122301000Y-81812800D01*
X118491000Y-82092800D02*
X121031000Y-82092800D01*
X118491000Y-84632800D02*
X118491000Y-82092800D01*
X145923000Y-103428800D02*
X145923000Y-108508800D01*
X145923000Y-108508800D02*
X148463000Y-108508800D01*
X148463000Y-108508800D02*
X148463000Y-103428800D01*
X148743000Y-100608800D02*
X148743000Y-102158800D01*
X148463000Y-103428800D02*
X145923000Y-103428800D01*
X145643000Y-102158800D02*
X145643000Y-100608800D01*
X145643000Y-100608800D02*
X148743000Y-100608800D01*
X142087000Y-100608800D02*
X145187000Y-100608800D01*
X142087000Y-102158800D02*
X142087000Y-100608800D01*
X144907000Y-103428800D02*
X142367000Y-103428800D01*
X145187000Y-100608800D02*
X145187000Y-102158800D01*
X144907000Y-108508800D02*
X144907000Y-103428800D01*
X142367000Y-108508800D02*
X144907000Y-108508800D01*
X142367000Y-103428800D02*
X142367000Y-108508800D01*
X121340500Y-75084300D02*
X120340500Y-75084300D01*
X120340500Y-73734300D02*
X121340500Y-73734300D01*
X152948000Y-76530800D02*
X152948000Y-77530800D01*
X151598000Y-77530800D02*
X151598000Y-76530800D01*
X147788000Y-77530800D02*
X147788000Y-76530800D01*
X149138000Y-76530800D02*
X149138000Y-77530800D01*
X121960000Y-70180800D02*
X121960000Y-71180800D01*
X120610000Y-71180800D02*
X120610000Y-70180800D01*
X122515000Y-71162800D02*
X122515000Y-70162800D01*
X123865000Y-70162800D02*
X123865000Y-71162800D01*
X149698000Y-77535800D02*
X149698000Y-76535800D01*
X151048000Y-76535800D02*
X151048000Y-77535800D01*
X154853000Y-76530800D02*
X154853000Y-77530800D01*
X153503000Y-77530800D02*
X153503000Y-76530800D01*
X157313000Y-77530800D02*
X157313000Y-76530800D01*
X158663000Y-76530800D02*
X158663000Y-77530800D01*
X156758000Y-76530800D02*
X156758000Y-77530800D01*
X155408000Y-77530800D02*
X155408000Y-76530800D01*
X137755000Y-105434800D02*
X137755000Y-104434800D01*
X139105000Y-104434800D02*
X139105000Y-105434800D01*
X140883000Y-104452800D02*
X140883000Y-105452800D01*
X139533000Y-105452800D02*
X139533000Y-104452800D01*
X114308000Y-73670800D02*
X115308000Y-73670800D01*
X115308000Y-75020800D02*
X114308000Y-75020800D01*
X114308000Y-90815800D02*
X115308000Y-90815800D01*
X115308000Y-92165800D02*
X114308000Y-92165800D01*
X115308000Y-109310800D02*
X114308000Y-109310800D01*
X114308000Y-107960800D02*
X115308000Y-107960800D01*
X115308000Y-127090800D02*
X114308000Y-127090800D01*
X114308000Y-125740800D02*
X115308000Y-125740800D01*
X129548000Y-107960800D02*
X130548000Y-107960800D01*
X130548000Y-109310800D02*
X129548000Y-109310800D01*
X129548000Y-125740800D02*
X130548000Y-125740800D01*
X130548000Y-127090800D02*
X129548000Y-127090800D01*
X138168000Y-75020800D02*
X137168000Y-75020800D01*
X137168000Y-73670800D02*
X138168000Y-73670800D01*
X152408000Y-73670800D02*
X153408000Y-73670800D01*
X153408000Y-75020800D02*
X152408000Y-75020800D01*
X168648000Y-75020800D02*
X167648000Y-75020800D01*
X167648000Y-73670800D02*
X168648000Y-73670800D01*
X100553000Y-75265800D02*
X100553000Y-63265800D01*
X112553000Y-75265800D02*
X100553000Y-75265800D01*
X112553000Y-63265800D02*
X112553000Y-75265800D01*
X100553000Y-63265800D02*
X112553000Y-63265800D01*
X110676106Y-69265800D02*
G75*
G03X110676106Y-69265800I-4123106J0D01*
G01*
X110676106Y-86410800D02*
G75*
G03X110676106Y-86410800I-4123106J0D01*
G01*
X100553000Y-80410800D02*
X112553000Y-80410800D01*
X112553000Y-80410800D02*
X112553000Y-92410800D01*
X112553000Y-92410800D02*
X100553000Y-92410800D01*
X100553000Y-92410800D02*
X100553000Y-80410800D01*
X100553000Y-109555800D02*
X100553000Y-97555800D01*
X112553000Y-109555800D02*
X100553000Y-109555800D01*
X112553000Y-97555800D02*
X112553000Y-109555800D01*
X100553000Y-97555800D02*
X112553000Y-97555800D01*
X110676106Y-103555800D02*
G75*
G03X110676106Y-103555800I-4123106J0D01*
G01*
X110676106Y-121235800D02*
G75*
G03X110676106Y-121235800I-4123106J0D01*
G01*
X100553000Y-115235800D02*
X112553000Y-115235800D01*
X112553000Y-115235800D02*
X112553000Y-127235800D01*
X112553000Y-127235800D02*
X100553000Y-127235800D01*
X100553000Y-127235800D02*
X100553000Y-115235800D01*
X116428000Y-109555800D02*
X116428000Y-97555800D01*
X128428000Y-109555800D02*
X116428000Y-109555800D01*
X128428000Y-97555800D02*
X128428000Y-109555800D01*
X116428000Y-97555800D02*
X128428000Y-97555800D01*
X126551106Y-103555800D02*
G75*
G03X126551106Y-103555800I-4123106J0D01*
G01*
X126551106Y-121335800D02*
G75*
G03X126551106Y-121335800I-4123106J0D01*
G01*
X116428000Y-115335800D02*
X128428000Y-115335800D01*
X128428000Y-115335800D02*
X128428000Y-127335800D01*
X128428000Y-127335800D02*
X116428000Y-127335800D01*
X116428000Y-127335800D02*
X116428000Y-115335800D01*
X131668000Y-71455800D02*
X131668000Y-59455800D01*
X143668000Y-71455800D02*
X131668000Y-71455800D01*
X143668000Y-59455800D02*
X143668000Y-71455800D01*
X131668000Y-59455800D02*
X143668000Y-59455800D01*
X141791106Y-65455800D02*
G75*
G03X141791106Y-65455800I-4123106J0D01*
G01*
X157031106Y-65455800D02*
G75*
G03X157031106Y-65455800I-4123106J0D01*
G01*
X146908000Y-59455800D02*
X158908000Y-59455800D01*
X158908000Y-59455800D02*
X158908000Y-71455800D01*
X158908000Y-71455800D02*
X146908000Y-71455800D01*
X146908000Y-71455800D02*
X146908000Y-59455800D01*
X137994423Y-80349175D02*
G75*
G03X137994423Y-80349175I-254001J0D01*
G01*
X138176000Y-80933245D02*
X137698703Y-81410542D01*
X145494555Y-88251800D02*
X145017258Y-88729097D01*
X138176000Y-95570355D02*
X138653297Y-95093058D01*
X130857445Y-88251800D02*
X131334742Y-87774503D01*
X138176000Y-80933245D02*
X138653297Y-81410542D01*
X130857445Y-88251800D02*
X131334742Y-88729097D01*
X138176000Y-95570355D02*
X137698703Y-95093058D01*
X145494555Y-88251800D02*
X145017258Y-87774503D01*
X137698703Y-81410542D02*
X136797142Y-80508981D01*
D10*
X130898852Y-98388542D02*
X126479435Y-93969124D01*
X134469742Y-94817652D02*
X130050324Y-90398235D01*
X134469742Y-94817652D02*
G75*
G02X130898852Y-98388542I-1785445J-1785445D01*
G01*
X130050325Y-90398236D02*
G75*
G03X126479435Y-93969124I-1785445J-1785444D01*
G01*
D13*
X154741571Y-93618657D02*
X155241571Y-93618657D01*
X155455857Y-94404371D02*
X154741571Y-94404371D01*
X154741571Y-92904371D01*
X155455857Y-92904371D01*
X156098714Y-94404371D02*
X156098714Y-92904371D01*
X156955857Y-94404371D01*
X156955857Y-92904371D01*
X158527285Y-94261514D02*
X158455857Y-94332942D01*
X158241571Y-94404371D01*
X158098714Y-94404371D01*
X157884428Y-94332942D01*
X157741571Y-94190085D01*
X157670142Y-94047228D01*
X157598714Y-93761514D01*
X157598714Y-93547228D01*
X157670142Y-93261514D01*
X157741571Y-93118657D01*
X157884428Y-92975800D01*
X158098714Y-92904371D01*
X158241571Y-92904371D01*
X158455857Y-92975800D01*
X158527285Y-93047228D01*
X159955857Y-94404371D02*
X159098714Y-94404371D01*
X159527285Y-94404371D02*
X159527285Y-92904371D01*
X159384428Y-93118657D01*
X159241571Y-93261514D01*
X159098714Y-93332942D01*
X148915380Y-83402466D02*
X148439190Y-83735800D01*
X148915380Y-83973895D02*
X147915380Y-83973895D01*
X147915380Y-83592942D01*
X147963000Y-83497704D01*
X148010619Y-83450085D01*
X148105857Y-83402466D01*
X148248714Y-83402466D01*
X148343952Y-83450085D01*
X148391571Y-83497704D01*
X148439190Y-83592942D01*
X148439190Y-83973895D01*
X147915380Y-83069133D02*
X148915380Y-82402466D01*
X147915380Y-82402466D02*
X148915380Y-83069133D01*
X149820380Y-83997704D02*
X149820380Y-83426276D01*
X150820380Y-83711990D02*
X149820380Y-83711990D01*
X149820380Y-83188180D02*
X150820380Y-82521514D01*
X149820380Y-82521514D02*
X150820380Y-83188180D01*
X152725380Y-87807466D02*
X151725380Y-87807466D01*
X151725380Y-87426514D01*
X151773000Y-87331276D01*
X151820619Y-87283657D01*
X151915857Y-87236038D01*
X152058714Y-87236038D01*
X152153952Y-87283657D01*
X152201571Y-87331276D01*
X152249190Y-87426514D01*
X152249190Y-87807466D01*
X152630142Y-86236038D02*
X152677761Y-86283657D01*
X152725380Y-86426514D01*
X152725380Y-86521752D01*
X152677761Y-86664609D01*
X152582523Y-86759847D01*
X152487285Y-86807466D01*
X152296809Y-86855085D01*
X152153952Y-86855085D01*
X151963476Y-86807466D01*
X151868238Y-86759847D01*
X151773000Y-86664609D01*
X151725380Y-86521752D01*
X151725380Y-86426514D01*
X151773000Y-86283657D01*
X151820619Y-86236038D01*
X152201571Y-85474133D02*
X152249190Y-85331276D01*
X152296809Y-85283657D01*
X152392047Y-85236038D01*
X152534904Y-85236038D01*
X152630142Y-85283657D01*
X152677761Y-85331276D01*
X152725380Y-85426514D01*
X152725380Y-85807466D01*
X151725380Y-85807466D01*
X151725380Y-85474133D01*
X151773000Y-85378895D01*
X151820619Y-85331276D01*
X151915857Y-85283657D01*
X152011095Y-85283657D01*
X152106333Y-85331276D01*
X152153952Y-85378895D01*
X152201571Y-85474133D01*
X152201571Y-85807466D01*
X152058714Y-84807466D02*
X152725380Y-84807466D01*
X152153952Y-84807466D02*
X152106333Y-84759847D01*
X152058714Y-84664609D01*
X152058714Y-84521752D01*
X152106333Y-84426514D01*
X152201571Y-84378895D01*
X152725380Y-84378895D01*
X152677761Y-83521752D02*
X152725380Y-83616990D01*
X152725380Y-83807466D01*
X152677761Y-83902704D01*
X152582523Y-83950323D01*
X152201571Y-83950323D01*
X152106333Y-83902704D01*
X152058714Y-83807466D01*
X152058714Y-83616990D01*
X152106333Y-83521752D01*
X152201571Y-83474133D01*
X152296809Y-83474133D01*
X152392047Y-83950323D01*
X152058714Y-83140800D02*
X152725380Y-82950323D01*
X152249190Y-82759847D01*
X152725380Y-82569371D01*
X152058714Y-82378895D01*
X154255857Y-88006752D02*
X154255857Y-87740085D01*
X154674904Y-87625800D02*
X154674904Y-88006752D01*
X153874904Y-88006752D01*
X153874904Y-87625800D01*
X154636809Y-86978180D02*
X154674904Y-87054371D01*
X154674904Y-87206752D01*
X154636809Y-87282942D01*
X154560619Y-87321038D01*
X154255857Y-87321038D01*
X154179666Y-87282942D01*
X154141571Y-87206752D01*
X154141571Y-87054371D01*
X154179666Y-86978180D01*
X154255857Y-86940085D01*
X154332047Y-86940085D01*
X154408238Y-87321038D01*
X154636809Y-86635323D02*
X154674904Y-86559133D01*
X154674904Y-86406752D01*
X154636809Y-86330561D01*
X154560619Y-86292466D01*
X154522523Y-86292466D01*
X154446333Y-86330561D01*
X154408238Y-86406752D01*
X154408238Y-86521038D01*
X154370142Y-86597228D01*
X154293952Y-86635323D01*
X154255857Y-86635323D01*
X154179666Y-86597228D01*
X154141571Y-86521038D01*
X154141571Y-86406752D01*
X154179666Y-86330561D01*
X154636809Y-85606752D02*
X154674904Y-85682942D01*
X154674904Y-85835323D01*
X154636809Y-85911514D01*
X154598714Y-85949609D01*
X154522523Y-85987704D01*
X154293952Y-85987704D01*
X154217761Y-85949609D01*
X154179666Y-85911514D01*
X154141571Y-85835323D01*
X154141571Y-85682942D01*
X154179666Y-85606752D01*
X154674904Y-85263895D02*
X153874904Y-85263895D01*
X154674904Y-84921038D02*
X154255857Y-84921038D01*
X154179666Y-84959133D01*
X154141571Y-85035323D01*
X154141571Y-85149609D01*
X154179666Y-85225800D01*
X154217761Y-85263895D01*
X154636809Y-84235323D02*
X154674904Y-84311514D01*
X154674904Y-84463895D01*
X154636809Y-84540085D01*
X154560619Y-84578180D01*
X154255857Y-84578180D01*
X154179666Y-84540085D01*
X154141571Y-84463895D01*
X154141571Y-84311514D01*
X154179666Y-84235323D01*
X154255857Y-84197228D01*
X154332047Y-84197228D01*
X154408238Y-84578180D01*
X154674904Y-83854371D02*
X154141571Y-83854371D01*
X154217761Y-83854371D02*
X154179666Y-83816276D01*
X154141571Y-83740085D01*
X154141571Y-83625800D01*
X154179666Y-83549609D01*
X154255857Y-83511514D01*
X154674904Y-83511514D01*
X154255857Y-83511514D02*
X154179666Y-83473419D01*
X154141571Y-83397228D01*
X154141571Y-83282942D01*
X154179666Y-83206752D01*
X154255857Y-83168657D01*
X154674904Y-83168657D01*
X154674904Y-82444847D02*
X154255857Y-82444847D01*
X154179666Y-82482942D01*
X154141571Y-82559133D01*
X154141571Y-82711514D01*
X154179666Y-82787704D01*
X154636809Y-82444847D02*
X154674904Y-82521038D01*
X154674904Y-82711514D01*
X154636809Y-82787704D01*
X154560619Y-82825800D01*
X154484428Y-82825800D01*
X154408238Y-82787704D01*
X154370142Y-82711514D01*
X154370142Y-82521038D01*
X154332047Y-82444847D01*
X156535380Y-85085085D02*
X155535380Y-85085085D01*
X155535380Y-84846990D01*
X155583000Y-84704133D01*
X155678238Y-84608895D01*
X155773476Y-84561276D01*
X155963952Y-84513657D01*
X156106809Y-84513657D01*
X156297285Y-84561276D01*
X156392523Y-84608895D01*
X156487761Y-84704133D01*
X156535380Y-84846990D01*
X156535380Y-85085085D01*
X156535380Y-83561276D02*
X156535380Y-84132704D01*
X156535380Y-83846990D02*
X155535380Y-83846990D01*
X155678238Y-83942228D01*
X155773476Y-84037466D01*
X155821095Y-84132704D01*
X155535380Y-83227942D02*
X155535380Y-82608895D01*
X155916333Y-82942228D01*
X155916333Y-82799371D01*
X155963952Y-82704133D01*
X156011571Y-82656514D01*
X156106809Y-82608895D01*
X156344904Y-82608895D01*
X156440142Y-82656514D01*
X156487761Y-82704133D01*
X156535380Y-82799371D01*
X156535380Y-83085085D01*
X156487761Y-83180323D01*
X156440142Y-83227942D01*
X158440380Y-85204133D02*
X157440380Y-85204133D01*
X157440380Y-84823180D01*
X157488000Y-84727942D01*
X157535619Y-84680323D01*
X157630857Y-84632704D01*
X157773714Y-84632704D01*
X157868952Y-84680323D01*
X157916571Y-84727942D01*
X157964190Y-84823180D01*
X157964190Y-85204133D01*
X157440380Y-84299371D02*
X158440380Y-84061276D01*
X157726095Y-83870800D01*
X158440380Y-83680323D01*
X157440380Y-83442228D01*
X158440380Y-82489847D02*
X157964190Y-82823180D01*
X158440380Y-83061276D02*
X157440380Y-83061276D01*
X157440380Y-82680323D01*
X157488000Y-82585085D01*
X157535619Y-82537466D01*
X157630857Y-82489847D01*
X157773714Y-82489847D01*
X157868952Y-82537466D01*
X157916571Y-82585085D01*
X157964190Y-82680323D01*
X157964190Y-83061276D01*
X127277761Y-80124133D02*
X127325380Y-79981276D01*
X127325380Y-79743180D01*
X127277761Y-79647942D01*
X127230142Y-79600323D01*
X127134904Y-79552704D01*
X127039666Y-79552704D01*
X126944428Y-79600323D01*
X126896809Y-79647942D01*
X126849190Y-79743180D01*
X126801571Y-79933657D01*
X126753952Y-80028895D01*
X126706333Y-80076514D01*
X126611095Y-80124133D01*
X126515857Y-80124133D01*
X126420619Y-80076514D01*
X126373000Y-80028895D01*
X126325380Y-79933657D01*
X126325380Y-79695561D01*
X126373000Y-79552704D01*
X126325380Y-79219371D02*
X127325380Y-78981276D01*
X126611095Y-78790800D01*
X127325380Y-78600323D01*
X126325380Y-78362228D01*
X127325380Y-77457466D02*
X127325380Y-78028895D01*
X127325380Y-77743180D02*
X126325380Y-77743180D01*
X126468238Y-77838419D01*
X126563476Y-77933657D01*
X126611095Y-78028895D01*
X161755142Y-68170085D02*
X161826571Y-67955800D01*
X161826571Y-67598657D01*
X161755142Y-67455800D01*
X161683714Y-67384371D01*
X161540857Y-67312942D01*
X161398000Y-67312942D01*
X161255142Y-67384371D01*
X161183714Y-67455800D01*
X161112285Y-67598657D01*
X161040857Y-67884371D01*
X160969428Y-68027228D01*
X160898000Y-68098657D01*
X160755142Y-68170085D01*
X160612285Y-68170085D01*
X160469428Y-68098657D01*
X160398000Y-68027228D01*
X160326571Y-67884371D01*
X160326571Y-67527228D01*
X160398000Y-67312942D01*
X160326571Y-66812942D02*
X161826571Y-66455800D01*
X160755142Y-66170085D01*
X161826571Y-65884371D01*
X160326571Y-65527228D01*
X161826571Y-64170085D02*
X161826571Y-65027228D01*
X161826571Y-64598657D02*
X160326571Y-64598657D01*
X160540857Y-64741514D01*
X160683714Y-64884371D01*
X160755142Y-65027228D01*
X160326571Y-63241514D02*
X160326571Y-63098657D01*
X160398000Y-62955800D01*
X160469428Y-62884371D01*
X160612285Y-62812942D01*
X160898000Y-62741514D01*
X161255142Y-62741514D01*
X161540857Y-62812942D01*
X161683714Y-62884371D01*
X161755142Y-62955800D01*
X161826571Y-63098657D01*
X161826571Y-63241514D01*
X161755142Y-63384371D01*
X161683714Y-63455800D01*
X161540857Y-63527228D01*
X161255142Y-63598657D01*
X160898000Y-63598657D01*
X160612285Y-63527228D01*
X160469428Y-63455800D01*
X160398000Y-63384371D01*
X160326571Y-63241514D01*
X119412047Y-61463180D02*
X119412047Y-60463180D01*
X119745380Y-61177466D01*
X120078714Y-60463180D01*
X120078714Y-61463180D01*
X120554904Y-61463180D02*
X120554904Y-60796514D01*
X120554904Y-60463180D02*
X120507285Y-60510800D01*
X120554904Y-60558419D01*
X120602523Y-60510800D01*
X120554904Y-60463180D01*
X120554904Y-60558419D01*
X121031095Y-60796514D02*
X121031095Y-61463180D01*
X121031095Y-60891752D02*
X121078714Y-60844133D01*
X121173952Y-60796514D01*
X121316809Y-60796514D01*
X121412047Y-60844133D01*
X121459666Y-60939371D01*
X121459666Y-61463180D01*
X121935857Y-61463180D02*
X121935857Y-60796514D01*
X121935857Y-60463180D02*
X121888238Y-60510800D01*
X121935857Y-60558419D01*
X121983476Y-60510800D01*
X121935857Y-60463180D01*
X121935857Y-60558419D01*
X122412047Y-61082228D02*
X123173952Y-61082228D01*
X123983476Y-60939371D02*
X124126333Y-60986990D01*
X124173952Y-61034609D01*
X124221571Y-61129847D01*
X124221571Y-61272704D01*
X124173952Y-61367942D01*
X124126333Y-61415561D01*
X124031095Y-61463180D01*
X123650142Y-61463180D01*
X123650142Y-60463180D01*
X123983476Y-60463180D01*
X124078714Y-60510800D01*
X124126333Y-60558419D01*
X124173952Y-60653657D01*
X124173952Y-60748895D01*
X124126333Y-60844133D01*
X124078714Y-60891752D01*
X123983476Y-60939371D01*
X123650142Y-60939371D01*
X131144147Y-83170649D02*
X130740086Y-83574710D01*
X130942117Y-83372680D02*
X130235010Y-82665573D01*
X130268681Y-82833932D01*
X130268681Y-82968619D01*
X130235010Y-83069634D01*
X131278834Y-82093153D02*
X131750239Y-82564558D01*
X130975788Y-82396199D02*
X131346178Y-82766588D01*
X131447193Y-82800260D01*
X131548208Y-82766588D01*
X131649223Y-82665573D01*
X131682895Y-82564558D01*
X131682895Y-82497214D01*
X140371594Y-76782945D02*
X140438937Y-76850288D01*
X140472609Y-76951303D01*
X140472609Y-77018647D01*
X140438937Y-77119662D01*
X140337922Y-77288021D01*
X140169563Y-77456380D01*
X140001205Y-77557395D01*
X139900189Y-77591067D01*
X139832846Y-77591067D01*
X139731831Y-77557395D01*
X139664487Y-77490051D01*
X139630815Y-77389036D01*
X139630815Y-77321693D01*
X139664487Y-77220677D01*
X139765502Y-77052319D01*
X139933861Y-76883960D01*
X140102220Y-76782945D01*
X140203235Y-76749273D01*
X140270579Y-76749273D01*
X140371594Y-76782945D01*
X140270579Y-77961456D02*
X140270579Y-78028800D01*
X140203235Y-78028800D01*
X140203235Y-77961456D01*
X140270579Y-77961456D01*
X140203235Y-78028800D01*
X140910342Y-78735906D02*
X140506281Y-78331845D01*
X140708311Y-78533876D02*
X141415418Y-77826769D01*
X141247060Y-77860441D01*
X141112373Y-77860441D01*
X141011357Y-77826769D01*
X141987838Y-78870593D02*
X141516434Y-79341998D01*
X141684792Y-78567548D02*
X141314403Y-78937937D01*
X141280731Y-79038952D01*
X141314403Y-79139967D01*
X141415418Y-79240983D01*
X141516434Y-79274654D01*
X141583777Y-79274654D01*
X142906478Y-79709062D02*
X142973821Y-79776405D01*
X143007493Y-79877420D01*
X143007493Y-79944764D01*
X142973821Y-80045779D01*
X142872806Y-80214138D01*
X142704447Y-80382497D01*
X142536089Y-80483512D01*
X142435073Y-80517184D01*
X142367730Y-80517184D01*
X142266715Y-80483512D01*
X142199371Y-80416168D01*
X142165699Y-80315153D01*
X142165699Y-80247810D01*
X142199371Y-80146794D01*
X142300386Y-79978436D01*
X142468745Y-79810077D01*
X142637104Y-79709062D01*
X142738119Y-79675390D01*
X142805463Y-79675390D01*
X142906478Y-79709062D01*
X142805463Y-80887573D02*
X142805463Y-80954917D01*
X142738119Y-80954917D01*
X142738119Y-80887573D01*
X142805463Y-80887573D01*
X142738119Y-80954917D01*
X143445226Y-81662023D02*
X143041165Y-81257962D01*
X143243195Y-81459993D02*
X143950302Y-80752886D01*
X143781944Y-80786558D01*
X143647257Y-80786558D01*
X143546241Y-80752886D01*
X144522722Y-81796710D02*
X144051318Y-82268115D01*
X144219676Y-81493665D02*
X143849287Y-81864054D01*
X143815615Y-81965069D01*
X143849287Y-82066084D01*
X143950302Y-82167100D01*
X144051318Y-82200771D01*
X144118661Y-82200771D01*
X125253380Y-84838990D02*
X124253380Y-84838990D01*
X125158142Y-83791371D02*
X125205761Y-83838990D01*
X125253380Y-83981847D01*
X125253380Y-84077085D01*
X125205761Y-84219942D01*
X125110523Y-84315180D01*
X125015285Y-84362800D01*
X124824809Y-84410419D01*
X124681952Y-84410419D01*
X124491476Y-84362800D01*
X124396238Y-84315180D01*
X124301000Y-84219942D01*
X124253380Y-84077085D01*
X124253380Y-83981847D01*
X124301000Y-83838990D01*
X124348619Y-83791371D01*
X125205761Y-83410419D02*
X125253380Y-83267561D01*
X125253380Y-83029466D01*
X125205761Y-82934228D01*
X125158142Y-82886609D01*
X125062904Y-82838990D01*
X124967666Y-82838990D01*
X124872428Y-82886609D01*
X124824809Y-82934228D01*
X124777190Y-83029466D01*
X124729571Y-83219942D01*
X124681952Y-83315180D01*
X124634333Y-83362800D01*
X124539095Y-83410419D01*
X124443857Y-83410419D01*
X124348619Y-83362800D01*
X124301000Y-83315180D01*
X124253380Y-83219942D01*
X124253380Y-82981847D01*
X124301000Y-82838990D01*
X125253380Y-82410419D02*
X124253380Y-82410419D01*
X124253380Y-82029466D01*
X124301000Y-81934228D01*
X124348619Y-81886609D01*
X124443857Y-81838990D01*
X124586714Y-81838990D01*
X124681952Y-81886609D01*
X124729571Y-81934228D01*
X124777190Y-82029466D01*
X124777190Y-82410419D01*
X135130714Y-99815657D02*
X135397380Y-99815657D01*
X135511666Y-100234704D02*
X135130714Y-100234704D01*
X135130714Y-99434704D01*
X135511666Y-99434704D01*
X135854523Y-100234704D02*
X135854523Y-99434704D01*
X136311666Y-100234704D01*
X136311666Y-99434704D01*
X137149761Y-100158514D02*
X137111666Y-100196609D01*
X136997380Y-100234704D01*
X136921190Y-100234704D01*
X136806904Y-100196609D01*
X136730714Y-100120419D01*
X136692619Y-100044228D01*
X136654523Y-99891847D01*
X136654523Y-99777561D01*
X136692619Y-99625180D01*
X136730714Y-99548990D01*
X136806904Y-99472800D01*
X136921190Y-99434704D01*
X136997380Y-99434704D01*
X137111666Y-99472800D01*
X137149761Y-99510895D01*
X137302142Y-100310895D02*
X137911666Y-100310895D01*
X138559285Y-100158514D02*
X138521190Y-100196609D01*
X138406904Y-100234704D01*
X138330714Y-100234704D01*
X138216428Y-100196609D01*
X138140238Y-100120419D01*
X138102142Y-100044228D01*
X138064047Y-99891847D01*
X138064047Y-99777561D01*
X138102142Y-99625180D01*
X138140238Y-99548990D01*
X138216428Y-99472800D01*
X138330714Y-99434704D01*
X138406904Y-99434704D01*
X138521190Y-99472800D01*
X138559285Y-99510895D01*
X139054523Y-99434704D02*
X139206904Y-99434704D01*
X139283095Y-99472800D01*
X139359285Y-99548990D01*
X139397380Y-99701371D01*
X139397380Y-99968038D01*
X139359285Y-100120419D01*
X139283095Y-100196609D01*
X139206904Y-100234704D01*
X139054523Y-100234704D01*
X138978333Y-100196609D01*
X138902142Y-100120419D01*
X138864047Y-99968038D01*
X138864047Y-99701371D01*
X138902142Y-99548990D01*
X138978333Y-99472800D01*
X139054523Y-99434704D01*
X139740238Y-100234704D02*
X139740238Y-99434704D01*
X140197380Y-100234704D01*
X140197380Y-99434704D01*
X140730714Y-99434704D02*
X140806904Y-99434704D01*
X140883095Y-99472800D01*
X140921190Y-99510895D01*
X140959285Y-99587085D01*
X140997380Y-99739466D01*
X140997380Y-99929942D01*
X140959285Y-100082323D01*
X140921190Y-100158514D01*
X140883095Y-100196609D01*
X140806904Y-100234704D01*
X140730714Y-100234704D01*
X140654523Y-100196609D01*
X140616428Y-100158514D01*
X140578333Y-100082323D01*
X140540238Y-99929942D01*
X140540238Y-99739466D01*
X140578333Y-99587085D01*
X140616428Y-99510895D01*
X140654523Y-99472800D01*
X140730714Y-99434704D01*
X135130714Y-101339657D02*
X135397380Y-101339657D01*
X135511666Y-101758704D02*
X135130714Y-101758704D01*
X135130714Y-100958704D01*
X135511666Y-100958704D01*
X135854523Y-101758704D02*
X135854523Y-100958704D01*
X136311666Y-101758704D01*
X136311666Y-100958704D01*
X137149761Y-101682514D02*
X137111666Y-101720609D01*
X136997380Y-101758704D01*
X136921190Y-101758704D01*
X136806904Y-101720609D01*
X136730714Y-101644419D01*
X136692619Y-101568228D01*
X136654523Y-101415847D01*
X136654523Y-101301561D01*
X136692619Y-101149180D01*
X136730714Y-101072990D01*
X136806904Y-100996800D01*
X136921190Y-100958704D01*
X136997380Y-100958704D01*
X137111666Y-100996800D01*
X137149761Y-101034895D01*
X137302142Y-101834895D02*
X137911666Y-101834895D01*
X138559285Y-101682514D02*
X138521190Y-101720609D01*
X138406904Y-101758704D01*
X138330714Y-101758704D01*
X138216428Y-101720609D01*
X138140238Y-101644419D01*
X138102142Y-101568228D01*
X138064047Y-101415847D01*
X138064047Y-101301561D01*
X138102142Y-101149180D01*
X138140238Y-101072990D01*
X138216428Y-100996800D01*
X138330714Y-100958704D01*
X138406904Y-100958704D01*
X138521190Y-100996800D01*
X138559285Y-101034895D01*
X139054523Y-100958704D02*
X139206904Y-100958704D01*
X139283095Y-100996800D01*
X139359285Y-101072990D01*
X139397380Y-101225371D01*
X139397380Y-101492038D01*
X139359285Y-101644419D01*
X139283095Y-101720609D01*
X139206904Y-101758704D01*
X139054523Y-101758704D01*
X138978333Y-101720609D01*
X138902142Y-101644419D01*
X138864047Y-101492038D01*
X138864047Y-101225371D01*
X138902142Y-101072990D01*
X138978333Y-100996800D01*
X139054523Y-100958704D01*
X139740238Y-101758704D02*
X139740238Y-100958704D01*
X140197380Y-101758704D01*
X140197380Y-100958704D01*
X140997380Y-101758704D02*
X140540238Y-101758704D01*
X140768809Y-101758704D02*
X140768809Y-100958704D01*
X140692619Y-101072990D01*
X140616428Y-101149180D01*
X140540238Y-101187276D01*
X120436809Y-76587704D02*
X119979666Y-76587704D01*
X120208238Y-76587704D02*
X120208238Y-75787704D01*
X120132047Y-75901990D01*
X120055857Y-75978180D01*
X119979666Y-76016276D01*
X120932047Y-75787704D02*
X121008238Y-75787704D01*
X121084428Y-75825800D01*
X121122523Y-75863895D01*
X121160619Y-75940085D01*
X121198714Y-76092466D01*
X121198714Y-76282942D01*
X121160619Y-76435323D01*
X121122523Y-76511514D01*
X121084428Y-76549609D01*
X121008238Y-76587704D01*
X120932047Y-76587704D01*
X120855857Y-76549609D01*
X120817761Y-76511514D01*
X120779666Y-76435323D01*
X120741571Y-76282942D01*
X120741571Y-76092466D01*
X120779666Y-75940085D01*
X120817761Y-75863895D01*
X120855857Y-75825800D01*
X120932047Y-75787704D01*
X121541571Y-76587704D02*
X121541571Y-75787704D01*
X121617761Y-76282942D02*
X121846333Y-76587704D01*
X121846333Y-76054371D02*
X121541571Y-76359133D01*
X120923095Y-73431323D02*
X120885000Y-73393228D01*
X120846904Y-73317038D01*
X120846904Y-73126561D01*
X120885000Y-73050371D01*
X120923095Y-73012276D01*
X120999285Y-72974180D01*
X121075476Y-72974180D01*
X121189761Y-73012276D01*
X121646904Y-73469419D01*
X121646904Y-72974180D01*
X120923095Y-72669419D02*
X120885000Y-72631323D01*
X120846904Y-72555133D01*
X120846904Y-72364657D01*
X120885000Y-72288466D01*
X120923095Y-72250371D01*
X120999285Y-72212276D01*
X121075476Y-72212276D01*
X121189761Y-72250371D01*
X121646904Y-72707514D01*
X121646904Y-72212276D01*
X122955095Y-73431323D02*
X122917000Y-73393228D01*
X122878904Y-73317038D01*
X122878904Y-73126561D01*
X122917000Y-73050371D01*
X122955095Y-73012276D01*
X123031285Y-72974180D01*
X123107476Y-72974180D01*
X123221761Y-73012276D01*
X123678904Y-73469419D01*
X123678904Y-72974180D01*
X122955095Y-72669419D02*
X122917000Y-72631323D01*
X122878904Y-72555133D01*
X122878904Y-72364657D01*
X122917000Y-72288466D01*
X122955095Y-72250371D01*
X123031285Y-72212276D01*
X123107476Y-72212276D01*
X123221761Y-72250371D01*
X123678904Y-72707514D01*
X123678904Y-72212276D01*
X159670761Y-75723704D02*
X159213619Y-75723704D01*
X159442190Y-75723704D02*
X159442190Y-74923704D01*
X159366000Y-75037990D01*
X159289809Y-75114180D01*
X159213619Y-75152276D01*
X160013619Y-75723704D02*
X160013619Y-74923704D01*
X160089809Y-75418942D02*
X160318380Y-75723704D01*
X160318380Y-75190371D02*
X160013619Y-75495133D01*
X138918904Y-108095990D02*
X138918904Y-108553133D01*
X138918904Y-108324561D02*
X138118904Y-108324561D01*
X138233190Y-108400752D01*
X138309380Y-108476942D01*
X138347476Y-108553133D01*
X138118904Y-107600752D02*
X138118904Y-107524561D01*
X138157000Y-107448371D01*
X138195095Y-107410276D01*
X138271285Y-107372180D01*
X138423666Y-107334085D01*
X138614142Y-107334085D01*
X138766523Y-107372180D01*
X138842714Y-107410276D01*
X138880809Y-107448371D01*
X138918904Y-107524561D01*
X138918904Y-107600752D01*
X138880809Y-107676942D01*
X138842714Y-107715038D01*
X138766523Y-107753133D01*
X138614142Y-107791228D01*
X138423666Y-107791228D01*
X138271285Y-107753133D01*
X138195095Y-107715038D01*
X138157000Y-107676942D01*
X138118904Y-107600752D01*
X138918904Y-106991228D02*
X138118904Y-106991228D01*
X138614142Y-106915038D02*
X138918904Y-106686466D01*
X138385571Y-106686466D02*
X138690333Y-106991228D01*
X140696904Y-108095990D02*
X140696904Y-108553133D01*
X140696904Y-108324561D02*
X139896904Y-108324561D01*
X140011190Y-108400752D01*
X140087380Y-108476942D01*
X140125476Y-108553133D01*
X139896904Y-107600752D02*
X139896904Y-107524561D01*
X139935000Y-107448371D01*
X139973095Y-107410276D01*
X140049285Y-107372180D01*
X140201666Y-107334085D01*
X140392142Y-107334085D01*
X140544523Y-107372180D01*
X140620714Y-107410276D01*
X140658809Y-107448371D01*
X140696904Y-107524561D01*
X140696904Y-107600752D01*
X140658809Y-107676942D01*
X140620714Y-107715038D01*
X140544523Y-107753133D01*
X140392142Y-107791228D01*
X140201666Y-107791228D01*
X140049285Y-107753133D01*
X139973095Y-107715038D01*
X139935000Y-107676942D01*
X139896904Y-107600752D01*
X140696904Y-106991228D02*
X139896904Y-106991228D01*
X140392142Y-106915038D02*
X140696904Y-106686466D01*
X140163571Y-106686466D02*
X140468333Y-106991228D01*
X114331809Y-76607704D02*
X113874666Y-76607704D01*
X114103238Y-76607704D02*
X114103238Y-75807704D01*
X114027047Y-75921990D01*
X113950857Y-75998180D01*
X113874666Y-76036276D01*
X114827047Y-75807704D02*
X114903238Y-75807704D01*
X114979428Y-75845800D01*
X115017523Y-75883895D01*
X115055619Y-75960085D01*
X115093714Y-76112466D01*
X115093714Y-76302942D01*
X115055619Y-76455323D01*
X115017523Y-76531514D01*
X114979428Y-76569609D01*
X114903238Y-76607704D01*
X114827047Y-76607704D01*
X114750857Y-76569609D01*
X114712761Y-76531514D01*
X114674666Y-76455323D01*
X114636571Y-76302942D01*
X114636571Y-76112466D01*
X114674666Y-75960085D01*
X114712761Y-75883895D01*
X114750857Y-75845800D01*
X114827047Y-75807704D01*
X115436571Y-76607704D02*
X115436571Y-75807704D01*
X115512761Y-76302942D02*
X115741333Y-76607704D01*
X115741333Y-76074371D02*
X115436571Y-76379133D01*
X114331809Y-93752704D02*
X113874666Y-93752704D01*
X114103238Y-93752704D02*
X114103238Y-92952704D01*
X114027047Y-93066990D01*
X113950857Y-93143180D01*
X113874666Y-93181276D01*
X114827047Y-92952704D02*
X114903238Y-92952704D01*
X114979428Y-92990800D01*
X115017523Y-93028895D01*
X115055619Y-93105085D01*
X115093714Y-93257466D01*
X115093714Y-93447942D01*
X115055619Y-93600323D01*
X115017523Y-93676514D01*
X114979428Y-93714609D01*
X114903238Y-93752704D01*
X114827047Y-93752704D01*
X114750857Y-93714609D01*
X114712761Y-93676514D01*
X114674666Y-93600323D01*
X114636571Y-93447942D01*
X114636571Y-93257466D01*
X114674666Y-93105085D01*
X114712761Y-93028895D01*
X114750857Y-92990800D01*
X114827047Y-92952704D01*
X115436571Y-93752704D02*
X115436571Y-92952704D01*
X115512761Y-93447942D02*
X115741333Y-93752704D01*
X115741333Y-93219371D02*
X115436571Y-93524133D01*
X114331809Y-110897704D02*
X113874666Y-110897704D01*
X114103238Y-110897704D02*
X114103238Y-110097704D01*
X114027047Y-110211990D01*
X113950857Y-110288180D01*
X113874666Y-110326276D01*
X114827047Y-110097704D02*
X114903238Y-110097704D01*
X114979428Y-110135800D01*
X115017523Y-110173895D01*
X115055619Y-110250085D01*
X115093714Y-110402466D01*
X115093714Y-110592942D01*
X115055619Y-110745323D01*
X115017523Y-110821514D01*
X114979428Y-110859609D01*
X114903238Y-110897704D01*
X114827047Y-110897704D01*
X114750857Y-110859609D01*
X114712761Y-110821514D01*
X114674666Y-110745323D01*
X114636571Y-110592942D01*
X114636571Y-110402466D01*
X114674666Y-110250085D01*
X114712761Y-110173895D01*
X114750857Y-110135800D01*
X114827047Y-110097704D01*
X115436571Y-110897704D02*
X115436571Y-110097704D01*
X115512761Y-110592942D02*
X115741333Y-110897704D01*
X115741333Y-110364371D02*
X115436571Y-110669133D01*
X114331809Y-128677704D02*
X113874666Y-128677704D01*
X114103238Y-128677704D02*
X114103238Y-127877704D01*
X114027047Y-127991990D01*
X113950857Y-128068180D01*
X113874666Y-128106276D01*
X114827047Y-127877704D02*
X114903238Y-127877704D01*
X114979428Y-127915800D01*
X115017523Y-127953895D01*
X115055619Y-128030085D01*
X115093714Y-128182466D01*
X115093714Y-128372942D01*
X115055619Y-128525323D01*
X115017523Y-128601514D01*
X114979428Y-128639609D01*
X114903238Y-128677704D01*
X114827047Y-128677704D01*
X114750857Y-128639609D01*
X114712761Y-128601514D01*
X114674666Y-128525323D01*
X114636571Y-128372942D01*
X114636571Y-128182466D01*
X114674666Y-128030085D01*
X114712761Y-127953895D01*
X114750857Y-127915800D01*
X114827047Y-127877704D01*
X115436571Y-128677704D02*
X115436571Y-127877704D01*
X115512761Y-128372942D02*
X115741333Y-128677704D01*
X115741333Y-128144371D02*
X115436571Y-128449133D01*
X129571809Y-110897704D02*
X129114666Y-110897704D01*
X129343238Y-110897704D02*
X129343238Y-110097704D01*
X129267047Y-110211990D01*
X129190857Y-110288180D01*
X129114666Y-110326276D01*
X130067047Y-110097704D02*
X130143238Y-110097704D01*
X130219428Y-110135800D01*
X130257523Y-110173895D01*
X130295619Y-110250085D01*
X130333714Y-110402466D01*
X130333714Y-110592942D01*
X130295619Y-110745323D01*
X130257523Y-110821514D01*
X130219428Y-110859609D01*
X130143238Y-110897704D01*
X130067047Y-110897704D01*
X129990857Y-110859609D01*
X129952761Y-110821514D01*
X129914666Y-110745323D01*
X129876571Y-110592942D01*
X129876571Y-110402466D01*
X129914666Y-110250085D01*
X129952761Y-110173895D01*
X129990857Y-110135800D01*
X130067047Y-110097704D01*
X130676571Y-110897704D02*
X130676571Y-110097704D01*
X130752761Y-110592942D02*
X130981333Y-110897704D01*
X130981333Y-110364371D02*
X130676571Y-110669133D01*
X129571809Y-128677704D02*
X129114666Y-128677704D01*
X129343238Y-128677704D02*
X129343238Y-127877704D01*
X129267047Y-127991990D01*
X129190857Y-128068180D01*
X129114666Y-128106276D01*
X130067047Y-127877704D02*
X130143238Y-127877704D01*
X130219428Y-127915800D01*
X130257523Y-127953895D01*
X130295619Y-128030085D01*
X130333714Y-128182466D01*
X130333714Y-128372942D01*
X130295619Y-128525323D01*
X130257523Y-128601514D01*
X130219428Y-128639609D01*
X130143238Y-128677704D01*
X130067047Y-128677704D01*
X129990857Y-128639609D01*
X129952761Y-128601514D01*
X129914666Y-128525323D01*
X129876571Y-128372942D01*
X129876571Y-128182466D01*
X129914666Y-128030085D01*
X129952761Y-127953895D01*
X129990857Y-127915800D01*
X130067047Y-127877704D01*
X130676571Y-128677704D02*
X130676571Y-127877704D01*
X130752761Y-128372942D02*
X130981333Y-128677704D01*
X130981333Y-128144371D02*
X130676571Y-128449133D01*
X134651809Y-74707704D02*
X134194666Y-74707704D01*
X134423238Y-74707704D02*
X134423238Y-73907704D01*
X134347047Y-74021990D01*
X134270857Y-74098180D01*
X134194666Y-74136276D01*
X135147047Y-73907704D02*
X135223238Y-73907704D01*
X135299428Y-73945800D01*
X135337523Y-73983895D01*
X135375619Y-74060085D01*
X135413714Y-74212466D01*
X135413714Y-74402942D01*
X135375619Y-74555323D01*
X135337523Y-74631514D01*
X135299428Y-74669609D01*
X135223238Y-74707704D01*
X135147047Y-74707704D01*
X135070857Y-74669609D01*
X135032761Y-74631514D01*
X134994666Y-74555323D01*
X134956571Y-74402942D01*
X134956571Y-74212466D01*
X134994666Y-74060085D01*
X135032761Y-73983895D01*
X135070857Y-73945800D01*
X135147047Y-73907704D01*
X135756571Y-74707704D02*
X135756571Y-73907704D01*
X135832761Y-74402942D02*
X136061333Y-74707704D01*
X136061333Y-74174371D02*
X135756571Y-74479133D01*
X149764809Y-74707704D02*
X149307666Y-74707704D01*
X149536238Y-74707704D02*
X149536238Y-73907704D01*
X149460047Y-74021990D01*
X149383857Y-74098180D01*
X149307666Y-74136276D01*
X150260047Y-73907704D02*
X150336238Y-73907704D01*
X150412428Y-73945800D01*
X150450523Y-73983895D01*
X150488619Y-74060085D01*
X150526714Y-74212466D01*
X150526714Y-74402942D01*
X150488619Y-74555323D01*
X150450523Y-74631514D01*
X150412428Y-74669609D01*
X150336238Y-74707704D01*
X150260047Y-74707704D01*
X150183857Y-74669609D01*
X150145761Y-74631514D01*
X150107666Y-74555323D01*
X150069571Y-74402942D01*
X150069571Y-74212466D01*
X150107666Y-74060085D01*
X150145761Y-73983895D01*
X150183857Y-73945800D01*
X150260047Y-73907704D01*
X150869571Y-74707704D02*
X150869571Y-73907704D01*
X150945761Y-74402942D02*
X151174333Y-74707704D01*
X151174333Y-74174371D02*
X150869571Y-74479133D01*
X165131809Y-74707704D02*
X164674666Y-74707704D01*
X164903238Y-74707704D02*
X164903238Y-73907704D01*
X164827047Y-74021990D01*
X164750857Y-74098180D01*
X164674666Y-74136276D01*
X165627047Y-73907704D02*
X165703238Y-73907704D01*
X165779428Y-73945800D01*
X165817523Y-73983895D01*
X165855619Y-74060085D01*
X165893714Y-74212466D01*
X165893714Y-74402942D01*
X165855619Y-74555323D01*
X165817523Y-74631514D01*
X165779428Y-74669609D01*
X165703238Y-74707704D01*
X165627047Y-74707704D01*
X165550857Y-74669609D01*
X165512761Y-74631514D01*
X165474666Y-74555323D01*
X165436571Y-74402942D01*
X165436571Y-74212466D01*
X165474666Y-74060085D01*
X165512761Y-73983895D01*
X165550857Y-73945800D01*
X165627047Y-73907704D01*
X166236571Y-74707704D02*
X166236571Y-73907704D01*
X166312761Y-74402942D02*
X166541333Y-74707704D01*
X166541333Y-74174371D02*
X166236571Y-74479133D01*
X100160142Y-71265800D02*
X100231571Y-71051514D01*
X100231571Y-70694371D01*
X100160142Y-70551514D01*
X100088714Y-70480085D01*
X99945857Y-70408657D01*
X99803000Y-70408657D01*
X99660142Y-70480085D01*
X99588714Y-70551514D01*
X99517285Y-70694371D01*
X99445857Y-70980085D01*
X99374428Y-71122942D01*
X99303000Y-71194371D01*
X99160142Y-71265800D01*
X99017285Y-71265800D01*
X98874428Y-71194371D01*
X98803000Y-71122942D01*
X98731571Y-70980085D01*
X98731571Y-70622942D01*
X98803000Y-70408657D01*
X98731571Y-69908657D02*
X100231571Y-69551514D01*
X99160142Y-69265800D01*
X100231571Y-68980085D01*
X98731571Y-68622942D01*
X98874428Y-68122942D02*
X98803000Y-68051514D01*
X98731571Y-67908657D01*
X98731571Y-67551514D01*
X98803000Y-67408657D01*
X98874428Y-67337228D01*
X99017285Y-67265800D01*
X99160142Y-67265800D01*
X99374428Y-67337228D01*
X100231571Y-68194371D01*
X100231571Y-67265800D01*
X100160142Y-88410800D02*
X100231571Y-88196514D01*
X100231571Y-87839371D01*
X100160142Y-87696514D01*
X100088714Y-87625085D01*
X99945857Y-87553657D01*
X99803000Y-87553657D01*
X99660142Y-87625085D01*
X99588714Y-87696514D01*
X99517285Y-87839371D01*
X99445857Y-88125085D01*
X99374428Y-88267942D01*
X99303000Y-88339371D01*
X99160142Y-88410800D01*
X99017285Y-88410800D01*
X98874428Y-88339371D01*
X98803000Y-88267942D01*
X98731571Y-88125085D01*
X98731571Y-87767942D01*
X98803000Y-87553657D01*
X98731571Y-87053657D02*
X100231571Y-86696514D01*
X99160142Y-86410800D01*
X100231571Y-86125085D01*
X98731571Y-85767942D01*
X98731571Y-85339371D02*
X98731571Y-84410800D01*
X99303000Y-84910800D01*
X99303000Y-84696514D01*
X99374428Y-84553657D01*
X99445857Y-84482228D01*
X99588714Y-84410800D01*
X99945857Y-84410800D01*
X100088714Y-84482228D01*
X100160142Y-84553657D01*
X100231571Y-84696514D01*
X100231571Y-85125085D01*
X100160142Y-85267942D01*
X100088714Y-85339371D01*
X100160142Y-105555800D02*
X100231571Y-105341514D01*
X100231571Y-104984371D01*
X100160142Y-104841514D01*
X100088714Y-104770085D01*
X99945857Y-104698657D01*
X99803000Y-104698657D01*
X99660142Y-104770085D01*
X99588714Y-104841514D01*
X99517285Y-104984371D01*
X99445857Y-105270085D01*
X99374428Y-105412942D01*
X99303000Y-105484371D01*
X99160142Y-105555800D01*
X99017285Y-105555800D01*
X98874428Y-105484371D01*
X98803000Y-105412942D01*
X98731571Y-105270085D01*
X98731571Y-104912942D01*
X98803000Y-104698657D01*
X98731571Y-104198657D02*
X100231571Y-103841514D01*
X99160142Y-103555800D01*
X100231571Y-103270085D01*
X98731571Y-102912942D01*
X99231571Y-101698657D02*
X100231571Y-101698657D01*
X98660142Y-102055800D02*
X99731571Y-102412942D01*
X99731571Y-101484371D01*
X100160142Y-123235800D02*
X100231571Y-123021514D01*
X100231571Y-122664371D01*
X100160142Y-122521514D01*
X100088714Y-122450085D01*
X99945857Y-122378657D01*
X99803000Y-122378657D01*
X99660142Y-122450085D01*
X99588714Y-122521514D01*
X99517285Y-122664371D01*
X99445857Y-122950085D01*
X99374428Y-123092942D01*
X99303000Y-123164371D01*
X99160142Y-123235800D01*
X99017285Y-123235800D01*
X98874428Y-123164371D01*
X98803000Y-123092942D01*
X98731571Y-122950085D01*
X98731571Y-122592942D01*
X98803000Y-122378657D01*
X98731571Y-121878657D02*
X100231571Y-121521514D01*
X99160142Y-121235800D01*
X100231571Y-120950085D01*
X98731571Y-120592942D01*
X98731571Y-119307228D02*
X98731571Y-120021514D01*
X99445857Y-120092942D01*
X99374428Y-120021514D01*
X99303000Y-119878657D01*
X99303000Y-119521514D01*
X99374428Y-119378657D01*
X99445857Y-119307228D01*
X99588714Y-119235800D01*
X99945857Y-119235800D01*
X100088714Y-119307228D01*
X100160142Y-119378657D01*
X100231571Y-119521514D01*
X100231571Y-119878657D01*
X100160142Y-120021514D01*
X100088714Y-120092942D01*
X116035142Y-105555800D02*
X116106571Y-105341514D01*
X116106571Y-104984371D01*
X116035142Y-104841514D01*
X115963714Y-104770085D01*
X115820857Y-104698657D01*
X115678000Y-104698657D01*
X115535142Y-104770085D01*
X115463714Y-104841514D01*
X115392285Y-104984371D01*
X115320857Y-105270085D01*
X115249428Y-105412942D01*
X115178000Y-105484371D01*
X115035142Y-105555800D01*
X114892285Y-105555800D01*
X114749428Y-105484371D01*
X114678000Y-105412942D01*
X114606571Y-105270085D01*
X114606571Y-104912942D01*
X114678000Y-104698657D01*
X114606571Y-104198657D02*
X116106571Y-103841514D01*
X115035142Y-103555800D01*
X116106571Y-103270085D01*
X114606571Y-102912942D01*
X114606571Y-101698657D02*
X114606571Y-101984371D01*
X114678000Y-102127228D01*
X114749428Y-102198657D01*
X114963714Y-102341514D01*
X115249428Y-102412942D01*
X115820857Y-102412942D01*
X115963714Y-102341514D01*
X116035142Y-102270085D01*
X116106571Y-102127228D01*
X116106571Y-101841514D01*
X116035142Y-101698657D01*
X115963714Y-101627228D01*
X115820857Y-101555800D01*
X115463714Y-101555800D01*
X115320857Y-101627228D01*
X115249428Y-101698657D01*
X115178000Y-101841514D01*
X115178000Y-102127228D01*
X115249428Y-102270085D01*
X115320857Y-102341514D01*
X115463714Y-102412942D01*
X116035142Y-123335800D02*
X116106571Y-123121514D01*
X116106571Y-122764371D01*
X116035142Y-122621514D01*
X115963714Y-122550085D01*
X115820857Y-122478657D01*
X115678000Y-122478657D01*
X115535142Y-122550085D01*
X115463714Y-122621514D01*
X115392285Y-122764371D01*
X115320857Y-123050085D01*
X115249428Y-123192942D01*
X115178000Y-123264371D01*
X115035142Y-123335800D01*
X114892285Y-123335800D01*
X114749428Y-123264371D01*
X114678000Y-123192942D01*
X114606571Y-123050085D01*
X114606571Y-122692942D01*
X114678000Y-122478657D01*
X114606571Y-121978657D02*
X116106571Y-121621514D01*
X115035142Y-121335800D01*
X116106571Y-121050085D01*
X114606571Y-120692942D01*
X114606571Y-120264371D02*
X114606571Y-119264371D01*
X116106571Y-119907228D01*
X131275142Y-67455800D02*
X131346571Y-67241514D01*
X131346571Y-66884371D01*
X131275142Y-66741514D01*
X131203714Y-66670085D01*
X131060857Y-66598657D01*
X130918000Y-66598657D01*
X130775142Y-66670085D01*
X130703714Y-66741514D01*
X130632285Y-66884371D01*
X130560857Y-67170085D01*
X130489428Y-67312942D01*
X130418000Y-67384371D01*
X130275142Y-67455800D01*
X130132285Y-67455800D01*
X129989428Y-67384371D01*
X129918000Y-67312942D01*
X129846571Y-67170085D01*
X129846571Y-66812942D01*
X129918000Y-66598657D01*
X129846571Y-66098657D02*
X131346571Y-65741514D01*
X130275142Y-65455800D01*
X131346571Y-65170085D01*
X129846571Y-64812942D01*
X130489428Y-64027228D02*
X130418000Y-64170085D01*
X130346571Y-64241514D01*
X130203714Y-64312942D01*
X130132285Y-64312942D01*
X129989428Y-64241514D01*
X129918000Y-64170085D01*
X129846571Y-64027228D01*
X129846571Y-63741514D01*
X129918000Y-63598657D01*
X129989428Y-63527228D01*
X130132285Y-63455800D01*
X130203714Y-63455800D01*
X130346571Y-63527228D01*
X130418000Y-63598657D01*
X130489428Y-63741514D01*
X130489428Y-64027228D01*
X130560857Y-64170085D01*
X130632285Y-64241514D01*
X130775142Y-64312942D01*
X131060857Y-64312942D01*
X131203714Y-64241514D01*
X131275142Y-64170085D01*
X131346571Y-64027228D01*
X131346571Y-63741514D01*
X131275142Y-63598657D01*
X131203714Y-63527228D01*
X131060857Y-63455800D01*
X130775142Y-63455800D01*
X130632285Y-63527228D01*
X130560857Y-63598657D01*
X130489428Y-63741514D01*
X146515142Y-67455800D02*
X146586571Y-67241514D01*
X146586571Y-66884371D01*
X146515142Y-66741514D01*
X146443714Y-66670085D01*
X146300857Y-66598657D01*
X146158000Y-66598657D01*
X146015142Y-66670085D01*
X145943714Y-66741514D01*
X145872285Y-66884371D01*
X145800857Y-67170085D01*
X145729428Y-67312942D01*
X145658000Y-67384371D01*
X145515142Y-67455800D01*
X145372285Y-67455800D01*
X145229428Y-67384371D01*
X145158000Y-67312942D01*
X145086571Y-67170085D01*
X145086571Y-66812942D01*
X145158000Y-66598657D01*
X145086571Y-66098657D02*
X146586571Y-65741514D01*
X145515142Y-65455800D01*
X146586571Y-65170085D01*
X145086571Y-64812942D01*
X146586571Y-64170085D02*
X146586571Y-63884371D01*
X146515142Y-63741514D01*
X146443714Y-63670085D01*
X146229428Y-63527228D01*
X145943714Y-63455800D01*
X145372285Y-63455800D01*
X145229428Y-63527228D01*
X145158000Y-63598657D01*
X145086571Y-63741514D01*
X145086571Y-64027228D01*
X145158000Y-64170085D01*
X145229428Y-64241514D01*
X145372285Y-64312942D01*
X145729428Y-64312942D01*
X145872285Y-64241514D01*
X145943714Y-64170085D01*
X146015142Y-64027228D01*
X146015142Y-63741514D01*
X145943714Y-63598657D01*
X145872285Y-63527228D01*
X145729428Y-63455800D01*
X140198362Y-97076139D02*
X140535080Y-96739421D01*
X140333049Y-97345513D02*
X139861645Y-96402704D01*
X140804454Y-96874108D01*
X140232034Y-96032314D02*
X140636095Y-95628253D01*
X141141172Y-96537391D02*
X140434065Y-95830284D01*
X141578904Y-96099658D02*
X141107500Y-95628253D01*
X141174843Y-95695597D02*
X141174843Y-95628253D01*
X141208515Y-95527238D01*
X141309530Y-95426223D01*
X141410546Y-95392551D01*
X141511561Y-95426223D01*
X141881950Y-95796612D01*
X141511561Y-95426223D02*
X141477889Y-95325208D01*
X141511561Y-95224192D01*
X141612576Y-95123177D01*
X141713591Y-95089505D01*
X141814607Y-95123177D01*
X142184996Y-95493566D01*
X142757416Y-94853803D02*
X142723744Y-94954818D01*
X142589057Y-95089505D01*
X142488042Y-95123177D01*
X142387026Y-95089505D01*
X142117652Y-94820131D01*
X142083981Y-94719116D01*
X142117652Y-94618101D01*
X142252339Y-94483414D01*
X142353355Y-94449742D01*
X142454370Y-94483414D01*
X142521713Y-94550757D01*
X142252339Y-94954818D01*
X142959446Y-93776307D02*
X143531866Y-94348727D01*
X143565538Y-94449742D01*
X143565538Y-94517086D01*
X143531866Y-94618101D01*
X143430851Y-94719116D01*
X143329835Y-94752788D01*
X143397179Y-94214040D02*
X143363507Y-94315055D01*
X143228820Y-94449742D01*
X143127805Y-94483414D01*
X143060461Y-94483414D01*
X142959446Y-94449742D01*
X142757416Y-94247712D01*
X142723744Y-94146696D01*
X142723744Y-94079353D01*
X142757416Y-93978338D01*
X142892103Y-93843651D01*
X142993118Y-93809979D01*
X144070614Y-93607948D02*
X143700225Y-93237559D01*
X143599209Y-93203887D01*
X143498194Y-93237559D01*
X143363507Y-93372246D01*
X143329835Y-93473261D01*
X144036942Y-93574277D02*
X144003270Y-93675292D01*
X143834912Y-93843651D01*
X143733896Y-93877322D01*
X143632881Y-93843651D01*
X143565538Y-93776307D01*
X143531866Y-93675292D01*
X143565538Y-93574277D01*
X143733896Y-93405918D01*
X143767568Y-93304903D01*
X143632881Y-92631468D02*
X144070614Y-92193735D01*
X144104286Y-92698811D01*
X144205301Y-92597796D01*
X144306316Y-92564124D01*
X144373660Y-92564124D01*
X144474675Y-92597796D01*
X144643034Y-92766155D01*
X144676705Y-92867170D01*
X144676705Y-92934513D01*
X144643034Y-93035529D01*
X144441003Y-93237559D01*
X144339988Y-93271231D01*
X144272644Y-93271231D01*
X144407331Y-91991704D02*
X144407331Y-91924361D01*
X144441003Y-91823346D01*
X144609362Y-91654987D01*
X144710377Y-91621315D01*
X144777721Y-91621315D01*
X144878736Y-91654987D01*
X144946079Y-91722330D01*
X145013423Y-91857017D01*
X145013423Y-92665139D01*
X145451156Y-92227407D01*
X145047095Y-91217254D02*
X145619514Y-91789674D01*
X145720530Y-91823346D01*
X145787873Y-91823346D01*
X145888888Y-91789674D01*
X146023575Y-91654987D01*
X146057247Y-91553972D01*
X146057247Y-91486628D01*
X146023575Y-91385613D01*
X145451156Y-90813193D01*
X146326621Y-90409132D02*
X146798026Y-90880536D01*
X145888888Y-90308117D02*
X146225606Y-90981552D01*
X146663339Y-90543819D01*
X129483019Y-100887704D02*
X129025876Y-100887704D01*
X129254447Y-100887704D02*
X129254447Y-100087704D01*
X129178257Y-100201990D01*
X129102066Y-100278180D01*
X129025876Y-100316276D01*
X130168733Y-100087704D02*
X130016352Y-100087704D01*
X129940161Y-100125800D01*
X129902066Y-100163895D01*
X129825876Y-100278180D01*
X129787780Y-100430561D01*
X129787780Y-100735323D01*
X129825876Y-100811514D01*
X129863971Y-100849609D01*
X129940161Y-100887704D01*
X130092542Y-100887704D01*
X130168733Y-100849609D01*
X130206828Y-100811514D01*
X130244923Y-100735323D01*
X130244923Y-100544847D01*
X130206828Y-100468657D01*
X130168733Y-100430561D01*
X130092542Y-100392466D01*
X129940161Y-100392466D01*
X129863971Y-100430561D01*
X129825876Y-100468657D01*
X129787780Y-100544847D01*
X130587780Y-100887704D02*
X130587780Y-100087704D01*
X130854447Y-100659133D01*
X131121114Y-100087704D01*
X131121114Y-100887704D01*
X131502066Y-100887704D02*
X131502066Y-100087704D01*
X131502066Y-100468657D02*
X131959209Y-100468657D01*
X131959209Y-100887704D02*
X131959209Y-100087704D01*
X132263971Y-100354371D02*
X132683019Y-100354371D01*
X132263971Y-100887704D01*
X132683019Y-100887704D01*
M02*
