G04 #@! TF.GenerationSoftware,KiCad,Pcbnew,(5.1.2)-2*
G04 #@! TF.CreationDate,2025-05-11T13:48:29+09:00*
G04 #@! TF.ProjectId,FIC_2,4649435f-322e-46b6-9963-61645f706362,rev?*
G04 #@! TF.SameCoordinates,Original*
G04 #@! TF.FileFunction,Copper,L2,Bot*
G04 #@! TF.FilePolarity,Positive*
%FSLAX46Y46*%
G04 Gerber Fmt 4.6, Leading zero omitted, Abs format (unit mm)*
G04 Created by KiCad (PCBNEW (5.1.2)-2) date 2025-05-11 13:48:29*
%MOMM*%
%LPD*%
G04 APERTURE LIST*
%ADD10C,2.000000*%
%ADD11C,4.000000*%
%ADD12O,2.600000X1.600000*%
%ADD13C,2.500000*%
%ADD14C,0.750000*%
%ADD15C,0.100000*%
%ADD16R,1.727200X1.727200*%
%ADD17O,1.727200X1.727200*%
%ADD18R,2.032000X1.727200*%
%ADD19O,2.032000X1.727200*%
%ADD20C,1.500000*%
%ADD21C,0.800000*%
%ADD22C,0.500000*%
%ADD23C,0.800000*%
%ADD24C,0.250000*%
%ADD25C,0.254000*%
G04 APERTURE END LIST*
D10*
X164475000Y-102087800D03*
X164475000Y-107087800D03*
X150039000Y-107071800D03*
X150039000Y-102071800D03*
X150039000Y-104571800D03*
D11*
X157289000Y-111171800D03*
X157289000Y-97971800D03*
D12*
X117781000Y-78790800D03*
X124281000Y-78790800D03*
D13*
X165648000Y-59205800D03*
X170648000Y-59205800D03*
X165648000Y-71705800D03*
X170648000Y-71705800D03*
D14*
X129847249Y-96497049D03*
D15*
G36*
X129157820Y-96337950D02*
G01*
X129688150Y-95807620D01*
X130536678Y-96656148D01*
X130006348Y-97186478D01*
X129157820Y-96337950D01*
X129157820Y-96337950D01*
G37*
D14*
X131190751Y-97840551D03*
D15*
G36*
X130501322Y-97681452D02*
G01*
X131031652Y-97151122D01*
X131880180Y-97999650D01*
X131349850Y-98529980D01*
X130501322Y-97681452D01*
X130501322Y-97681452D01*
G37*
D14*
X128015951Y-94665551D03*
D15*
G36*
X128705380Y-94824650D02*
G01*
X128175050Y-95354980D01*
X127326522Y-94506452D01*
X127856852Y-93976122D01*
X128705380Y-94824650D01*
X128705380Y-94824650D01*
G37*
D14*
X126672449Y-93322049D03*
D15*
G36*
X127361878Y-93481148D02*
G01*
X126831548Y-94011478D01*
X125983020Y-93162950D01*
X126513350Y-92632620D01*
X127361878Y-93481148D01*
X127361878Y-93481148D01*
G37*
D16*
X122301000Y-83362800D03*
D17*
X119761000Y-83362800D03*
X122301000Y-85902800D03*
X119761000Y-85902800D03*
X122301000Y-88442800D03*
X119761000Y-88442800D03*
D18*
X147193000Y-102158800D03*
D19*
X147193000Y-104698800D03*
X147193000Y-107238800D03*
X143637000Y-107238800D03*
X143637000Y-104698800D03*
D18*
X143637000Y-102158800D03*
D13*
X109053000Y-75515800D03*
X104053000Y-75515800D03*
X109053000Y-63015800D03*
X104053000Y-63015800D03*
X104053000Y-80160800D03*
X109053000Y-80160800D03*
X104053000Y-92660800D03*
X109053000Y-92660800D03*
X109053000Y-109805800D03*
X104053000Y-109805800D03*
X109053000Y-97305800D03*
X104053000Y-97305800D03*
X104053000Y-114985800D03*
X109053000Y-114985800D03*
X104053000Y-127485800D03*
X109053000Y-127485800D03*
X124928000Y-109805800D03*
X119928000Y-109805800D03*
X124928000Y-97305800D03*
X119928000Y-97305800D03*
X119928000Y-115085800D03*
X124928000Y-115085800D03*
X119928000Y-127585800D03*
X124928000Y-127585800D03*
X140168000Y-71705800D03*
X135168000Y-71705800D03*
X140168000Y-59205800D03*
X135168000Y-59205800D03*
X150408000Y-59205800D03*
X155408000Y-59205800D03*
X150408000Y-71705800D03*
X155408000Y-71705800D03*
D20*
X132207000Y-96125800D03*
X128742177Y-92660977D03*
D21*
X120142000Y-103809800D03*
X130111500Y-69392800D03*
X117221000Y-69202300D03*
X143186000Y-76552800D03*
X158902400Y-72390000D03*
X124953000Y-93917800D03*
X116353000Y-93117800D03*
X130492500Y-82092800D03*
X129730500Y-81330800D03*
X128968500Y-80568800D03*
X128206500Y-79806800D03*
X129730500Y-82727800D03*
X128968500Y-81965800D03*
X128206500Y-81203800D03*
X127444500Y-80441800D03*
X117688500Y-109377800D03*
X121244500Y-122522300D03*
X108608000Y-120426800D03*
X107909500Y-88105300D03*
X109687500Y-103916800D03*
X108267500Y-70345300D03*
X177686000Y-71852800D03*
X147686000Y-97852800D03*
X133686000Y-122852800D03*
X128686000Y-128852800D03*
X112813000Y-128725800D03*
X172686000Y-79852800D03*
X167686000Y-84852800D03*
X97686000Y-79852800D03*
X97686000Y-89852800D03*
X97686000Y-99852800D03*
X97686000Y-109852800D03*
X101813000Y-128725800D03*
X177686000Y-79852800D03*
X150686000Y-112852800D03*
X107686000Y-59852800D03*
X132686000Y-59852800D03*
X147686000Y-59852800D03*
X162686000Y-59852800D03*
X177686000Y-64852800D03*
X162686000Y-89852800D03*
X139573000Y-113461800D03*
X96313000Y-121725800D03*
X97686000Y-64852800D03*
X145237200Y-81127600D03*
X136779000Y-98602800D03*
X136271000Y-102819200D03*
X126111000Y-74345800D03*
X130619500Y-79044800D03*
X126288800Y-71526400D03*
X137287000Y-77901800D03*
X132969000Y-88569800D03*
X126111000Y-87045800D03*
X127127000Y-83997800D03*
X131191000Y-93649800D03*
X130683000Y-94919800D03*
X129667000Y-93903800D03*
X138366500Y-83553300D03*
X137350500Y-84315300D03*
X136271000Y-85267800D03*
X136525000Y-92125800D03*
X141605000Y-89077800D03*
X138049000Y-90601800D03*
X136525000Y-90601800D03*
X135001000Y-90601800D03*
X123063000Y-90220800D03*
X121793000Y-90220800D03*
X120523000Y-90220800D03*
X119253000Y-90220800D03*
X147002500Y-89204800D03*
X126238000Y-102285800D03*
X120523000Y-91617800D03*
X119253000Y-91617800D03*
X121793000Y-91617800D03*
X147091400Y-78765400D03*
X127813000Y-122725800D03*
X126809351Y-95872151D03*
X128143000Y-97205800D03*
X129413000Y-98475800D03*
X126873000Y-98475800D03*
X128143000Y-99745800D03*
X125603000Y-99745800D03*
X138557000Y-88569800D03*
X119253000Y-72567800D03*
X121259400Y-80694800D03*
X141626800Y-105144900D03*
X141626800Y-96957800D03*
X130429225Y-74091575D03*
X129667225Y-73329575D03*
X128905225Y-72567575D03*
X120523000Y-72567800D03*
X117983000Y-72567800D03*
X141626800Y-104042000D03*
X141626800Y-102772000D03*
X149352000Y-85140800D03*
X141414500Y-90601800D03*
X148038900Y-82480000D03*
X134199200Y-86633700D03*
X147602700Y-86784800D03*
X138756300Y-95778300D03*
X153314400Y-89662000D03*
X153313000Y-82725800D03*
X139198700Y-103027400D03*
X135473800Y-80757000D03*
X115951000Y-72059800D03*
X132323300Y-99496900D03*
X138830800Y-93162800D03*
X130831300Y-99745800D03*
X137929700Y-92312500D03*
X140893800Y-87842200D03*
X137242900Y-87878900D03*
X139681100Y-87863000D03*
X141291900Y-85239800D03*
X144106000Y-83356300D03*
X144562800Y-84324300D03*
D22*
X131190800Y-97840600D02*
X131774500Y-97256900D01*
X132207000Y-96125800D02*
X131774400Y-96558400D01*
X131774400Y-96558400D02*
X131774400Y-97256900D01*
X131774400Y-97256900D02*
X131774500Y-97256900D01*
X157289000Y-97971800D02*
X148771100Y-89453900D01*
X148771100Y-89453900D02*
X147264400Y-89453900D01*
X125375702Y-97305800D02*
X126809351Y-95872151D01*
X124928000Y-97305800D02*
X125375702Y-97305800D01*
X129847249Y-96496849D02*
X128015951Y-94665551D01*
X129847249Y-96497049D02*
X129847249Y-96496849D01*
X119253000Y-88950800D02*
X119761000Y-88442800D01*
X119253000Y-90220800D02*
X119253000Y-88950800D01*
X120523000Y-90220800D02*
X121793000Y-90220800D01*
X137414000Y-89966800D02*
X138049000Y-90601800D01*
X136525000Y-90601800D02*
X136525000Y-92125800D01*
X131191000Y-94411800D02*
X130683000Y-94919800D01*
X131191000Y-93649800D02*
X131191000Y-94411800D01*
X130683000Y-94919800D02*
X129667000Y-93903800D01*
X130683000Y-95661298D02*
X129847249Y-96497049D01*
X130683000Y-94919800D02*
X130683000Y-95661298D01*
X128777702Y-93903800D02*
X128015951Y-94665551D01*
X129667000Y-93903800D02*
X128777702Y-93903800D01*
X121793000Y-91617800D02*
X120523000Y-91617800D01*
X119253000Y-91617800D02*
X119253000Y-90220800D01*
X121793000Y-91490800D02*
X123063000Y-90220800D01*
X121793000Y-91617800D02*
X121793000Y-91490800D01*
D23*
X134813000Y-122725800D02*
X137686000Y-119852800D01*
X127813000Y-122725800D02*
X134813000Y-122725800D01*
X154460573Y-111171800D02*
X157289000Y-111171800D01*
X137686000Y-117691296D02*
X144205496Y-111171800D01*
X150686000Y-111490800D02*
X150367000Y-111171800D01*
X150686000Y-112852800D02*
X150686000Y-111490800D01*
X144205496Y-111171800D02*
X150367000Y-111171800D01*
X150367000Y-111171800D02*
X154460573Y-111171800D01*
X162686000Y-92574800D02*
X162686000Y-89852800D01*
X157289000Y-97971800D02*
X162686000Y-92574800D01*
X156055000Y-59852800D02*
X155408000Y-59205800D01*
X162686000Y-59852800D02*
X156055000Y-59852800D01*
X148085999Y-60252799D02*
X147686000Y-59852800D01*
X148889001Y-61055801D02*
X148085999Y-60252799D01*
X153557999Y-61055801D02*
X148889001Y-61055801D01*
X155408000Y-59205800D02*
X153557999Y-61055801D01*
X133085999Y-60252799D02*
X132686000Y-59852800D01*
X133889001Y-61055801D02*
X133085999Y-60252799D01*
X146482999Y-61055801D02*
X133889001Y-61055801D01*
X147686000Y-59852800D02*
X146482999Y-61055801D01*
X109053000Y-61219800D02*
X107686000Y-59852800D01*
X109053000Y-63015800D02*
X109053000Y-61219800D01*
X98085999Y-64452801D02*
X97686000Y-64852800D01*
X98247501Y-64452801D02*
X98085999Y-64452801D01*
X102847502Y-59852800D02*
X98247501Y-64452801D01*
X107686000Y-59852800D02*
X102847502Y-59852800D01*
D22*
X97686000Y-99852800D02*
X102596000Y-99852800D01*
X102596000Y-99852800D02*
X106743500Y-104000300D01*
X106743500Y-104000300D02*
X109664500Y-104000300D01*
X109664500Y-104000300D02*
X111188500Y-102476300D01*
X110302999Y-98555799D02*
X109053000Y-97305800D01*
X111188500Y-99441300D02*
X110302999Y-98555799D01*
X111188500Y-102476300D02*
X111188500Y-99441300D01*
X128098499Y-80041801D02*
X128161999Y-80041801D01*
X127698500Y-80441800D02*
X128098499Y-80041801D01*
X128161999Y-80041801D02*
X128397000Y-79806800D01*
X128397000Y-79806800D02*
X131064000Y-82473800D01*
X126809351Y-95872151D02*
X128015951Y-94665551D01*
D24*
X129413000Y-98475800D02*
X129413000Y-98475800D01*
D22*
X128143000Y-97205800D02*
X129413000Y-98475800D01*
X128143000Y-97205800D02*
X126873000Y-98475800D01*
X126873000Y-98475800D02*
X126873000Y-98475800D01*
X128143000Y-99745800D02*
X124333000Y-99745800D01*
X141863000Y-111171800D02*
X139573000Y-113461800D01*
X144205496Y-111171800D02*
X141863000Y-111171800D01*
D23*
X137686000Y-119852800D02*
X137686000Y-117691296D01*
D22*
X137414000Y-89649300D02*
X137477500Y-89649300D01*
X137477500Y-89649300D02*
X138557000Y-88569800D01*
X128742200Y-92661000D02*
X127333400Y-92661000D01*
X127333400Y-92661000D02*
X126672400Y-93322000D01*
X119761000Y-82048900D02*
X119905300Y-82048900D01*
X119905300Y-82048900D02*
X121259400Y-80694800D01*
X119761000Y-83362800D02*
X119761000Y-82048900D01*
X141626800Y-96957800D02*
X141626800Y-102772000D01*
X130429225Y-74091575D02*
X128905225Y-72567575D01*
X128339540Y-72567575D02*
X128339315Y-72567800D01*
X128905225Y-72567575D02*
X128339540Y-72567575D01*
X128339315Y-72567800D02*
X119253000Y-72567800D01*
X118999000Y-72567800D02*
X117983000Y-72567800D01*
X141626800Y-104042000D02*
X141626800Y-105144900D01*
X141626800Y-102772000D02*
X141626800Y-104042000D01*
X146656500Y-85359800D02*
X141414500Y-90601800D01*
X148786315Y-85140800D02*
X146875500Y-85140800D01*
X149352000Y-85140800D02*
X148786315Y-85140800D01*
X146656500Y-85359800D02*
X146875500Y-85140800D01*
X134199200Y-86633700D02*
X134635800Y-86197100D01*
X134635800Y-86197100D02*
X144321800Y-86197100D01*
X144321800Y-86197100D02*
X148038900Y-82480000D01*
X147602700Y-86784800D02*
X138756300Y-95631200D01*
X138756300Y-95631200D02*
X138756300Y-95778300D01*
X153313000Y-89660600D02*
X153314400Y-89662000D01*
X153313000Y-82725800D02*
X153313000Y-89660600D01*
X143637000Y-107238800D02*
X142170700Y-107238800D01*
X139198700Y-103027400D02*
X139198700Y-104266800D01*
X139198700Y-104266800D02*
X142170700Y-107238800D01*
X117781000Y-78790800D02*
X121666000Y-78790800D01*
X121666000Y-78790800D02*
X125095000Y-82219800D01*
X125095000Y-86870114D02*
X125095000Y-86283800D01*
X123522314Y-88442800D02*
X125095000Y-86870114D01*
X122301000Y-88442800D02*
X123522314Y-88442800D01*
X125095000Y-82219800D02*
X125095000Y-86283800D01*
X135473800Y-80757000D02*
X130729700Y-76012900D01*
X119904100Y-76012900D02*
X120379900Y-76012900D01*
X115951000Y-72059800D02*
X119904100Y-76012900D01*
X130729700Y-76012900D02*
X120379900Y-76012900D01*
X138830800Y-93162800D02*
X132496700Y-99496900D01*
X132496700Y-99496900D02*
X132323300Y-99496900D01*
X131353900Y-99207600D02*
X137929700Y-92631800D01*
X137929700Y-92631800D02*
X137929700Y-92312500D01*
X131353900Y-99223200D02*
X131353900Y-99207600D01*
X130831300Y-99745800D02*
X131353900Y-99223200D01*
X116579300Y-114959500D02*
X104053000Y-127485800D01*
X116579300Y-98089502D02*
X116579300Y-98609500D01*
X116579300Y-98609500D02*
X116579300Y-114959500D01*
X116579300Y-98138498D02*
X116579300Y-98609500D01*
X140893800Y-87842200D02*
X140006100Y-86954500D01*
X127014002Y-87654800D02*
X116579300Y-98089502D01*
X140006100Y-86954500D02*
X136964600Y-86954500D01*
X136964600Y-86954500D02*
X136264300Y-87654800D01*
X136264300Y-87654800D02*
X127014002Y-87654800D01*
X123227999Y-106505801D02*
X119928000Y-109805800D01*
X123227999Y-93865801D02*
X123227999Y-106505801D01*
X127508000Y-89585800D02*
X123227999Y-93865801D01*
X137242900Y-87878900D02*
X135536000Y-89585800D01*
X135536000Y-89585800D02*
X127508000Y-89585800D01*
X119928000Y-127585800D02*
X133954500Y-113559300D01*
X133954500Y-113559300D02*
X133954500Y-99241700D01*
X133954500Y-99241700D02*
X139681100Y-93515100D01*
X139681100Y-93515100D02*
X139681100Y-87863000D01*
X135168000Y-71705800D02*
X135168000Y-79115900D01*
X135168000Y-79115900D02*
X141291900Y-85239800D01*
X144106000Y-83356300D02*
X144106000Y-78007800D01*
X144106000Y-78007800D02*
X150408000Y-71705800D01*
X144562800Y-84324300D02*
X147257500Y-81629600D01*
X147257500Y-81629600D02*
X155724200Y-81629600D01*
X155724200Y-81629600D02*
X165648000Y-71705800D01*
D25*
G36*
X133681862Y-58411443D02*
G01*
X133555446Y-58716637D01*
X133491000Y-59040630D01*
X133491000Y-59370970D01*
X133555446Y-59694963D01*
X133681862Y-60000157D01*
X133865389Y-60274825D01*
X134098975Y-60508411D01*
X134373643Y-60691938D01*
X134678837Y-60818354D01*
X135002830Y-60882800D01*
X135333170Y-60882800D01*
X135657163Y-60818354D01*
X135962357Y-60691938D01*
X136237025Y-60508411D01*
X136470611Y-60274825D01*
X136654138Y-60000157D01*
X136780554Y-59694963D01*
X136845000Y-59370970D01*
X136845000Y-59040630D01*
X136780554Y-58716637D01*
X136654138Y-58411443D01*
X136498023Y-58177800D01*
X149077977Y-58177800D01*
X148921862Y-58411443D01*
X148795446Y-58716637D01*
X148731000Y-59040630D01*
X148731000Y-59370970D01*
X148795446Y-59694963D01*
X148921862Y-60000157D01*
X149105389Y-60274825D01*
X149338975Y-60508411D01*
X149613643Y-60691938D01*
X149918837Y-60818354D01*
X150242830Y-60882800D01*
X150573170Y-60882800D01*
X150897163Y-60818354D01*
X151202357Y-60691938D01*
X151477025Y-60508411D01*
X151710611Y-60274825D01*
X151894138Y-60000157D01*
X152020554Y-59694963D01*
X152085000Y-59370970D01*
X152085000Y-59040630D01*
X152020554Y-58716637D01*
X151894138Y-58411443D01*
X151738023Y-58177800D01*
X164317977Y-58177800D01*
X164161862Y-58411443D01*
X164035446Y-58716637D01*
X163971000Y-59040630D01*
X163971000Y-59370970D01*
X164035446Y-59694963D01*
X164161862Y-60000157D01*
X164345389Y-60274825D01*
X164578975Y-60508411D01*
X164853643Y-60691938D01*
X165158837Y-60818354D01*
X165482830Y-60882800D01*
X165813170Y-60882800D01*
X166137163Y-60818354D01*
X166442357Y-60691938D01*
X166717025Y-60508411D01*
X166950611Y-60274825D01*
X167134138Y-60000157D01*
X167260554Y-59694963D01*
X167325000Y-59370970D01*
X167325000Y-59040630D01*
X167260554Y-58716637D01*
X167134138Y-58411443D01*
X166978023Y-58177800D01*
X175997901Y-58177800D01*
X175819654Y-58296901D01*
X175384101Y-58732454D01*
X175041889Y-59244610D01*
X174806169Y-59813688D01*
X174686000Y-60417817D01*
X174686000Y-61033783D01*
X174806169Y-61637912D01*
X175041889Y-62206990D01*
X175384101Y-62719146D01*
X175819654Y-63154699D01*
X176331810Y-63496911D01*
X176900888Y-63732631D01*
X177505017Y-63852800D01*
X178120983Y-63852800D01*
X178725112Y-63732631D01*
X179294190Y-63496911D01*
X179806346Y-63154699D01*
X180241899Y-62719146D01*
X180361000Y-62540899D01*
X180361001Y-82910702D01*
X180241899Y-82732454D01*
X179806346Y-82296901D01*
X179294190Y-81954689D01*
X178725112Y-81718969D01*
X178120983Y-81598800D01*
X177505017Y-81598800D01*
X176900888Y-81718969D01*
X176331810Y-81954689D01*
X175819654Y-82296901D01*
X175384101Y-82732454D01*
X175041889Y-83244610D01*
X174806169Y-83813688D01*
X174686000Y-84417817D01*
X174686000Y-85033783D01*
X174806169Y-85637912D01*
X175041889Y-86206990D01*
X175384101Y-86719146D01*
X175819654Y-87154699D01*
X175997901Y-87273800D01*
X169790795Y-87273800D01*
X169769839Y-87275864D01*
X169751090Y-87275733D01*
X169744809Y-87276349D01*
X169162519Y-87337550D01*
X169122388Y-87345788D01*
X169082148Y-87353464D01*
X169076106Y-87355288D01*
X168516792Y-87528425D01*
X168478989Y-87544316D01*
X168441044Y-87559647D01*
X168435475Y-87562608D01*
X168435470Y-87562610D01*
X168435466Y-87562613D01*
X167920439Y-87841086D01*
X167886479Y-87863992D01*
X167852196Y-87886426D01*
X167847305Y-87890415D01*
X167396172Y-88263625D01*
X167367324Y-88292675D01*
X167338036Y-88321356D01*
X167334013Y-88326219D01*
X166963961Y-88779948D01*
X166941297Y-88814060D01*
X166918145Y-88847872D01*
X166915147Y-88853419D01*
X166915144Y-88853423D01*
X166915144Y-88853424D01*
X166640269Y-89370388D01*
X166624642Y-89408302D01*
X166608520Y-89445918D01*
X166606653Y-89451947D01*
X166437427Y-90012455D01*
X166429470Y-90052638D01*
X166420952Y-90092713D01*
X166420292Y-90098990D01*
X166363157Y-90681692D01*
X166363157Y-90681705D01*
X166361001Y-90703595D01*
X166361000Y-111703692D01*
X166310347Y-112220287D01*
X166166740Y-112695941D01*
X165933478Y-113134642D01*
X165619449Y-113519680D01*
X165236610Y-113836392D01*
X164799552Y-114072708D01*
X164324909Y-114219635D01*
X163809560Y-114273800D01*
X142790795Y-114273800D01*
X142769839Y-114275864D01*
X142751090Y-114275733D01*
X142744809Y-114276349D01*
X142162519Y-114337550D01*
X142122388Y-114345788D01*
X142082148Y-114353464D01*
X142076106Y-114355288D01*
X141516792Y-114528425D01*
X141478989Y-114544316D01*
X141441044Y-114559647D01*
X141435475Y-114562608D01*
X141435470Y-114562610D01*
X141435466Y-114562613D01*
X140920439Y-114841086D01*
X140886479Y-114863992D01*
X140852196Y-114886426D01*
X140847305Y-114890415D01*
X140396172Y-115263625D01*
X140367324Y-115292675D01*
X140338036Y-115321356D01*
X140334013Y-115326219D01*
X139963961Y-115779948D01*
X139941297Y-115814060D01*
X139918145Y-115847872D01*
X139915147Y-115853419D01*
X139915144Y-115853423D01*
X139915144Y-115853424D01*
X139640269Y-116370388D01*
X139624642Y-116408302D01*
X139608520Y-116445918D01*
X139606653Y-116451947D01*
X139437427Y-117012455D01*
X139429470Y-117052638D01*
X139420952Y-117092713D01*
X139420292Y-117098990D01*
X139363157Y-117681692D01*
X139363157Y-117681705D01*
X139361001Y-117703595D01*
X139361000Y-124910701D01*
X139241899Y-124732454D01*
X138806346Y-124296901D01*
X138294190Y-123954689D01*
X137725112Y-123718969D01*
X137120983Y-123598800D01*
X136505017Y-123598800D01*
X135900888Y-123718969D01*
X135331810Y-123954689D01*
X134819654Y-124296901D01*
X134384101Y-124732454D01*
X134041889Y-125244610D01*
X133806169Y-125813688D01*
X133686000Y-126417817D01*
X133686000Y-127033783D01*
X133806169Y-127637912D01*
X134041889Y-128206990D01*
X134384101Y-128719146D01*
X134819654Y-129154699D01*
X134997901Y-129273800D01*
X98628099Y-129273800D01*
X98806346Y-129154699D01*
X99241899Y-128719146D01*
X99584111Y-128206990D01*
X99819831Y-127637912D01*
X99882942Y-127320630D01*
X102376000Y-127320630D01*
X102376000Y-127650970D01*
X102440446Y-127974963D01*
X102566862Y-128280157D01*
X102750389Y-128554825D01*
X102983975Y-128788411D01*
X103258643Y-128971938D01*
X103563837Y-129098354D01*
X103887830Y-129162800D01*
X104218170Y-129162800D01*
X104542163Y-129098354D01*
X104847357Y-128971938D01*
X105122025Y-128788411D01*
X105355611Y-128554825D01*
X105539138Y-128280157D01*
X105665554Y-127974963D01*
X105730000Y-127650970D01*
X105730000Y-127320630D01*
X107376000Y-127320630D01*
X107376000Y-127650970D01*
X107440446Y-127974963D01*
X107566862Y-128280157D01*
X107750389Y-128554825D01*
X107983975Y-128788411D01*
X108258643Y-128971938D01*
X108563837Y-129098354D01*
X108887830Y-129162800D01*
X109218170Y-129162800D01*
X109542163Y-129098354D01*
X109847357Y-128971938D01*
X110122025Y-128788411D01*
X110355611Y-128554825D01*
X110539138Y-128280157D01*
X110665554Y-127974963D01*
X110730000Y-127650970D01*
X110730000Y-127320630D01*
X110665554Y-126996637D01*
X110539138Y-126691443D01*
X110355611Y-126416775D01*
X110122025Y-126183189D01*
X109847357Y-125999662D01*
X109542163Y-125873246D01*
X109218170Y-125808800D01*
X108887830Y-125808800D01*
X108563837Y-125873246D01*
X108258643Y-125999662D01*
X107983975Y-126183189D01*
X107750389Y-126416775D01*
X107566862Y-126691443D01*
X107440446Y-126996637D01*
X107376000Y-127320630D01*
X105730000Y-127320630D01*
X105665554Y-126996637D01*
X105616943Y-126879279D01*
X117034496Y-115461726D01*
X117060327Y-115440527D01*
X117144928Y-115337441D01*
X117207792Y-115219830D01*
X117246504Y-115092215D01*
X117256300Y-114992752D01*
X117256300Y-114992743D01*
X117259574Y-114959501D01*
X117256300Y-114926259D01*
X117256300Y-114920630D01*
X118251000Y-114920630D01*
X118251000Y-115250970D01*
X118315446Y-115574963D01*
X118441862Y-115880157D01*
X118625389Y-116154825D01*
X118858975Y-116388411D01*
X119133643Y-116571938D01*
X119438837Y-116698354D01*
X119762830Y-116762800D01*
X120093170Y-116762800D01*
X120417163Y-116698354D01*
X120722357Y-116571938D01*
X120997025Y-116388411D01*
X121230611Y-116154825D01*
X121414138Y-115880157D01*
X121540554Y-115574963D01*
X121605000Y-115250970D01*
X121605000Y-114920630D01*
X121540554Y-114596637D01*
X121414138Y-114291443D01*
X121230611Y-114016775D01*
X120997025Y-113783189D01*
X120722357Y-113599662D01*
X120417163Y-113473246D01*
X120093170Y-113408800D01*
X119762830Y-113408800D01*
X119438837Y-113473246D01*
X119133643Y-113599662D01*
X118858975Y-113783189D01*
X118625389Y-114016775D01*
X118441862Y-114291443D01*
X118315446Y-114596637D01*
X118251000Y-114920630D01*
X117256300Y-114920630D01*
X117256300Y-98369924D01*
X118251000Y-97375224D01*
X118251000Y-97470970D01*
X118315446Y-97794963D01*
X118441862Y-98100157D01*
X118625389Y-98374825D01*
X118858975Y-98608411D01*
X119133643Y-98791938D01*
X119438837Y-98918354D01*
X119762830Y-98982800D01*
X120093170Y-98982800D01*
X120417163Y-98918354D01*
X120722357Y-98791938D01*
X120997025Y-98608411D01*
X121230611Y-98374825D01*
X121414138Y-98100157D01*
X121540554Y-97794963D01*
X121605000Y-97470970D01*
X121605000Y-97140630D01*
X121540554Y-96816637D01*
X121414138Y-96511443D01*
X121230611Y-96236775D01*
X120997025Y-96003189D01*
X120722357Y-95819662D01*
X120417163Y-95693246D01*
X120093170Y-95628800D01*
X119997424Y-95628800D01*
X127294424Y-88331800D01*
X135832578Y-88331800D01*
X135255578Y-88908800D01*
X127541241Y-88908800D01*
X127507999Y-88905526D01*
X127474757Y-88908800D01*
X127474748Y-88908800D01*
X127375285Y-88918596D01*
X127247670Y-88957308D01*
X127130059Y-89020172D01*
X127026973Y-89104773D01*
X127005776Y-89130602D01*
X122772799Y-93363579D01*
X122746972Y-93384775D01*
X122725777Y-93410601D01*
X122725775Y-93410603D01*
X122680029Y-93466345D01*
X122662371Y-93487861D01*
X122599507Y-93605472D01*
X122560795Y-93733087D01*
X122550999Y-93832550D01*
X122550999Y-93832556D01*
X122547725Y-93865801D01*
X122550999Y-93899046D01*
X122551000Y-106225378D01*
X120534521Y-108241857D01*
X120417163Y-108193246D01*
X120093170Y-108128800D01*
X119762830Y-108128800D01*
X119438837Y-108193246D01*
X119133643Y-108319662D01*
X118858975Y-108503189D01*
X118625389Y-108736775D01*
X118441862Y-109011443D01*
X118315446Y-109316637D01*
X118251000Y-109640630D01*
X118251000Y-109970970D01*
X118315446Y-110294963D01*
X118441862Y-110600157D01*
X118625389Y-110874825D01*
X118858975Y-111108411D01*
X119133643Y-111291938D01*
X119438837Y-111418354D01*
X119762830Y-111482800D01*
X120093170Y-111482800D01*
X120417163Y-111418354D01*
X120722357Y-111291938D01*
X120997025Y-111108411D01*
X121230611Y-110874825D01*
X121414138Y-110600157D01*
X121540554Y-110294963D01*
X121605000Y-109970970D01*
X121605000Y-109640630D01*
X123251000Y-109640630D01*
X123251000Y-109970970D01*
X123315446Y-110294963D01*
X123441862Y-110600157D01*
X123625389Y-110874825D01*
X123858975Y-111108411D01*
X124133643Y-111291938D01*
X124438837Y-111418354D01*
X124762830Y-111482800D01*
X125093170Y-111482800D01*
X125417163Y-111418354D01*
X125722357Y-111291938D01*
X125997025Y-111108411D01*
X126230611Y-110874825D01*
X126414138Y-110600157D01*
X126540554Y-110294963D01*
X126605000Y-109970970D01*
X126605000Y-109640630D01*
X126540554Y-109316637D01*
X126414138Y-109011443D01*
X126230611Y-108736775D01*
X125997025Y-108503189D01*
X125722357Y-108319662D01*
X125417163Y-108193246D01*
X125093170Y-108128800D01*
X124762830Y-108128800D01*
X124438837Y-108193246D01*
X124133643Y-108319662D01*
X123858975Y-108503189D01*
X123625389Y-108736775D01*
X123441862Y-109011443D01*
X123315446Y-109316637D01*
X123251000Y-109640630D01*
X121605000Y-109640630D01*
X121540554Y-109316637D01*
X121491943Y-109199279D01*
X123683195Y-107008027D01*
X123709026Y-106986828D01*
X123793627Y-106883742D01*
X123856491Y-106766131D01*
X123895203Y-106638516D01*
X123904999Y-106539053D01*
X123904999Y-106539044D01*
X123908273Y-106505802D01*
X123904999Y-106472560D01*
X123904999Y-94146223D01*
X124888272Y-93162950D01*
X125553954Y-93162950D01*
X125562198Y-93246657D01*
X125586615Y-93327146D01*
X125626265Y-93401326D01*
X125679625Y-93466345D01*
X126528153Y-94314873D01*
X126593172Y-94368233D01*
X126667352Y-94407883D01*
X126747841Y-94432300D01*
X126831548Y-94440544D01*
X126915255Y-94432300D01*
X126995744Y-94407883D01*
X127069924Y-94368233D01*
X127134943Y-94314873D01*
X127665273Y-93784543D01*
X127718633Y-93719524D01*
X127758283Y-93645344D01*
X127782700Y-93564855D01*
X127790944Y-93481148D01*
X127782700Y-93397441D01*
X127764668Y-93338000D01*
X127778983Y-93338000D01*
X127827941Y-93411271D01*
X127991883Y-93575213D01*
X128184658Y-93704021D01*
X128398859Y-93792746D01*
X128626253Y-93837977D01*
X128858101Y-93837977D01*
X129085495Y-93792746D01*
X129299696Y-93704021D01*
X129492471Y-93575213D01*
X129656413Y-93411271D01*
X129785221Y-93218496D01*
X129873946Y-93004295D01*
X129919177Y-92776901D01*
X129919177Y-92545053D01*
X129873946Y-92317659D01*
X129785221Y-92103458D01*
X129656413Y-91910683D01*
X129492471Y-91746741D01*
X129299696Y-91617933D01*
X129085495Y-91529208D01*
X128858101Y-91483977D01*
X128626253Y-91483977D01*
X128398859Y-91529208D01*
X128184658Y-91617933D01*
X127991883Y-91746741D01*
X127827941Y-91910683D01*
X127778952Y-91984000D01*
X127366641Y-91984000D01*
X127333399Y-91980726D01*
X127300157Y-91984000D01*
X127300148Y-91984000D01*
X127200685Y-91993796D01*
X127073070Y-92032508D01*
X126955459Y-92095372D01*
X126852373Y-92179973D01*
X126831174Y-92205804D01*
X126756882Y-92280096D01*
X126751726Y-92275865D01*
X126677546Y-92236215D01*
X126597057Y-92211798D01*
X126513350Y-92203554D01*
X126429643Y-92211798D01*
X126349154Y-92236215D01*
X126274974Y-92275865D01*
X126209955Y-92329225D01*
X125679625Y-92859555D01*
X125626265Y-92924574D01*
X125586615Y-92998754D01*
X125562198Y-93079243D01*
X125553954Y-93162950D01*
X124888272Y-93162950D01*
X127788422Y-90262800D01*
X135502755Y-90262800D01*
X135536000Y-90266074D01*
X135569245Y-90262800D01*
X135569252Y-90262800D01*
X135668715Y-90253004D01*
X135796330Y-90214292D01*
X135913941Y-90151428D01*
X136017027Y-90066827D01*
X136038226Y-90040996D01*
X137385482Y-88693740D01*
X137484127Y-88674118D01*
X137634631Y-88611777D01*
X137770081Y-88521272D01*
X137885272Y-88406081D01*
X137975777Y-88270631D01*
X138038118Y-88120127D01*
X138069900Y-87960352D01*
X138069900Y-87797448D01*
X138038118Y-87637673D01*
X138035561Y-87631500D01*
X138883947Y-87631500D01*
X138854100Y-87781548D01*
X138854100Y-87944452D01*
X138885882Y-88104227D01*
X138948223Y-88254731D01*
X139004101Y-88338358D01*
X139004100Y-92354070D01*
X138912252Y-92335800D01*
X138756700Y-92335800D01*
X138756700Y-92231048D01*
X138724918Y-92071273D01*
X138662577Y-91920769D01*
X138572072Y-91785319D01*
X138456881Y-91670128D01*
X138321431Y-91579623D01*
X138170927Y-91517282D01*
X138011152Y-91485500D01*
X137848248Y-91485500D01*
X137688473Y-91517282D01*
X137537969Y-91579623D01*
X137402519Y-91670128D01*
X137287328Y-91785319D01*
X137196823Y-91920769D01*
X137134482Y-92071273D01*
X137102700Y-92231048D01*
X137102700Y-92393952D01*
X137120523Y-92483554D01*
X133384000Y-96220078D01*
X133384000Y-96009876D01*
X133338769Y-95782482D01*
X133250044Y-95568281D01*
X133121236Y-95375506D01*
X132957294Y-95211564D01*
X132764519Y-95082756D01*
X132550318Y-94994031D01*
X132322924Y-94948800D01*
X132091076Y-94948800D01*
X131863682Y-94994031D01*
X131649481Y-95082756D01*
X131456706Y-95211564D01*
X131292764Y-95375506D01*
X131163956Y-95568281D01*
X131075231Y-95782482D01*
X131030000Y-96009876D01*
X131030000Y-96241724D01*
X131075231Y-96469118D01*
X131097600Y-96523121D01*
X131097400Y-96525149D01*
X131097400Y-96525155D01*
X131094126Y-96558400D01*
X131097400Y-96591645D01*
X131097400Y-96728531D01*
X131031652Y-96722056D01*
X130947945Y-96730300D01*
X130867456Y-96754717D01*
X130793276Y-96794367D01*
X130728257Y-96847727D01*
X130197927Y-97378057D01*
X130144567Y-97443076D01*
X130104917Y-97517256D01*
X130080500Y-97597745D01*
X130072256Y-97681452D01*
X130080500Y-97765159D01*
X130104917Y-97845648D01*
X130144567Y-97919828D01*
X130197927Y-97984847D01*
X130908579Y-98695499D01*
X130898700Y-98705378D01*
X130872874Y-98726573D01*
X130788272Y-98829659D01*
X130786267Y-98833410D01*
X130688717Y-98930960D01*
X130590073Y-98950582D01*
X130439569Y-99012923D01*
X130304119Y-99103428D01*
X130188928Y-99218619D01*
X130098423Y-99354069D01*
X130036082Y-99504573D01*
X130004300Y-99664348D01*
X130004300Y-99827252D01*
X130036082Y-99987027D01*
X130098423Y-100137531D01*
X130188928Y-100272981D01*
X130304119Y-100388172D01*
X130439569Y-100478677D01*
X130590073Y-100541018D01*
X130749848Y-100572800D01*
X130912752Y-100572800D01*
X131072527Y-100541018D01*
X131223031Y-100478677D01*
X131358481Y-100388172D01*
X131473672Y-100272981D01*
X131564177Y-100137531D01*
X131626518Y-99987027D01*
X131633320Y-99952831D01*
X131680928Y-100024081D01*
X131796119Y-100139272D01*
X131931569Y-100229777D01*
X132082073Y-100292118D01*
X132241848Y-100323900D01*
X132404752Y-100323900D01*
X132564527Y-100292118D01*
X132715031Y-100229777D01*
X132850481Y-100139272D01*
X132965672Y-100024081D01*
X133043664Y-99907358D01*
X133277501Y-99673521D01*
X133277500Y-113278877D01*
X120534521Y-126021857D01*
X120417163Y-125973246D01*
X120093170Y-125908800D01*
X119762830Y-125908800D01*
X119438837Y-125973246D01*
X119133643Y-126099662D01*
X118858975Y-126283189D01*
X118625389Y-126516775D01*
X118441862Y-126791443D01*
X118315446Y-127096637D01*
X118251000Y-127420630D01*
X118251000Y-127750970D01*
X118315446Y-128074963D01*
X118441862Y-128380157D01*
X118625389Y-128654825D01*
X118858975Y-128888411D01*
X119133643Y-129071938D01*
X119438837Y-129198354D01*
X119762830Y-129262800D01*
X120093170Y-129262800D01*
X120417163Y-129198354D01*
X120722357Y-129071938D01*
X120997025Y-128888411D01*
X121230611Y-128654825D01*
X121414138Y-128380157D01*
X121540554Y-128074963D01*
X121605000Y-127750970D01*
X121605000Y-127420630D01*
X123251000Y-127420630D01*
X123251000Y-127750970D01*
X123315446Y-128074963D01*
X123441862Y-128380157D01*
X123625389Y-128654825D01*
X123858975Y-128888411D01*
X124133643Y-129071938D01*
X124438837Y-129198354D01*
X124762830Y-129262800D01*
X125093170Y-129262800D01*
X125417163Y-129198354D01*
X125722357Y-129071938D01*
X125997025Y-128888411D01*
X126230611Y-128654825D01*
X126414138Y-128380157D01*
X126540554Y-128074963D01*
X126605000Y-127750970D01*
X126605000Y-127420630D01*
X126540554Y-127096637D01*
X126414138Y-126791443D01*
X126230611Y-126516775D01*
X125997025Y-126283189D01*
X125722357Y-126099662D01*
X125417163Y-125973246D01*
X125093170Y-125908800D01*
X124762830Y-125908800D01*
X124438837Y-125973246D01*
X124133643Y-126099662D01*
X123858975Y-126283189D01*
X123625389Y-126516775D01*
X123441862Y-126791443D01*
X123315446Y-127096637D01*
X123251000Y-127420630D01*
X121605000Y-127420630D01*
X121540554Y-127096637D01*
X121491943Y-126979279D01*
X134409706Y-114061517D01*
X134435526Y-114040327D01*
X134456718Y-114014505D01*
X134456724Y-114014499D01*
X134520128Y-113937241D01*
X134582992Y-113819630D01*
X134621704Y-113692015D01*
X134634775Y-113559300D01*
X134631500Y-113526048D01*
X134631500Y-102945948D01*
X138371700Y-102945948D01*
X138371700Y-103108852D01*
X138403482Y-103268627D01*
X138465823Y-103419131D01*
X138521700Y-103502757D01*
X138521701Y-104233546D01*
X138518426Y-104266800D01*
X138531496Y-104399514D01*
X138570208Y-104527129D01*
X138633072Y-104644740D01*
X138696476Y-104721998D01*
X138696479Y-104722001D01*
X138717674Y-104747827D01*
X138743500Y-104769022D01*
X141668478Y-107694001D01*
X141689673Y-107719827D01*
X141715499Y-107741022D01*
X141715501Y-107741024D01*
X141732000Y-107754564D01*
X141732000Y-108635800D01*
X141734440Y-108660576D01*
X141741667Y-108684401D01*
X141753403Y-108706357D01*
X141769197Y-108725603D01*
X141788443Y-108741397D01*
X141810399Y-108753133D01*
X141834224Y-108760360D01*
X141859000Y-108762800D01*
X148717000Y-108762800D01*
X148741776Y-108760360D01*
X148765601Y-108753133D01*
X148787557Y-108741397D01*
X148806803Y-108725603D01*
X148822597Y-108706357D01*
X148834333Y-108684401D01*
X148841560Y-108660576D01*
X148844000Y-108635800D01*
X148844000Y-107851889D01*
X148930576Y-107981460D01*
X149129340Y-108180224D01*
X149363062Y-108336391D01*
X149622759Y-108443962D01*
X149898453Y-108498800D01*
X150179547Y-108498800D01*
X150455241Y-108443962D01*
X150714938Y-108336391D01*
X150948660Y-108180224D01*
X151147424Y-107981460D01*
X151303591Y-107747738D01*
X151411162Y-107488041D01*
X151466000Y-107212347D01*
X151466000Y-106931253D01*
X151411162Y-106655559D01*
X151303591Y-106395862D01*
X151147424Y-106162140D01*
X150948660Y-105963376D01*
X150714938Y-105807209D01*
X150455241Y-105699638D01*
X150179547Y-105644800D01*
X149898453Y-105644800D01*
X149622759Y-105699638D01*
X149363062Y-105807209D01*
X149129340Y-105963376D01*
X148930576Y-106162140D01*
X148844000Y-106291711D01*
X148844000Y-104224421D01*
X153762000Y-104224421D01*
X153762000Y-104919179D01*
X153897540Y-105600588D01*
X154163413Y-106242461D01*
X154549400Y-106820132D01*
X155040668Y-107311400D01*
X155618339Y-107697387D01*
X156260212Y-107963260D01*
X156941621Y-108098800D01*
X157636379Y-108098800D01*
X158317788Y-107963260D01*
X158959661Y-107697387D01*
X159537332Y-107311400D01*
X159901479Y-106947253D01*
X163048000Y-106947253D01*
X163048000Y-107228347D01*
X163102838Y-107504041D01*
X163210409Y-107763738D01*
X163366576Y-107997460D01*
X163565340Y-108196224D01*
X163799062Y-108352391D01*
X164058759Y-108459962D01*
X164334453Y-108514800D01*
X164615547Y-108514800D01*
X164891241Y-108459962D01*
X165150938Y-108352391D01*
X165384660Y-108196224D01*
X165583424Y-107997460D01*
X165739591Y-107763738D01*
X165847162Y-107504041D01*
X165902000Y-107228347D01*
X165902000Y-106947253D01*
X165847162Y-106671559D01*
X165739591Y-106411862D01*
X165583424Y-106178140D01*
X165384660Y-105979376D01*
X165150938Y-105823209D01*
X164891241Y-105715638D01*
X164615547Y-105660800D01*
X164334453Y-105660800D01*
X164058759Y-105715638D01*
X163799062Y-105823209D01*
X163565340Y-105979376D01*
X163366576Y-106178140D01*
X163210409Y-106411862D01*
X163102838Y-106671559D01*
X163048000Y-106947253D01*
X159901479Y-106947253D01*
X160028600Y-106820132D01*
X160414587Y-106242461D01*
X160680460Y-105600588D01*
X160816000Y-104919179D01*
X160816000Y-104224421D01*
X160680460Y-103543012D01*
X160414587Y-102901139D01*
X160028600Y-102323468D01*
X159652385Y-101947253D01*
X163048000Y-101947253D01*
X163048000Y-102228347D01*
X163102838Y-102504041D01*
X163210409Y-102763738D01*
X163366576Y-102997460D01*
X163565340Y-103196224D01*
X163799062Y-103352391D01*
X164058759Y-103459962D01*
X164334453Y-103514800D01*
X164615547Y-103514800D01*
X164891241Y-103459962D01*
X165150938Y-103352391D01*
X165384660Y-103196224D01*
X165583424Y-102997460D01*
X165739591Y-102763738D01*
X165847162Y-102504041D01*
X165902000Y-102228347D01*
X165902000Y-101947253D01*
X165847162Y-101671559D01*
X165739591Y-101411862D01*
X165583424Y-101178140D01*
X165384660Y-100979376D01*
X165150938Y-100823209D01*
X164891241Y-100715638D01*
X164615547Y-100660800D01*
X164334453Y-100660800D01*
X164058759Y-100715638D01*
X163799062Y-100823209D01*
X163565340Y-100979376D01*
X163366576Y-101178140D01*
X163210409Y-101411862D01*
X163102838Y-101671559D01*
X163048000Y-101947253D01*
X159652385Y-101947253D01*
X159537332Y-101832200D01*
X158959661Y-101446213D01*
X158317788Y-101180340D01*
X157636379Y-101044800D01*
X156941621Y-101044800D01*
X156260212Y-101180340D01*
X155618339Y-101446213D01*
X155040668Y-101832200D01*
X154549400Y-102323468D01*
X154163413Y-102901139D01*
X153897540Y-103543012D01*
X153762000Y-104224421D01*
X148844000Y-104224421D01*
X148844000Y-102851889D01*
X148930576Y-102981460D01*
X149129340Y-103180224D01*
X149363062Y-103336391D01*
X149622759Y-103443962D01*
X149898453Y-103498800D01*
X150179547Y-103498800D01*
X150455241Y-103443962D01*
X150714938Y-103336391D01*
X150948660Y-103180224D01*
X151147424Y-102981460D01*
X151303591Y-102747738D01*
X151411162Y-102488041D01*
X151466000Y-102212347D01*
X151466000Y-101931253D01*
X151411162Y-101655559D01*
X151303591Y-101395862D01*
X151147424Y-101162140D01*
X150948660Y-100963376D01*
X150714938Y-100807209D01*
X150455241Y-100699638D01*
X150179547Y-100644800D01*
X149898453Y-100644800D01*
X149622759Y-100699638D01*
X149363062Y-100807209D01*
X149129340Y-100963376D01*
X148930576Y-101162140D01*
X148844000Y-101291711D01*
X148844000Y-100507800D01*
X148841560Y-100483024D01*
X148834333Y-100459199D01*
X148822597Y-100437243D01*
X148806803Y-100417997D01*
X148787557Y-100402203D01*
X148765601Y-100390467D01*
X148741776Y-100383240D01*
X148717000Y-100380800D01*
X142303800Y-100380800D01*
X142303800Y-97433157D01*
X142359677Y-97349531D01*
X142422018Y-97199027D01*
X142453800Y-97039252D01*
X142453800Y-96876348D01*
X142422018Y-96716573D01*
X142359677Y-96566069D01*
X142269172Y-96430619D01*
X142153981Y-96315428D01*
X142018531Y-96224923D01*
X141868027Y-96162582D01*
X141708252Y-96130800D01*
X141545348Y-96130800D01*
X141385573Y-96162582D01*
X141235069Y-96224923D01*
X141099619Y-96315428D01*
X140984428Y-96430619D01*
X140893923Y-96566069D01*
X140831582Y-96716573D01*
X140799800Y-96876348D01*
X140799800Y-97039252D01*
X140831582Y-97199027D01*
X140893923Y-97349531D01*
X140949800Y-97433157D01*
X140949801Y-102296642D01*
X140893923Y-102380269D01*
X140831582Y-102530773D01*
X140799800Y-102690548D01*
X140799800Y-102853452D01*
X140831582Y-103013227D01*
X140893923Y-103163731D01*
X140949800Y-103247357D01*
X140949801Y-103566642D01*
X140893923Y-103650269D01*
X140831582Y-103800773D01*
X140799800Y-103960548D01*
X140799800Y-104123452D01*
X140831582Y-104283227D01*
X140893923Y-104433731D01*
X140949800Y-104517357D01*
X140949801Y-104669543D01*
X140893923Y-104753169D01*
X140831582Y-104903673D01*
X140825180Y-104935858D01*
X139875700Y-103986378D01*
X139875700Y-103502757D01*
X139931577Y-103419131D01*
X139993918Y-103268627D01*
X140025700Y-103108852D01*
X140025700Y-102945948D01*
X139993918Y-102786173D01*
X139931577Y-102635669D01*
X139841072Y-102500219D01*
X139725881Y-102385028D01*
X139590431Y-102294523D01*
X139439927Y-102232182D01*
X139280152Y-102200400D01*
X139117248Y-102200400D01*
X138957473Y-102232182D01*
X138806969Y-102294523D01*
X138671519Y-102385028D01*
X138556328Y-102500219D01*
X138465823Y-102635669D01*
X138403482Y-102786173D01*
X138371700Y-102945948D01*
X134631500Y-102945948D01*
X134631500Y-99522122D01*
X138011756Y-96141866D01*
X138023423Y-96170031D01*
X138113928Y-96305481D01*
X138229119Y-96420672D01*
X138364569Y-96511177D01*
X138515073Y-96573518D01*
X138674848Y-96605300D01*
X138837752Y-96605300D01*
X138997527Y-96573518D01*
X139148031Y-96511177D01*
X139283481Y-96420672D01*
X139398672Y-96305481D01*
X139489177Y-96170031D01*
X139551518Y-96019527D01*
X139583300Y-95859752D01*
X139583300Y-95761622D01*
X147745283Y-87599640D01*
X147843927Y-87580018D01*
X147994431Y-87517677D01*
X148129881Y-87427172D01*
X148245072Y-87311981D01*
X148335577Y-87176531D01*
X148397918Y-87026027D01*
X148429700Y-86866252D01*
X148429700Y-86703348D01*
X148397918Y-86543573D01*
X148335577Y-86393069D01*
X148245072Y-86257619D01*
X148129881Y-86142428D01*
X147994431Y-86051923D01*
X147843927Y-85989582D01*
X147684152Y-85957800D01*
X147521248Y-85957800D01*
X147361473Y-85989582D01*
X147210969Y-86051923D01*
X147075519Y-86142428D01*
X146960328Y-86257619D01*
X146869823Y-86393069D01*
X146807482Y-86543573D01*
X146787860Y-86642217D01*
X140358100Y-93071978D01*
X140358100Y-88476053D01*
X140366619Y-88484572D01*
X140502069Y-88575077D01*
X140652573Y-88637418D01*
X140812348Y-88669200D01*
X140975252Y-88669200D01*
X141135027Y-88637418D01*
X141285531Y-88575077D01*
X141420981Y-88484572D01*
X141536172Y-88369381D01*
X141626677Y-88233931D01*
X141689018Y-88083427D01*
X141720800Y-87923652D01*
X141720800Y-87760748D01*
X141689018Y-87600973D01*
X141626677Y-87450469D01*
X141536172Y-87315019D01*
X141420981Y-87199828D01*
X141285531Y-87109323D01*
X141135027Y-87046982D01*
X141036382Y-87027360D01*
X140883122Y-86874100D01*
X144184778Y-86874100D01*
X141271918Y-89786960D01*
X141173273Y-89806582D01*
X141022769Y-89868923D01*
X140887319Y-89959428D01*
X140772128Y-90074619D01*
X140681623Y-90210069D01*
X140619282Y-90360573D01*
X140587500Y-90520348D01*
X140587500Y-90683252D01*
X140619282Y-90843027D01*
X140681623Y-90993531D01*
X140772128Y-91128981D01*
X140887319Y-91244172D01*
X141022769Y-91334677D01*
X141173273Y-91397018D01*
X141333048Y-91428800D01*
X141495952Y-91428800D01*
X141655727Y-91397018D01*
X141806231Y-91334677D01*
X141941681Y-91244172D01*
X142056872Y-91128981D01*
X142147377Y-90993531D01*
X142209718Y-90843027D01*
X142229340Y-90744382D01*
X147155922Y-85817800D01*
X148876643Y-85817800D01*
X148960269Y-85873677D01*
X149110773Y-85936018D01*
X149270548Y-85967800D01*
X149433452Y-85967800D01*
X149593227Y-85936018D01*
X149743731Y-85873677D01*
X149879181Y-85783172D01*
X149994372Y-85667981D01*
X150084877Y-85532531D01*
X150147218Y-85382027D01*
X150179000Y-85222252D01*
X150179000Y-85059348D01*
X150147218Y-84899573D01*
X150084877Y-84749069D01*
X149994372Y-84613619D01*
X149879181Y-84498428D01*
X149743731Y-84407923D01*
X149593227Y-84345582D01*
X149433452Y-84313800D01*
X149270548Y-84313800D01*
X149110773Y-84345582D01*
X148960269Y-84407923D01*
X148876643Y-84463800D01*
X147012522Y-84463800D01*
X148181482Y-83294840D01*
X148280127Y-83275218D01*
X148430631Y-83212877D01*
X148566081Y-83122372D01*
X148681272Y-83007181D01*
X148771777Y-82871731D01*
X148834118Y-82721227D01*
X148865900Y-82561452D01*
X148865900Y-82398548D01*
X148847610Y-82306600D01*
X152598477Y-82306600D01*
X152580123Y-82334069D01*
X152517782Y-82484573D01*
X152486000Y-82644348D01*
X152486000Y-82807252D01*
X152517782Y-82967027D01*
X152580123Y-83117531D01*
X152636000Y-83201157D01*
X152636001Y-89188737D01*
X152581523Y-89270269D01*
X152519182Y-89420773D01*
X152487400Y-89580548D01*
X152487400Y-89743452D01*
X152519182Y-89903227D01*
X152581523Y-90053731D01*
X152672028Y-90189181D01*
X152787219Y-90304372D01*
X152922669Y-90394877D01*
X153073173Y-90457218D01*
X153232948Y-90489000D01*
X153395852Y-90489000D01*
X153555627Y-90457218D01*
X153706131Y-90394877D01*
X153841581Y-90304372D01*
X153956772Y-90189181D01*
X154047277Y-90053731D01*
X154109618Y-89903227D01*
X154141400Y-89743452D01*
X154141400Y-89580548D01*
X154109618Y-89420773D01*
X154047277Y-89270269D01*
X153990000Y-89184548D01*
X153990000Y-83201157D01*
X154045877Y-83117531D01*
X154108218Y-82967027D01*
X154140000Y-82807252D01*
X154140000Y-82644348D01*
X154108218Y-82484573D01*
X154045877Y-82334069D01*
X154027523Y-82306600D01*
X155690955Y-82306600D01*
X155724200Y-82309874D01*
X155757445Y-82306600D01*
X155757452Y-82306600D01*
X155856915Y-82296804D01*
X155984530Y-82258092D01*
X156102141Y-82195228D01*
X156205227Y-82110627D01*
X156226426Y-82084796D01*
X165041480Y-73269743D01*
X165158837Y-73318354D01*
X165482830Y-73382800D01*
X165813170Y-73382800D01*
X166137163Y-73318354D01*
X166442357Y-73191938D01*
X166717025Y-73008411D01*
X166950611Y-72774825D01*
X167134138Y-72500157D01*
X167260554Y-72194963D01*
X167325000Y-71870970D01*
X167325000Y-71540630D01*
X168971000Y-71540630D01*
X168971000Y-71870970D01*
X169035446Y-72194963D01*
X169161862Y-72500157D01*
X169345389Y-72774825D01*
X169578975Y-73008411D01*
X169853643Y-73191938D01*
X170158837Y-73318354D01*
X170482830Y-73382800D01*
X170813170Y-73382800D01*
X171137163Y-73318354D01*
X171442357Y-73191938D01*
X171717025Y-73008411D01*
X171950611Y-72774825D01*
X172134138Y-72500157D01*
X172260554Y-72194963D01*
X172325000Y-71870970D01*
X172325000Y-71540630D01*
X172260554Y-71216637D01*
X172134138Y-70911443D01*
X171950611Y-70636775D01*
X171717025Y-70403189D01*
X171442357Y-70219662D01*
X171137163Y-70093246D01*
X170813170Y-70028800D01*
X170482830Y-70028800D01*
X170158837Y-70093246D01*
X169853643Y-70219662D01*
X169578975Y-70403189D01*
X169345389Y-70636775D01*
X169161862Y-70911443D01*
X169035446Y-71216637D01*
X168971000Y-71540630D01*
X167325000Y-71540630D01*
X167260554Y-71216637D01*
X167134138Y-70911443D01*
X166950611Y-70636775D01*
X166717025Y-70403189D01*
X166442357Y-70219662D01*
X166137163Y-70093246D01*
X165813170Y-70028800D01*
X165482830Y-70028800D01*
X165158837Y-70093246D01*
X164853643Y-70219662D01*
X164578975Y-70403189D01*
X164345389Y-70636775D01*
X164161862Y-70911443D01*
X164035446Y-71216637D01*
X163971000Y-71540630D01*
X163971000Y-71870970D01*
X164035446Y-72194963D01*
X164084057Y-72312320D01*
X155443778Y-80952600D01*
X147290741Y-80952600D01*
X147257499Y-80949326D01*
X147224257Y-80952600D01*
X147224248Y-80952600D01*
X147124785Y-80962396D01*
X146997170Y-81001108D01*
X146879559Y-81063972D01*
X146776473Y-81148573D01*
X146755276Y-81174402D01*
X144875850Y-83053828D01*
X144838877Y-82964569D01*
X144783000Y-82880943D01*
X144783000Y-78288222D01*
X149801480Y-73269743D01*
X149918837Y-73318354D01*
X150242830Y-73382800D01*
X150573170Y-73382800D01*
X150897163Y-73318354D01*
X151202357Y-73191938D01*
X151477025Y-73008411D01*
X151710611Y-72774825D01*
X151894138Y-72500157D01*
X152020554Y-72194963D01*
X152085000Y-71870970D01*
X152085000Y-71540630D01*
X153731000Y-71540630D01*
X153731000Y-71870970D01*
X153795446Y-72194963D01*
X153921862Y-72500157D01*
X154105389Y-72774825D01*
X154338975Y-73008411D01*
X154613643Y-73191938D01*
X154918837Y-73318354D01*
X155242830Y-73382800D01*
X155573170Y-73382800D01*
X155897163Y-73318354D01*
X156202357Y-73191938D01*
X156477025Y-73008411D01*
X156710611Y-72774825D01*
X156894138Y-72500157D01*
X157020554Y-72194963D01*
X157085000Y-71870970D01*
X157085000Y-71540630D01*
X157020554Y-71216637D01*
X156894138Y-70911443D01*
X156710611Y-70636775D01*
X156477025Y-70403189D01*
X156202357Y-70219662D01*
X155897163Y-70093246D01*
X155573170Y-70028800D01*
X155242830Y-70028800D01*
X154918837Y-70093246D01*
X154613643Y-70219662D01*
X154338975Y-70403189D01*
X154105389Y-70636775D01*
X153921862Y-70911443D01*
X153795446Y-71216637D01*
X153731000Y-71540630D01*
X152085000Y-71540630D01*
X152020554Y-71216637D01*
X151894138Y-70911443D01*
X151710611Y-70636775D01*
X151477025Y-70403189D01*
X151202357Y-70219662D01*
X150897163Y-70093246D01*
X150573170Y-70028800D01*
X150242830Y-70028800D01*
X149918837Y-70093246D01*
X149613643Y-70219662D01*
X149338975Y-70403189D01*
X149105389Y-70636775D01*
X148921862Y-70911443D01*
X148795446Y-71216637D01*
X148731000Y-71540630D01*
X148731000Y-71870970D01*
X148795446Y-72194963D01*
X148844057Y-72312320D01*
X143650800Y-77505578D01*
X143624974Y-77526773D01*
X143603779Y-77552599D01*
X143603776Y-77552602D01*
X143540372Y-77629860D01*
X143477508Y-77747471D01*
X143438796Y-77875086D01*
X143425726Y-78007800D01*
X143429001Y-78041055D01*
X143429000Y-82880943D01*
X143373123Y-82964569D01*
X143310782Y-83115073D01*
X143279000Y-83274848D01*
X143279000Y-83437752D01*
X143310782Y-83597527D01*
X143373123Y-83748031D01*
X143463628Y-83883481D01*
X143578819Y-83998672D01*
X143714269Y-84089177D01*
X143762402Y-84109114D01*
X143735800Y-84242848D01*
X143735800Y-84405752D01*
X143767582Y-84565527D01*
X143829923Y-84716031D01*
X143920428Y-84851481D01*
X144035619Y-84966672D01*
X144171069Y-85057177D01*
X144321573Y-85119518D01*
X144421986Y-85139492D01*
X144041378Y-85520100D01*
X142070933Y-85520100D01*
X142087118Y-85481027D01*
X142118900Y-85321252D01*
X142118900Y-85158348D01*
X142087118Y-84998573D01*
X142024777Y-84848069D01*
X141934272Y-84712619D01*
X141819081Y-84597428D01*
X141683631Y-84506923D01*
X141533127Y-84444582D01*
X141434482Y-84424960D01*
X135845000Y-78835478D01*
X135845000Y-73240549D01*
X135962357Y-73191938D01*
X136237025Y-73008411D01*
X136470611Y-72774825D01*
X136654138Y-72500157D01*
X136780554Y-72194963D01*
X136845000Y-71870970D01*
X136845000Y-71540630D01*
X138491000Y-71540630D01*
X138491000Y-71870970D01*
X138555446Y-72194963D01*
X138681862Y-72500157D01*
X138865389Y-72774825D01*
X139098975Y-73008411D01*
X139373643Y-73191938D01*
X139678837Y-73318354D01*
X140002830Y-73382800D01*
X140333170Y-73382800D01*
X140657163Y-73318354D01*
X140962357Y-73191938D01*
X141237025Y-73008411D01*
X141470611Y-72774825D01*
X141654138Y-72500157D01*
X141780554Y-72194963D01*
X141845000Y-71870970D01*
X141845000Y-71540630D01*
X141780554Y-71216637D01*
X141654138Y-70911443D01*
X141470611Y-70636775D01*
X141237025Y-70403189D01*
X140962357Y-70219662D01*
X140657163Y-70093246D01*
X140333170Y-70028800D01*
X140002830Y-70028800D01*
X139678837Y-70093246D01*
X139373643Y-70219662D01*
X139098975Y-70403189D01*
X138865389Y-70636775D01*
X138681862Y-70911443D01*
X138555446Y-71216637D01*
X138491000Y-71540630D01*
X136845000Y-71540630D01*
X136780554Y-71216637D01*
X136654138Y-70911443D01*
X136470611Y-70636775D01*
X136237025Y-70403189D01*
X135962357Y-70219662D01*
X135657163Y-70093246D01*
X135333170Y-70028800D01*
X135002830Y-70028800D01*
X134678837Y-70093246D01*
X134373643Y-70219662D01*
X134098975Y-70403189D01*
X133865389Y-70636775D01*
X133681862Y-70911443D01*
X133555446Y-71216637D01*
X133491000Y-71540630D01*
X133491000Y-71870970D01*
X133555446Y-72194963D01*
X133681862Y-72500157D01*
X133865389Y-72774825D01*
X134098975Y-73008411D01*
X134373643Y-73191938D01*
X134491000Y-73240549D01*
X134491001Y-78816778D01*
X131231926Y-75557704D01*
X131210727Y-75531873D01*
X131107641Y-75447272D01*
X130990030Y-75384408D01*
X130862415Y-75345696D01*
X130762952Y-75335900D01*
X130762945Y-75335900D01*
X130729700Y-75332626D01*
X130696455Y-75335900D01*
X120184523Y-75335900D01*
X118213729Y-73365106D01*
X118224227Y-73363018D01*
X118374731Y-73300677D01*
X118458357Y-73244800D01*
X118777643Y-73244800D01*
X118861269Y-73300677D01*
X119011773Y-73363018D01*
X119171548Y-73394800D01*
X119334452Y-73394800D01*
X119494227Y-73363018D01*
X119644731Y-73300677D01*
X119728357Y-73244800D01*
X120047643Y-73244800D01*
X120131269Y-73300677D01*
X120281773Y-73363018D01*
X120441548Y-73394800D01*
X120604452Y-73394800D01*
X120764227Y-73363018D01*
X120914731Y-73300677D01*
X120998357Y-73244800D01*
X128306070Y-73244800D01*
X128339315Y-73248074D01*
X128372560Y-73244800D01*
X128372567Y-73244800D01*
X128374852Y-73244575D01*
X128429868Y-73244575D01*
X128513494Y-73300452D01*
X128663998Y-73362793D01*
X128762643Y-73382415D01*
X128852385Y-73472157D01*
X128872007Y-73570802D01*
X128934348Y-73721306D01*
X129024853Y-73856756D01*
X129140044Y-73971947D01*
X129275494Y-74062452D01*
X129425998Y-74124793D01*
X129524643Y-74144415D01*
X129614385Y-74234157D01*
X129634007Y-74332802D01*
X129696348Y-74483306D01*
X129786853Y-74618756D01*
X129902044Y-74733947D01*
X130037494Y-74824452D01*
X130187998Y-74886793D01*
X130347773Y-74918575D01*
X130510677Y-74918575D01*
X130670452Y-74886793D01*
X130820956Y-74824452D01*
X130956406Y-74733947D01*
X131071597Y-74618756D01*
X131162102Y-74483306D01*
X131224443Y-74332802D01*
X131256225Y-74173027D01*
X131256225Y-74010123D01*
X131224443Y-73850348D01*
X131162102Y-73699844D01*
X131071597Y-73564394D01*
X130956406Y-73449203D01*
X130820956Y-73358698D01*
X130670452Y-73296357D01*
X130571807Y-73276735D01*
X130482065Y-73186993D01*
X130462443Y-73088348D01*
X130400102Y-72937844D01*
X130309597Y-72802394D01*
X130194406Y-72687203D01*
X130058956Y-72596698D01*
X129908452Y-72534357D01*
X129809807Y-72514735D01*
X129720065Y-72424993D01*
X129700443Y-72326348D01*
X129638102Y-72175844D01*
X129547597Y-72040394D01*
X129432406Y-71925203D01*
X129296956Y-71834698D01*
X129146452Y-71772357D01*
X128986677Y-71740575D01*
X128823773Y-71740575D01*
X128663998Y-71772357D01*
X128513494Y-71834698D01*
X128429868Y-71890575D01*
X128372781Y-71890575D01*
X128339539Y-71887301D01*
X128306297Y-71890575D01*
X128306288Y-71890575D01*
X128304003Y-71890800D01*
X120998357Y-71890800D01*
X120914731Y-71834923D01*
X120764227Y-71772582D01*
X120604452Y-71740800D01*
X120441548Y-71740800D01*
X120281773Y-71772582D01*
X120131269Y-71834923D01*
X120047643Y-71890800D01*
X119728357Y-71890800D01*
X119644731Y-71834923D01*
X119494227Y-71772582D01*
X119334452Y-71740800D01*
X119171548Y-71740800D01*
X119011773Y-71772582D01*
X118861269Y-71834923D01*
X118777643Y-71890800D01*
X118458357Y-71890800D01*
X118374731Y-71834923D01*
X118224227Y-71772582D01*
X118064452Y-71740800D01*
X117901548Y-71740800D01*
X117741773Y-71772582D01*
X117591269Y-71834923D01*
X117455819Y-71925428D01*
X117340628Y-72040619D01*
X117250123Y-72176069D01*
X117187782Y-72326573D01*
X117185694Y-72337071D01*
X116765840Y-71917218D01*
X116746218Y-71818573D01*
X116683877Y-71668069D01*
X116593372Y-71532619D01*
X116478181Y-71417428D01*
X116342731Y-71326923D01*
X116192227Y-71264582D01*
X116032452Y-71232800D01*
X115869548Y-71232800D01*
X115709773Y-71264582D01*
X115559269Y-71326923D01*
X115423819Y-71417428D01*
X115308628Y-71532619D01*
X115218123Y-71668069D01*
X115155782Y-71818573D01*
X115124000Y-71978348D01*
X115124000Y-72141252D01*
X115155782Y-72301027D01*
X115218123Y-72451531D01*
X115308628Y-72586981D01*
X115423819Y-72702172D01*
X115559269Y-72792677D01*
X115709773Y-72855018D01*
X115808418Y-72874640D01*
X119401878Y-76468101D01*
X119423073Y-76493927D01*
X119448899Y-76515122D01*
X119448901Y-76515124D01*
X119526159Y-76578528D01*
X119643770Y-76641392D01*
X119771385Y-76680104D01*
X119904100Y-76693175D01*
X119937352Y-76689900D01*
X130449278Y-76689900D01*
X134658960Y-80899583D01*
X134678582Y-80998227D01*
X134740923Y-81148731D01*
X134831428Y-81284181D01*
X134946619Y-81399372D01*
X135082069Y-81489877D01*
X135232573Y-81552218D01*
X135392348Y-81584000D01*
X135555252Y-81584000D01*
X135715027Y-81552218D01*
X135865531Y-81489877D01*
X136000981Y-81399372D01*
X136116172Y-81284181D01*
X136206677Y-81148731D01*
X136217436Y-81122758D01*
X140477060Y-85382382D01*
X140496682Y-85481027D01*
X140512867Y-85520100D01*
X134669052Y-85520100D01*
X134635800Y-85516825D01*
X134602548Y-85520100D01*
X134503085Y-85529896D01*
X134375470Y-85568608D01*
X134257859Y-85631472D01*
X134154773Y-85716073D01*
X134133576Y-85741902D01*
X134056618Y-85818860D01*
X133957973Y-85838482D01*
X133807469Y-85900823D01*
X133672019Y-85991328D01*
X133556828Y-86106519D01*
X133466323Y-86241969D01*
X133403982Y-86392473D01*
X133372200Y-86552248D01*
X133372200Y-86715152D01*
X133403982Y-86874927D01*
X133446594Y-86977800D01*
X127047243Y-86977800D01*
X127014001Y-86974526D01*
X126980759Y-86977800D01*
X126980750Y-86977800D01*
X126881287Y-86987596D01*
X126753672Y-87026308D01*
X126636061Y-87089172D01*
X126532975Y-87173773D01*
X126511778Y-87199602D01*
X116124100Y-97587280D01*
X116098273Y-97608476D01*
X116077078Y-97634302D01*
X116077076Y-97634304D01*
X116058063Y-97657472D01*
X116013672Y-97711562D01*
X115950808Y-97829173D01*
X115912096Y-97956788D01*
X115902300Y-98056251D01*
X115902300Y-98056257D01*
X115899026Y-98089502D01*
X115902300Y-98122747D01*
X115902300Y-98576249D01*
X115902301Y-114679077D01*
X104659521Y-125921857D01*
X104542163Y-125873246D01*
X104218170Y-125808800D01*
X103887830Y-125808800D01*
X103563837Y-125873246D01*
X103258643Y-125999662D01*
X102983975Y-126183189D01*
X102750389Y-126416775D01*
X102566862Y-126691443D01*
X102440446Y-126996637D01*
X102376000Y-127320630D01*
X99882942Y-127320630D01*
X99940000Y-127033783D01*
X99940000Y-126417817D01*
X99819831Y-125813688D01*
X99584111Y-125244610D01*
X99241899Y-124732454D01*
X98806346Y-124296901D01*
X98294190Y-123954689D01*
X97725112Y-123718969D01*
X97120983Y-123598800D01*
X96505017Y-123598800D01*
X95900888Y-123718969D01*
X95331810Y-123954689D01*
X94819654Y-124296901D01*
X94384101Y-124732454D01*
X94265000Y-124910701D01*
X94265000Y-114820630D01*
X102376000Y-114820630D01*
X102376000Y-115150970D01*
X102440446Y-115474963D01*
X102566862Y-115780157D01*
X102750389Y-116054825D01*
X102983975Y-116288411D01*
X103258643Y-116471938D01*
X103563837Y-116598354D01*
X103887830Y-116662800D01*
X104218170Y-116662800D01*
X104542163Y-116598354D01*
X104847357Y-116471938D01*
X105122025Y-116288411D01*
X105355611Y-116054825D01*
X105539138Y-115780157D01*
X105665554Y-115474963D01*
X105730000Y-115150970D01*
X105730000Y-114820630D01*
X105665554Y-114496637D01*
X105539138Y-114191443D01*
X105355611Y-113916775D01*
X105122025Y-113683189D01*
X104847357Y-113499662D01*
X104542163Y-113373246D01*
X104218170Y-113308800D01*
X103887830Y-113308800D01*
X103563837Y-113373246D01*
X103258643Y-113499662D01*
X102983975Y-113683189D01*
X102750389Y-113916775D01*
X102566862Y-114191443D01*
X102440446Y-114496637D01*
X102376000Y-114820630D01*
X94265000Y-114820630D01*
X94265000Y-109640630D01*
X102376000Y-109640630D01*
X102376000Y-109970970D01*
X102440446Y-110294963D01*
X102566862Y-110600157D01*
X102750389Y-110874825D01*
X102983975Y-111108411D01*
X103258643Y-111291938D01*
X103563837Y-111418354D01*
X103887830Y-111482800D01*
X104218170Y-111482800D01*
X104542163Y-111418354D01*
X104847357Y-111291938D01*
X105122025Y-111108411D01*
X105355611Y-110874825D01*
X105539138Y-110600157D01*
X105665554Y-110294963D01*
X105730000Y-109970970D01*
X105730000Y-109640630D01*
X107376000Y-109640630D01*
X107376000Y-109970970D01*
X107440446Y-110294963D01*
X107566862Y-110600157D01*
X107750389Y-110874825D01*
X107983975Y-111108411D01*
X108258643Y-111291938D01*
X108563837Y-111418354D01*
X108887830Y-111482800D01*
X109218170Y-111482800D01*
X109542163Y-111418354D01*
X109847357Y-111291938D01*
X110122025Y-111108411D01*
X110355611Y-110874825D01*
X110539138Y-110600157D01*
X110665554Y-110294963D01*
X110730000Y-109970970D01*
X110730000Y-109640630D01*
X110665554Y-109316637D01*
X110539138Y-109011443D01*
X110355611Y-108736775D01*
X110122025Y-108503189D01*
X109847357Y-108319662D01*
X109542163Y-108193246D01*
X109218170Y-108128800D01*
X108887830Y-108128800D01*
X108563837Y-108193246D01*
X108258643Y-108319662D01*
X107983975Y-108503189D01*
X107750389Y-108736775D01*
X107566862Y-109011443D01*
X107440446Y-109316637D01*
X107376000Y-109640630D01*
X105730000Y-109640630D01*
X105665554Y-109316637D01*
X105539138Y-109011443D01*
X105355611Y-108736775D01*
X105122025Y-108503189D01*
X104847357Y-108319662D01*
X104542163Y-108193246D01*
X104218170Y-108128800D01*
X103887830Y-108128800D01*
X103563837Y-108193246D01*
X103258643Y-108319662D01*
X102983975Y-108503189D01*
X102750389Y-108736775D01*
X102566862Y-109011443D01*
X102440446Y-109316637D01*
X102376000Y-109640630D01*
X94265000Y-109640630D01*
X94265000Y-97140630D01*
X102376000Y-97140630D01*
X102376000Y-97470970D01*
X102440446Y-97794963D01*
X102566862Y-98100157D01*
X102750389Y-98374825D01*
X102983975Y-98608411D01*
X103258643Y-98791938D01*
X103563837Y-98918354D01*
X103887830Y-98982800D01*
X104218170Y-98982800D01*
X104542163Y-98918354D01*
X104847357Y-98791938D01*
X105122025Y-98608411D01*
X105355611Y-98374825D01*
X105539138Y-98100157D01*
X105665554Y-97794963D01*
X105730000Y-97470970D01*
X105730000Y-97140630D01*
X105665554Y-96816637D01*
X105539138Y-96511443D01*
X105355611Y-96236775D01*
X105122025Y-96003189D01*
X104847357Y-95819662D01*
X104542163Y-95693246D01*
X104218170Y-95628800D01*
X103887830Y-95628800D01*
X103563837Y-95693246D01*
X103258643Y-95819662D01*
X102983975Y-96003189D01*
X102750389Y-96236775D01*
X102566862Y-96511443D01*
X102440446Y-96816637D01*
X102376000Y-97140630D01*
X94265000Y-97140630D01*
X94265000Y-92495630D01*
X102376000Y-92495630D01*
X102376000Y-92825970D01*
X102440446Y-93149963D01*
X102566862Y-93455157D01*
X102750389Y-93729825D01*
X102983975Y-93963411D01*
X103258643Y-94146938D01*
X103563837Y-94273354D01*
X103887830Y-94337800D01*
X104218170Y-94337800D01*
X104542163Y-94273354D01*
X104847357Y-94146938D01*
X105122025Y-93963411D01*
X105355611Y-93729825D01*
X105539138Y-93455157D01*
X105665554Y-93149963D01*
X105730000Y-92825970D01*
X105730000Y-92495630D01*
X107376000Y-92495630D01*
X107376000Y-92825970D01*
X107440446Y-93149963D01*
X107566862Y-93455157D01*
X107750389Y-93729825D01*
X107983975Y-93963411D01*
X108258643Y-94146938D01*
X108563837Y-94273354D01*
X108887830Y-94337800D01*
X109218170Y-94337800D01*
X109542163Y-94273354D01*
X109847357Y-94146938D01*
X110122025Y-93963411D01*
X110355611Y-93729825D01*
X110539138Y-93455157D01*
X110665554Y-93149963D01*
X110730000Y-92825970D01*
X110730000Y-92495630D01*
X110665554Y-92171637D01*
X110539138Y-91866443D01*
X110355611Y-91591775D01*
X110122025Y-91358189D01*
X109847357Y-91174662D01*
X109542163Y-91048246D01*
X109218170Y-90983800D01*
X108887830Y-90983800D01*
X108563837Y-91048246D01*
X108258643Y-91174662D01*
X107983975Y-91358189D01*
X107750389Y-91591775D01*
X107566862Y-91866443D01*
X107440446Y-92171637D01*
X107376000Y-92495630D01*
X105730000Y-92495630D01*
X105665554Y-92171637D01*
X105539138Y-91866443D01*
X105355611Y-91591775D01*
X105122025Y-91358189D01*
X104847357Y-91174662D01*
X104542163Y-91048246D01*
X104218170Y-90983800D01*
X103887830Y-90983800D01*
X103563837Y-91048246D01*
X103258643Y-91174662D01*
X102983975Y-91358189D01*
X102750389Y-91591775D01*
X102566862Y-91866443D01*
X102440446Y-92171637D01*
X102376000Y-92495630D01*
X94265000Y-92495630D01*
X94265000Y-79995630D01*
X102376000Y-79995630D01*
X102376000Y-80325970D01*
X102440446Y-80649963D01*
X102566862Y-80955157D01*
X102750389Y-81229825D01*
X102983975Y-81463411D01*
X103258643Y-81646938D01*
X103563837Y-81773354D01*
X103887830Y-81837800D01*
X104218170Y-81837800D01*
X104542163Y-81773354D01*
X104847357Y-81646938D01*
X105122025Y-81463411D01*
X105355611Y-81229825D01*
X105539138Y-80955157D01*
X105665554Y-80649963D01*
X105730000Y-80325970D01*
X105730000Y-79995630D01*
X105665554Y-79671637D01*
X105539138Y-79366443D01*
X105355611Y-79091775D01*
X105122025Y-78858189D01*
X105021171Y-78790800D01*
X116048064Y-78790800D01*
X116071755Y-79031334D01*
X116141916Y-79262624D01*
X116255851Y-79475783D01*
X116409183Y-79662617D01*
X116596017Y-79815949D01*
X116809176Y-79929884D01*
X117040466Y-80000045D01*
X117220732Y-80017800D01*
X118341268Y-80017800D01*
X118521534Y-80000045D01*
X118752824Y-79929884D01*
X118965983Y-79815949D01*
X119152817Y-79662617D01*
X119306149Y-79475783D01*
X119310416Y-79467800D01*
X121385578Y-79467800D01*
X124418000Y-82500222D01*
X124418001Y-86250538D01*
X124418000Y-86250548D01*
X124418000Y-86589691D01*
X123336957Y-87670734D01*
X123218007Y-87525793D01*
X123021488Y-87364514D01*
X122797281Y-87244672D01*
X122560351Y-87172800D01*
X122797281Y-87100928D01*
X123021488Y-86981086D01*
X123218007Y-86819807D01*
X123379286Y-86623288D01*
X123499128Y-86399081D01*
X123572926Y-86155802D01*
X123597844Y-85902800D01*
X123572926Y-85649798D01*
X123499128Y-85406519D01*
X123379286Y-85182312D01*
X123218007Y-84985793D01*
X123021488Y-84824514D01*
X122797281Y-84704672D01*
X122635071Y-84655466D01*
X123164600Y-84655466D01*
X123248307Y-84647222D01*
X123328796Y-84622805D01*
X123402976Y-84583155D01*
X123467995Y-84529795D01*
X123521355Y-84464776D01*
X123561005Y-84390596D01*
X123585422Y-84310107D01*
X123593666Y-84226400D01*
X123593666Y-82499200D01*
X123585422Y-82415493D01*
X123561005Y-82335004D01*
X123521355Y-82260824D01*
X123467995Y-82195805D01*
X123402976Y-82142445D01*
X123328796Y-82102795D01*
X123248307Y-82078378D01*
X123164600Y-82070134D01*
X121437400Y-82070134D01*
X121353693Y-82078378D01*
X121273204Y-82102795D01*
X121199024Y-82142445D01*
X121134005Y-82195805D01*
X121080645Y-82260824D01*
X121040995Y-82335004D01*
X121016578Y-82415493D01*
X121008334Y-82499200D01*
X121008334Y-83028729D01*
X120959128Y-82866519D01*
X120839286Y-82642312D01*
X120678007Y-82445793D01*
X120561469Y-82350153D01*
X121401983Y-81509640D01*
X121500627Y-81490018D01*
X121651131Y-81427677D01*
X121786581Y-81337172D01*
X121901772Y-81221981D01*
X121992277Y-81086531D01*
X122054618Y-80936027D01*
X122086400Y-80776252D01*
X122086400Y-80613348D01*
X122054618Y-80453573D01*
X121992277Y-80303069D01*
X121901772Y-80167619D01*
X121786581Y-80052428D01*
X121651131Y-79961923D01*
X121500627Y-79899582D01*
X121340852Y-79867800D01*
X121177948Y-79867800D01*
X121018173Y-79899582D01*
X120867669Y-79961923D01*
X120732219Y-80052428D01*
X120617028Y-80167619D01*
X120526523Y-80303069D01*
X120464182Y-80453573D01*
X120444560Y-80552217D01*
X119609333Y-81387445D01*
X119500670Y-81420408D01*
X119383059Y-81483272D01*
X119279973Y-81567873D01*
X119195372Y-81670959D01*
X119132508Y-81788570D01*
X119093796Y-81916185D01*
X119080725Y-82048900D01*
X119084001Y-82082162D01*
X119084001Y-82261269D01*
X119040512Y-82284514D01*
X118843993Y-82445793D01*
X118682714Y-82642312D01*
X118562872Y-82866519D01*
X118489074Y-83109798D01*
X118464156Y-83362800D01*
X118489074Y-83615802D01*
X118562872Y-83859081D01*
X118682714Y-84083288D01*
X118843993Y-84279807D01*
X119040512Y-84441086D01*
X119264719Y-84560928D01*
X119501649Y-84632800D01*
X119264719Y-84704672D01*
X119040512Y-84824514D01*
X118843993Y-84985793D01*
X118682714Y-85182312D01*
X118562872Y-85406519D01*
X118489074Y-85649798D01*
X118464156Y-85902800D01*
X118489074Y-86155802D01*
X118562872Y-86399081D01*
X118682714Y-86623288D01*
X118843993Y-86819807D01*
X119040512Y-86981086D01*
X119264719Y-87100928D01*
X119507998Y-87174726D01*
X119697602Y-87193400D01*
X119824398Y-87193400D01*
X120014002Y-87174726D01*
X120257281Y-87100928D01*
X120481488Y-86981086D01*
X120678007Y-86819807D01*
X120839286Y-86623288D01*
X120959128Y-86399081D01*
X121031000Y-86162151D01*
X121102872Y-86399081D01*
X121222714Y-86623288D01*
X121383993Y-86819807D01*
X121580512Y-86981086D01*
X121804719Y-87100928D01*
X122041649Y-87172800D01*
X121804719Y-87244672D01*
X121580512Y-87364514D01*
X121383993Y-87525793D01*
X121222714Y-87722312D01*
X121102872Y-87946519D01*
X121029074Y-88189798D01*
X121004156Y-88442800D01*
X121029074Y-88695802D01*
X121102872Y-88939081D01*
X121222714Y-89163288D01*
X121383993Y-89359807D01*
X121580512Y-89521086D01*
X121804719Y-89640928D01*
X122047998Y-89714726D01*
X122237602Y-89733400D01*
X122364398Y-89733400D01*
X122554002Y-89714726D01*
X122797281Y-89640928D01*
X123021488Y-89521086D01*
X123218007Y-89359807D01*
X123379286Y-89163288D01*
X123402531Y-89119800D01*
X123489069Y-89119800D01*
X123522314Y-89123074D01*
X123555559Y-89119800D01*
X123555566Y-89119800D01*
X123655029Y-89110004D01*
X123782644Y-89071292D01*
X123900255Y-89008428D01*
X124003341Y-88923827D01*
X124024540Y-88897996D01*
X125550206Y-87372331D01*
X125576026Y-87351141D01*
X125597218Y-87325319D01*
X125597224Y-87325313D01*
X125660628Y-87248055D01*
X125723492Y-87130444D01*
X125762204Y-87002829D01*
X125762412Y-87000713D01*
X125772000Y-86903366D01*
X125772000Y-86903359D01*
X125775274Y-86870114D01*
X125772000Y-86836869D01*
X125772000Y-82253041D01*
X125775274Y-82219799D01*
X125772000Y-82186557D01*
X125772000Y-82186548D01*
X125762204Y-82087085D01*
X125723492Y-81959470D01*
X125660628Y-81841859D01*
X125576026Y-81738773D01*
X125550200Y-81717578D01*
X122168226Y-78335604D01*
X122147027Y-78309773D01*
X122043941Y-78225172D01*
X121926330Y-78162308D01*
X121798715Y-78123596D01*
X121699252Y-78113800D01*
X121699245Y-78113800D01*
X121666000Y-78110526D01*
X121632755Y-78113800D01*
X119310416Y-78113800D01*
X119306149Y-78105817D01*
X119152817Y-77918983D01*
X118965983Y-77765651D01*
X118752824Y-77651716D01*
X118521534Y-77581555D01*
X118341268Y-77563800D01*
X117220732Y-77563800D01*
X117040466Y-77581555D01*
X116809176Y-77651716D01*
X116596017Y-77765651D01*
X116409183Y-77918983D01*
X116255851Y-78105817D01*
X116141916Y-78318976D01*
X116071755Y-78550266D01*
X116048064Y-78790800D01*
X105021171Y-78790800D01*
X104847357Y-78674662D01*
X104542163Y-78548246D01*
X104218170Y-78483800D01*
X103887830Y-78483800D01*
X103563837Y-78548246D01*
X103258643Y-78674662D01*
X102983975Y-78858189D01*
X102750389Y-79091775D01*
X102566862Y-79366443D01*
X102440446Y-79671637D01*
X102376000Y-79995630D01*
X94265000Y-79995630D01*
X94265000Y-75350630D01*
X102376000Y-75350630D01*
X102376000Y-75680970D01*
X102440446Y-76004963D01*
X102566862Y-76310157D01*
X102750389Y-76584825D01*
X102983975Y-76818411D01*
X103258643Y-77001938D01*
X103563837Y-77128354D01*
X103887830Y-77192800D01*
X104218170Y-77192800D01*
X104542163Y-77128354D01*
X104847357Y-77001938D01*
X105122025Y-76818411D01*
X105355611Y-76584825D01*
X105539138Y-76310157D01*
X105665554Y-76004963D01*
X105730000Y-75680970D01*
X105730000Y-75350630D01*
X107376000Y-75350630D01*
X107376000Y-75680970D01*
X107440446Y-76004963D01*
X107566862Y-76310157D01*
X107750389Y-76584825D01*
X107983975Y-76818411D01*
X108258643Y-77001938D01*
X108563837Y-77128354D01*
X108887830Y-77192800D01*
X109218170Y-77192800D01*
X109542163Y-77128354D01*
X109847357Y-77001938D01*
X110122025Y-76818411D01*
X110355611Y-76584825D01*
X110539138Y-76310157D01*
X110665554Y-76004963D01*
X110730000Y-75680970D01*
X110730000Y-75350630D01*
X110665554Y-75026637D01*
X110539138Y-74721443D01*
X110355611Y-74446775D01*
X110122025Y-74213189D01*
X109847357Y-74029662D01*
X109542163Y-73903246D01*
X109218170Y-73838800D01*
X108887830Y-73838800D01*
X108563837Y-73903246D01*
X108258643Y-74029662D01*
X107983975Y-74213189D01*
X107750389Y-74446775D01*
X107566862Y-74721443D01*
X107440446Y-75026637D01*
X107376000Y-75350630D01*
X105730000Y-75350630D01*
X105665554Y-75026637D01*
X105539138Y-74721443D01*
X105355611Y-74446775D01*
X105122025Y-74213189D01*
X104847357Y-74029662D01*
X104542163Y-73903246D01*
X104218170Y-73838800D01*
X103887830Y-73838800D01*
X103563837Y-73903246D01*
X103258643Y-74029662D01*
X102983975Y-74213189D01*
X102750389Y-74446775D01*
X102566862Y-74721443D01*
X102440446Y-75026637D01*
X102376000Y-75350630D01*
X94265000Y-75350630D01*
X94265000Y-62540899D01*
X94384101Y-62719146D01*
X94819654Y-63154699D01*
X95331810Y-63496911D01*
X95900888Y-63732631D01*
X96505017Y-63852800D01*
X97120983Y-63852800D01*
X97725112Y-63732631D01*
X98294190Y-63496911D01*
X98806346Y-63154699D01*
X99110415Y-62850630D01*
X102376000Y-62850630D01*
X102376000Y-63180970D01*
X102440446Y-63504963D01*
X102566862Y-63810157D01*
X102750389Y-64084825D01*
X102983975Y-64318411D01*
X103258643Y-64501938D01*
X103563837Y-64628354D01*
X103887830Y-64692800D01*
X104218170Y-64692800D01*
X104542163Y-64628354D01*
X104847357Y-64501938D01*
X105122025Y-64318411D01*
X105355611Y-64084825D01*
X105539138Y-63810157D01*
X105665554Y-63504963D01*
X105706450Y-63299364D01*
X118716780Y-63299364D01*
X118716780Y-63472036D01*
X118750467Y-63641389D01*
X118816545Y-63800916D01*
X118912476Y-63944487D01*
X119034573Y-64066584D01*
X119178144Y-64162515D01*
X119337671Y-64228593D01*
X119507024Y-64262280D01*
X119679696Y-64262280D01*
X119849049Y-64228593D01*
X120008576Y-64162515D01*
X120152147Y-64066584D01*
X120274244Y-63944487D01*
X120370175Y-63800916D01*
X120436253Y-63641389D01*
X120469940Y-63472036D01*
X120469940Y-63299364D01*
X123116060Y-63299364D01*
X123116060Y-63472036D01*
X123149747Y-63641389D01*
X123215825Y-63800916D01*
X123311756Y-63944487D01*
X123433853Y-64066584D01*
X123577424Y-64162515D01*
X123736951Y-64228593D01*
X123906304Y-64262280D01*
X124078976Y-64262280D01*
X124248329Y-64228593D01*
X124407856Y-64162515D01*
X124551427Y-64066584D01*
X124673524Y-63944487D01*
X124769455Y-63800916D01*
X124835533Y-63641389D01*
X124869220Y-63472036D01*
X124869220Y-63299364D01*
X124835533Y-63130011D01*
X124769455Y-62970484D01*
X124673524Y-62826913D01*
X124551427Y-62704816D01*
X124407856Y-62608885D01*
X124248329Y-62542807D01*
X124078976Y-62509120D01*
X123906304Y-62509120D01*
X123736951Y-62542807D01*
X123577424Y-62608885D01*
X123433853Y-62704816D01*
X123311756Y-62826913D01*
X123215825Y-62970484D01*
X123149747Y-63130011D01*
X123116060Y-63299364D01*
X120469940Y-63299364D01*
X120436253Y-63130011D01*
X120370175Y-62970484D01*
X120274244Y-62826913D01*
X120152147Y-62704816D01*
X120008576Y-62608885D01*
X119849049Y-62542807D01*
X119679696Y-62509120D01*
X119507024Y-62509120D01*
X119337671Y-62542807D01*
X119178144Y-62608885D01*
X119034573Y-62704816D01*
X118912476Y-62826913D01*
X118816545Y-62970484D01*
X118750467Y-63130011D01*
X118716780Y-63299364D01*
X105706450Y-63299364D01*
X105730000Y-63180970D01*
X105730000Y-62850630D01*
X105665554Y-62526637D01*
X105539138Y-62221443D01*
X105355611Y-61946775D01*
X105122025Y-61713189D01*
X104847357Y-61529662D01*
X104542163Y-61403246D01*
X104218170Y-61338800D01*
X103887830Y-61338800D01*
X103563837Y-61403246D01*
X103258643Y-61529662D01*
X102983975Y-61713189D01*
X102750389Y-61946775D01*
X102566862Y-62221443D01*
X102440446Y-62526637D01*
X102376000Y-62850630D01*
X99110415Y-62850630D01*
X99241899Y-62719146D01*
X99584111Y-62206990D01*
X99819831Y-61637912D01*
X99940000Y-61033783D01*
X99940000Y-60417817D01*
X99819831Y-59813688D01*
X99584111Y-59244610D01*
X99241899Y-58732454D01*
X98806346Y-58296901D01*
X98628099Y-58177800D01*
X133837977Y-58177800D01*
X133681862Y-58411443D01*
X133681862Y-58411443D01*
G37*
X133681862Y-58411443D02*
X133555446Y-58716637D01*
X133491000Y-59040630D01*
X133491000Y-59370970D01*
X133555446Y-59694963D01*
X133681862Y-60000157D01*
X133865389Y-60274825D01*
X134098975Y-60508411D01*
X134373643Y-60691938D01*
X134678837Y-60818354D01*
X135002830Y-60882800D01*
X135333170Y-60882800D01*
X135657163Y-60818354D01*
X135962357Y-60691938D01*
X136237025Y-60508411D01*
X136470611Y-60274825D01*
X136654138Y-60000157D01*
X136780554Y-59694963D01*
X136845000Y-59370970D01*
X136845000Y-59040630D01*
X136780554Y-58716637D01*
X136654138Y-58411443D01*
X136498023Y-58177800D01*
X149077977Y-58177800D01*
X148921862Y-58411443D01*
X148795446Y-58716637D01*
X148731000Y-59040630D01*
X148731000Y-59370970D01*
X148795446Y-59694963D01*
X148921862Y-60000157D01*
X149105389Y-60274825D01*
X149338975Y-60508411D01*
X149613643Y-60691938D01*
X149918837Y-60818354D01*
X150242830Y-60882800D01*
X150573170Y-60882800D01*
X150897163Y-60818354D01*
X151202357Y-60691938D01*
X151477025Y-60508411D01*
X151710611Y-60274825D01*
X151894138Y-60000157D01*
X152020554Y-59694963D01*
X152085000Y-59370970D01*
X152085000Y-59040630D01*
X152020554Y-58716637D01*
X151894138Y-58411443D01*
X151738023Y-58177800D01*
X164317977Y-58177800D01*
X164161862Y-58411443D01*
X164035446Y-58716637D01*
X163971000Y-59040630D01*
X163971000Y-59370970D01*
X164035446Y-59694963D01*
X164161862Y-60000157D01*
X164345389Y-60274825D01*
X164578975Y-60508411D01*
X164853643Y-60691938D01*
X165158837Y-60818354D01*
X165482830Y-60882800D01*
X165813170Y-60882800D01*
X166137163Y-60818354D01*
X166442357Y-60691938D01*
X166717025Y-60508411D01*
X166950611Y-60274825D01*
X167134138Y-60000157D01*
X167260554Y-59694963D01*
X167325000Y-59370970D01*
X167325000Y-59040630D01*
X167260554Y-58716637D01*
X167134138Y-58411443D01*
X166978023Y-58177800D01*
X175997901Y-58177800D01*
X175819654Y-58296901D01*
X175384101Y-58732454D01*
X175041889Y-59244610D01*
X174806169Y-59813688D01*
X174686000Y-60417817D01*
X174686000Y-61033783D01*
X174806169Y-61637912D01*
X175041889Y-62206990D01*
X175384101Y-62719146D01*
X175819654Y-63154699D01*
X176331810Y-63496911D01*
X176900888Y-63732631D01*
X177505017Y-63852800D01*
X178120983Y-63852800D01*
X178725112Y-63732631D01*
X179294190Y-63496911D01*
X179806346Y-63154699D01*
X180241899Y-62719146D01*
X180361000Y-62540899D01*
X180361001Y-82910702D01*
X180241899Y-82732454D01*
X179806346Y-82296901D01*
X179294190Y-81954689D01*
X178725112Y-81718969D01*
X178120983Y-81598800D01*
X177505017Y-81598800D01*
X176900888Y-81718969D01*
X176331810Y-81954689D01*
X175819654Y-82296901D01*
X175384101Y-82732454D01*
X175041889Y-83244610D01*
X174806169Y-83813688D01*
X174686000Y-84417817D01*
X174686000Y-85033783D01*
X174806169Y-85637912D01*
X175041889Y-86206990D01*
X175384101Y-86719146D01*
X175819654Y-87154699D01*
X175997901Y-87273800D01*
X169790795Y-87273800D01*
X169769839Y-87275864D01*
X169751090Y-87275733D01*
X169744809Y-87276349D01*
X169162519Y-87337550D01*
X169122388Y-87345788D01*
X169082148Y-87353464D01*
X169076106Y-87355288D01*
X168516792Y-87528425D01*
X168478989Y-87544316D01*
X168441044Y-87559647D01*
X168435475Y-87562608D01*
X168435470Y-87562610D01*
X168435466Y-87562613D01*
X167920439Y-87841086D01*
X167886479Y-87863992D01*
X167852196Y-87886426D01*
X167847305Y-87890415D01*
X167396172Y-88263625D01*
X167367324Y-88292675D01*
X167338036Y-88321356D01*
X167334013Y-88326219D01*
X166963961Y-88779948D01*
X166941297Y-88814060D01*
X166918145Y-88847872D01*
X166915147Y-88853419D01*
X166915144Y-88853423D01*
X166915144Y-88853424D01*
X166640269Y-89370388D01*
X166624642Y-89408302D01*
X166608520Y-89445918D01*
X166606653Y-89451947D01*
X166437427Y-90012455D01*
X166429470Y-90052638D01*
X166420952Y-90092713D01*
X166420292Y-90098990D01*
X166363157Y-90681692D01*
X166363157Y-90681705D01*
X166361001Y-90703595D01*
X166361000Y-111703692D01*
X166310347Y-112220287D01*
X166166740Y-112695941D01*
X165933478Y-113134642D01*
X165619449Y-113519680D01*
X165236610Y-113836392D01*
X164799552Y-114072708D01*
X164324909Y-114219635D01*
X163809560Y-114273800D01*
X142790795Y-114273800D01*
X142769839Y-114275864D01*
X142751090Y-114275733D01*
X142744809Y-114276349D01*
X142162519Y-114337550D01*
X142122388Y-114345788D01*
X142082148Y-114353464D01*
X142076106Y-114355288D01*
X141516792Y-114528425D01*
X141478989Y-114544316D01*
X141441044Y-114559647D01*
X141435475Y-114562608D01*
X141435470Y-114562610D01*
X141435466Y-114562613D01*
X140920439Y-114841086D01*
X140886479Y-114863992D01*
X140852196Y-114886426D01*
X140847305Y-114890415D01*
X140396172Y-115263625D01*
X140367324Y-115292675D01*
X140338036Y-115321356D01*
X140334013Y-115326219D01*
X139963961Y-115779948D01*
X139941297Y-115814060D01*
X139918145Y-115847872D01*
X139915147Y-115853419D01*
X139915144Y-115853423D01*
X139915144Y-115853424D01*
X139640269Y-116370388D01*
X139624642Y-116408302D01*
X139608520Y-116445918D01*
X139606653Y-116451947D01*
X139437427Y-117012455D01*
X139429470Y-117052638D01*
X139420952Y-117092713D01*
X139420292Y-117098990D01*
X139363157Y-117681692D01*
X139363157Y-117681705D01*
X139361001Y-117703595D01*
X139361000Y-124910701D01*
X139241899Y-124732454D01*
X138806346Y-124296901D01*
X138294190Y-123954689D01*
X137725112Y-123718969D01*
X137120983Y-123598800D01*
X136505017Y-123598800D01*
X135900888Y-123718969D01*
X135331810Y-123954689D01*
X134819654Y-124296901D01*
X134384101Y-124732454D01*
X134041889Y-125244610D01*
X133806169Y-125813688D01*
X133686000Y-126417817D01*
X133686000Y-127033783D01*
X133806169Y-127637912D01*
X134041889Y-128206990D01*
X134384101Y-128719146D01*
X134819654Y-129154699D01*
X134997901Y-129273800D01*
X98628099Y-129273800D01*
X98806346Y-129154699D01*
X99241899Y-128719146D01*
X99584111Y-128206990D01*
X99819831Y-127637912D01*
X99882942Y-127320630D01*
X102376000Y-127320630D01*
X102376000Y-127650970D01*
X102440446Y-127974963D01*
X102566862Y-128280157D01*
X102750389Y-128554825D01*
X102983975Y-128788411D01*
X103258643Y-128971938D01*
X103563837Y-129098354D01*
X103887830Y-129162800D01*
X104218170Y-129162800D01*
X104542163Y-129098354D01*
X104847357Y-128971938D01*
X105122025Y-128788411D01*
X105355611Y-128554825D01*
X105539138Y-128280157D01*
X105665554Y-127974963D01*
X105730000Y-127650970D01*
X105730000Y-127320630D01*
X107376000Y-127320630D01*
X107376000Y-127650970D01*
X107440446Y-127974963D01*
X107566862Y-128280157D01*
X107750389Y-128554825D01*
X107983975Y-128788411D01*
X108258643Y-128971938D01*
X108563837Y-129098354D01*
X108887830Y-129162800D01*
X109218170Y-129162800D01*
X109542163Y-129098354D01*
X109847357Y-128971938D01*
X110122025Y-128788411D01*
X110355611Y-128554825D01*
X110539138Y-128280157D01*
X110665554Y-127974963D01*
X110730000Y-127650970D01*
X110730000Y-127320630D01*
X110665554Y-126996637D01*
X110539138Y-126691443D01*
X110355611Y-126416775D01*
X110122025Y-126183189D01*
X109847357Y-125999662D01*
X109542163Y-125873246D01*
X109218170Y-125808800D01*
X108887830Y-125808800D01*
X108563837Y-125873246D01*
X108258643Y-125999662D01*
X107983975Y-126183189D01*
X107750389Y-126416775D01*
X107566862Y-126691443D01*
X107440446Y-126996637D01*
X107376000Y-127320630D01*
X105730000Y-127320630D01*
X105665554Y-126996637D01*
X105616943Y-126879279D01*
X117034496Y-115461726D01*
X117060327Y-115440527D01*
X117144928Y-115337441D01*
X117207792Y-115219830D01*
X117246504Y-115092215D01*
X117256300Y-114992752D01*
X117256300Y-114992743D01*
X117259574Y-114959501D01*
X117256300Y-114926259D01*
X117256300Y-114920630D01*
X118251000Y-114920630D01*
X118251000Y-115250970D01*
X118315446Y-115574963D01*
X118441862Y-115880157D01*
X118625389Y-116154825D01*
X118858975Y-116388411D01*
X119133643Y-116571938D01*
X119438837Y-116698354D01*
X119762830Y-116762800D01*
X120093170Y-116762800D01*
X120417163Y-116698354D01*
X120722357Y-116571938D01*
X120997025Y-116388411D01*
X121230611Y-116154825D01*
X121414138Y-115880157D01*
X121540554Y-115574963D01*
X121605000Y-115250970D01*
X121605000Y-114920630D01*
X121540554Y-114596637D01*
X121414138Y-114291443D01*
X121230611Y-114016775D01*
X120997025Y-113783189D01*
X120722357Y-113599662D01*
X120417163Y-113473246D01*
X120093170Y-113408800D01*
X119762830Y-113408800D01*
X119438837Y-113473246D01*
X119133643Y-113599662D01*
X118858975Y-113783189D01*
X118625389Y-114016775D01*
X118441862Y-114291443D01*
X118315446Y-114596637D01*
X118251000Y-114920630D01*
X117256300Y-114920630D01*
X117256300Y-98369924D01*
X118251000Y-97375224D01*
X118251000Y-97470970D01*
X118315446Y-97794963D01*
X118441862Y-98100157D01*
X118625389Y-98374825D01*
X118858975Y-98608411D01*
X119133643Y-98791938D01*
X119438837Y-98918354D01*
X119762830Y-98982800D01*
X120093170Y-98982800D01*
X120417163Y-98918354D01*
X120722357Y-98791938D01*
X120997025Y-98608411D01*
X121230611Y-98374825D01*
X121414138Y-98100157D01*
X121540554Y-97794963D01*
X121605000Y-97470970D01*
X121605000Y-97140630D01*
X121540554Y-96816637D01*
X121414138Y-96511443D01*
X121230611Y-96236775D01*
X120997025Y-96003189D01*
X120722357Y-95819662D01*
X120417163Y-95693246D01*
X120093170Y-95628800D01*
X119997424Y-95628800D01*
X127294424Y-88331800D01*
X135832578Y-88331800D01*
X135255578Y-88908800D01*
X127541241Y-88908800D01*
X127507999Y-88905526D01*
X127474757Y-88908800D01*
X127474748Y-88908800D01*
X127375285Y-88918596D01*
X127247670Y-88957308D01*
X127130059Y-89020172D01*
X127026973Y-89104773D01*
X127005776Y-89130602D01*
X122772799Y-93363579D01*
X122746972Y-93384775D01*
X122725777Y-93410601D01*
X122725775Y-93410603D01*
X122680029Y-93466345D01*
X122662371Y-93487861D01*
X122599507Y-93605472D01*
X122560795Y-93733087D01*
X122550999Y-93832550D01*
X122550999Y-93832556D01*
X122547725Y-93865801D01*
X122550999Y-93899046D01*
X122551000Y-106225378D01*
X120534521Y-108241857D01*
X120417163Y-108193246D01*
X120093170Y-108128800D01*
X119762830Y-108128800D01*
X119438837Y-108193246D01*
X119133643Y-108319662D01*
X118858975Y-108503189D01*
X118625389Y-108736775D01*
X118441862Y-109011443D01*
X118315446Y-109316637D01*
X118251000Y-109640630D01*
X118251000Y-109970970D01*
X118315446Y-110294963D01*
X118441862Y-110600157D01*
X118625389Y-110874825D01*
X118858975Y-111108411D01*
X119133643Y-111291938D01*
X119438837Y-111418354D01*
X119762830Y-111482800D01*
X120093170Y-111482800D01*
X120417163Y-111418354D01*
X120722357Y-111291938D01*
X120997025Y-111108411D01*
X121230611Y-110874825D01*
X121414138Y-110600157D01*
X121540554Y-110294963D01*
X121605000Y-109970970D01*
X121605000Y-109640630D01*
X123251000Y-109640630D01*
X123251000Y-109970970D01*
X123315446Y-110294963D01*
X123441862Y-110600157D01*
X123625389Y-110874825D01*
X123858975Y-111108411D01*
X124133643Y-111291938D01*
X124438837Y-111418354D01*
X124762830Y-111482800D01*
X125093170Y-111482800D01*
X125417163Y-111418354D01*
X125722357Y-111291938D01*
X125997025Y-111108411D01*
X126230611Y-110874825D01*
X126414138Y-110600157D01*
X126540554Y-110294963D01*
X126605000Y-109970970D01*
X126605000Y-109640630D01*
X126540554Y-109316637D01*
X126414138Y-109011443D01*
X126230611Y-108736775D01*
X125997025Y-108503189D01*
X125722357Y-108319662D01*
X125417163Y-108193246D01*
X125093170Y-108128800D01*
X124762830Y-108128800D01*
X124438837Y-108193246D01*
X124133643Y-108319662D01*
X123858975Y-108503189D01*
X123625389Y-108736775D01*
X123441862Y-109011443D01*
X123315446Y-109316637D01*
X123251000Y-109640630D01*
X121605000Y-109640630D01*
X121540554Y-109316637D01*
X121491943Y-109199279D01*
X123683195Y-107008027D01*
X123709026Y-106986828D01*
X123793627Y-106883742D01*
X123856491Y-106766131D01*
X123895203Y-106638516D01*
X123904999Y-106539053D01*
X123904999Y-106539044D01*
X123908273Y-106505802D01*
X123904999Y-106472560D01*
X123904999Y-94146223D01*
X124888272Y-93162950D01*
X125553954Y-93162950D01*
X125562198Y-93246657D01*
X125586615Y-93327146D01*
X125626265Y-93401326D01*
X125679625Y-93466345D01*
X126528153Y-94314873D01*
X126593172Y-94368233D01*
X126667352Y-94407883D01*
X126747841Y-94432300D01*
X126831548Y-94440544D01*
X126915255Y-94432300D01*
X126995744Y-94407883D01*
X127069924Y-94368233D01*
X127134943Y-94314873D01*
X127665273Y-93784543D01*
X127718633Y-93719524D01*
X127758283Y-93645344D01*
X127782700Y-93564855D01*
X127790944Y-93481148D01*
X127782700Y-93397441D01*
X127764668Y-93338000D01*
X127778983Y-93338000D01*
X127827941Y-93411271D01*
X127991883Y-93575213D01*
X128184658Y-93704021D01*
X128398859Y-93792746D01*
X128626253Y-93837977D01*
X128858101Y-93837977D01*
X129085495Y-93792746D01*
X129299696Y-93704021D01*
X129492471Y-93575213D01*
X129656413Y-93411271D01*
X129785221Y-93218496D01*
X129873946Y-93004295D01*
X129919177Y-92776901D01*
X129919177Y-92545053D01*
X129873946Y-92317659D01*
X129785221Y-92103458D01*
X129656413Y-91910683D01*
X129492471Y-91746741D01*
X129299696Y-91617933D01*
X129085495Y-91529208D01*
X128858101Y-91483977D01*
X128626253Y-91483977D01*
X128398859Y-91529208D01*
X128184658Y-91617933D01*
X127991883Y-91746741D01*
X127827941Y-91910683D01*
X127778952Y-91984000D01*
X127366641Y-91984000D01*
X127333399Y-91980726D01*
X127300157Y-91984000D01*
X127300148Y-91984000D01*
X127200685Y-91993796D01*
X127073070Y-92032508D01*
X126955459Y-92095372D01*
X126852373Y-92179973D01*
X126831174Y-92205804D01*
X126756882Y-92280096D01*
X126751726Y-92275865D01*
X126677546Y-92236215D01*
X126597057Y-92211798D01*
X126513350Y-92203554D01*
X126429643Y-92211798D01*
X126349154Y-92236215D01*
X126274974Y-92275865D01*
X126209955Y-92329225D01*
X125679625Y-92859555D01*
X125626265Y-92924574D01*
X125586615Y-92998754D01*
X125562198Y-93079243D01*
X125553954Y-93162950D01*
X124888272Y-93162950D01*
X127788422Y-90262800D01*
X135502755Y-90262800D01*
X135536000Y-90266074D01*
X135569245Y-90262800D01*
X135569252Y-90262800D01*
X135668715Y-90253004D01*
X135796330Y-90214292D01*
X135913941Y-90151428D01*
X136017027Y-90066827D01*
X136038226Y-90040996D01*
X137385482Y-88693740D01*
X137484127Y-88674118D01*
X137634631Y-88611777D01*
X137770081Y-88521272D01*
X137885272Y-88406081D01*
X137975777Y-88270631D01*
X138038118Y-88120127D01*
X138069900Y-87960352D01*
X138069900Y-87797448D01*
X138038118Y-87637673D01*
X138035561Y-87631500D01*
X138883947Y-87631500D01*
X138854100Y-87781548D01*
X138854100Y-87944452D01*
X138885882Y-88104227D01*
X138948223Y-88254731D01*
X139004101Y-88338358D01*
X139004100Y-92354070D01*
X138912252Y-92335800D01*
X138756700Y-92335800D01*
X138756700Y-92231048D01*
X138724918Y-92071273D01*
X138662577Y-91920769D01*
X138572072Y-91785319D01*
X138456881Y-91670128D01*
X138321431Y-91579623D01*
X138170927Y-91517282D01*
X138011152Y-91485500D01*
X137848248Y-91485500D01*
X137688473Y-91517282D01*
X137537969Y-91579623D01*
X137402519Y-91670128D01*
X137287328Y-91785319D01*
X137196823Y-91920769D01*
X137134482Y-92071273D01*
X137102700Y-92231048D01*
X137102700Y-92393952D01*
X137120523Y-92483554D01*
X133384000Y-96220078D01*
X133384000Y-96009876D01*
X133338769Y-95782482D01*
X133250044Y-95568281D01*
X133121236Y-95375506D01*
X132957294Y-95211564D01*
X132764519Y-95082756D01*
X132550318Y-94994031D01*
X132322924Y-94948800D01*
X132091076Y-94948800D01*
X131863682Y-94994031D01*
X131649481Y-95082756D01*
X131456706Y-95211564D01*
X131292764Y-95375506D01*
X131163956Y-95568281D01*
X131075231Y-95782482D01*
X131030000Y-96009876D01*
X131030000Y-96241724D01*
X131075231Y-96469118D01*
X131097600Y-96523121D01*
X131097400Y-96525149D01*
X131097400Y-96525155D01*
X131094126Y-96558400D01*
X131097400Y-96591645D01*
X131097400Y-96728531D01*
X131031652Y-96722056D01*
X130947945Y-96730300D01*
X130867456Y-96754717D01*
X130793276Y-96794367D01*
X130728257Y-96847727D01*
X130197927Y-97378057D01*
X130144567Y-97443076D01*
X130104917Y-97517256D01*
X130080500Y-97597745D01*
X130072256Y-97681452D01*
X130080500Y-97765159D01*
X130104917Y-97845648D01*
X130144567Y-97919828D01*
X130197927Y-97984847D01*
X130908579Y-98695499D01*
X130898700Y-98705378D01*
X130872874Y-98726573D01*
X130788272Y-98829659D01*
X130786267Y-98833410D01*
X130688717Y-98930960D01*
X130590073Y-98950582D01*
X130439569Y-99012923D01*
X130304119Y-99103428D01*
X130188928Y-99218619D01*
X130098423Y-99354069D01*
X130036082Y-99504573D01*
X130004300Y-99664348D01*
X130004300Y-99827252D01*
X130036082Y-99987027D01*
X130098423Y-100137531D01*
X130188928Y-100272981D01*
X130304119Y-100388172D01*
X130439569Y-100478677D01*
X130590073Y-100541018D01*
X130749848Y-100572800D01*
X130912752Y-100572800D01*
X131072527Y-100541018D01*
X131223031Y-100478677D01*
X131358481Y-100388172D01*
X131473672Y-100272981D01*
X131564177Y-100137531D01*
X131626518Y-99987027D01*
X131633320Y-99952831D01*
X131680928Y-100024081D01*
X131796119Y-100139272D01*
X131931569Y-100229777D01*
X132082073Y-100292118D01*
X132241848Y-100323900D01*
X132404752Y-100323900D01*
X132564527Y-100292118D01*
X132715031Y-100229777D01*
X132850481Y-100139272D01*
X132965672Y-100024081D01*
X133043664Y-99907358D01*
X133277501Y-99673521D01*
X133277500Y-113278877D01*
X120534521Y-126021857D01*
X120417163Y-125973246D01*
X120093170Y-125908800D01*
X119762830Y-125908800D01*
X119438837Y-125973246D01*
X119133643Y-126099662D01*
X118858975Y-126283189D01*
X118625389Y-126516775D01*
X118441862Y-126791443D01*
X118315446Y-127096637D01*
X118251000Y-127420630D01*
X118251000Y-127750970D01*
X118315446Y-128074963D01*
X118441862Y-128380157D01*
X118625389Y-128654825D01*
X118858975Y-128888411D01*
X119133643Y-129071938D01*
X119438837Y-129198354D01*
X119762830Y-129262800D01*
X120093170Y-129262800D01*
X120417163Y-129198354D01*
X120722357Y-129071938D01*
X120997025Y-128888411D01*
X121230611Y-128654825D01*
X121414138Y-128380157D01*
X121540554Y-128074963D01*
X121605000Y-127750970D01*
X121605000Y-127420630D01*
X123251000Y-127420630D01*
X123251000Y-127750970D01*
X123315446Y-128074963D01*
X123441862Y-128380157D01*
X123625389Y-128654825D01*
X123858975Y-128888411D01*
X124133643Y-129071938D01*
X124438837Y-129198354D01*
X124762830Y-129262800D01*
X125093170Y-129262800D01*
X125417163Y-129198354D01*
X125722357Y-129071938D01*
X125997025Y-128888411D01*
X126230611Y-128654825D01*
X126414138Y-128380157D01*
X126540554Y-128074963D01*
X126605000Y-127750970D01*
X126605000Y-127420630D01*
X126540554Y-127096637D01*
X126414138Y-126791443D01*
X126230611Y-126516775D01*
X125997025Y-126283189D01*
X125722357Y-126099662D01*
X125417163Y-125973246D01*
X125093170Y-125908800D01*
X124762830Y-125908800D01*
X124438837Y-125973246D01*
X124133643Y-126099662D01*
X123858975Y-126283189D01*
X123625389Y-126516775D01*
X123441862Y-126791443D01*
X123315446Y-127096637D01*
X123251000Y-127420630D01*
X121605000Y-127420630D01*
X121540554Y-127096637D01*
X121491943Y-126979279D01*
X134409706Y-114061517D01*
X134435526Y-114040327D01*
X134456718Y-114014505D01*
X134456724Y-114014499D01*
X134520128Y-113937241D01*
X134582992Y-113819630D01*
X134621704Y-113692015D01*
X134634775Y-113559300D01*
X134631500Y-113526048D01*
X134631500Y-102945948D01*
X138371700Y-102945948D01*
X138371700Y-103108852D01*
X138403482Y-103268627D01*
X138465823Y-103419131D01*
X138521700Y-103502757D01*
X138521701Y-104233546D01*
X138518426Y-104266800D01*
X138531496Y-104399514D01*
X138570208Y-104527129D01*
X138633072Y-104644740D01*
X138696476Y-104721998D01*
X138696479Y-104722001D01*
X138717674Y-104747827D01*
X138743500Y-104769022D01*
X141668478Y-107694001D01*
X141689673Y-107719827D01*
X141715499Y-107741022D01*
X141715501Y-107741024D01*
X141732000Y-107754564D01*
X141732000Y-108635800D01*
X141734440Y-108660576D01*
X141741667Y-108684401D01*
X141753403Y-108706357D01*
X141769197Y-108725603D01*
X141788443Y-108741397D01*
X141810399Y-108753133D01*
X141834224Y-108760360D01*
X141859000Y-108762800D01*
X148717000Y-108762800D01*
X148741776Y-108760360D01*
X148765601Y-108753133D01*
X148787557Y-108741397D01*
X148806803Y-108725603D01*
X148822597Y-108706357D01*
X148834333Y-108684401D01*
X148841560Y-108660576D01*
X148844000Y-108635800D01*
X148844000Y-107851889D01*
X148930576Y-107981460D01*
X149129340Y-108180224D01*
X149363062Y-108336391D01*
X149622759Y-108443962D01*
X149898453Y-108498800D01*
X150179547Y-108498800D01*
X150455241Y-108443962D01*
X150714938Y-108336391D01*
X150948660Y-108180224D01*
X151147424Y-107981460D01*
X151303591Y-107747738D01*
X151411162Y-107488041D01*
X151466000Y-107212347D01*
X151466000Y-106931253D01*
X151411162Y-106655559D01*
X151303591Y-106395862D01*
X151147424Y-106162140D01*
X150948660Y-105963376D01*
X150714938Y-105807209D01*
X150455241Y-105699638D01*
X150179547Y-105644800D01*
X149898453Y-105644800D01*
X149622759Y-105699638D01*
X149363062Y-105807209D01*
X149129340Y-105963376D01*
X148930576Y-106162140D01*
X148844000Y-106291711D01*
X148844000Y-104224421D01*
X153762000Y-104224421D01*
X153762000Y-104919179D01*
X153897540Y-105600588D01*
X154163413Y-106242461D01*
X154549400Y-106820132D01*
X155040668Y-107311400D01*
X155618339Y-107697387D01*
X156260212Y-107963260D01*
X156941621Y-108098800D01*
X157636379Y-108098800D01*
X158317788Y-107963260D01*
X158959661Y-107697387D01*
X159537332Y-107311400D01*
X159901479Y-106947253D01*
X163048000Y-106947253D01*
X163048000Y-107228347D01*
X163102838Y-107504041D01*
X163210409Y-107763738D01*
X163366576Y-107997460D01*
X163565340Y-108196224D01*
X163799062Y-108352391D01*
X164058759Y-108459962D01*
X164334453Y-108514800D01*
X164615547Y-108514800D01*
X164891241Y-108459962D01*
X165150938Y-108352391D01*
X165384660Y-108196224D01*
X165583424Y-107997460D01*
X165739591Y-107763738D01*
X165847162Y-107504041D01*
X165902000Y-107228347D01*
X165902000Y-106947253D01*
X165847162Y-106671559D01*
X165739591Y-106411862D01*
X165583424Y-106178140D01*
X165384660Y-105979376D01*
X165150938Y-105823209D01*
X164891241Y-105715638D01*
X164615547Y-105660800D01*
X164334453Y-105660800D01*
X164058759Y-105715638D01*
X163799062Y-105823209D01*
X163565340Y-105979376D01*
X163366576Y-106178140D01*
X163210409Y-106411862D01*
X163102838Y-106671559D01*
X163048000Y-106947253D01*
X159901479Y-106947253D01*
X160028600Y-106820132D01*
X160414587Y-106242461D01*
X160680460Y-105600588D01*
X160816000Y-104919179D01*
X160816000Y-104224421D01*
X160680460Y-103543012D01*
X160414587Y-102901139D01*
X160028600Y-102323468D01*
X159652385Y-101947253D01*
X163048000Y-101947253D01*
X163048000Y-102228347D01*
X163102838Y-102504041D01*
X163210409Y-102763738D01*
X163366576Y-102997460D01*
X163565340Y-103196224D01*
X163799062Y-103352391D01*
X164058759Y-103459962D01*
X164334453Y-103514800D01*
X164615547Y-103514800D01*
X164891241Y-103459962D01*
X165150938Y-103352391D01*
X165384660Y-103196224D01*
X165583424Y-102997460D01*
X165739591Y-102763738D01*
X165847162Y-102504041D01*
X165902000Y-102228347D01*
X165902000Y-101947253D01*
X165847162Y-101671559D01*
X165739591Y-101411862D01*
X165583424Y-101178140D01*
X165384660Y-100979376D01*
X165150938Y-100823209D01*
X164891241Y-100715638D01*
X164615547Y-100660800D01*
X164334453Y-100660800D01*
X164058759Y-100715638D01*
X163799062Y-100823209D01*
X163565340Y-100979376D01*
X163366576Y-101178140D01*
X163210409Y-101411862D01*
X163102838Y-101671559D01*
X163048000Y-101947253D01*
X159652385Y-101947253D01*
X159537332Y-101832200D01*
X158959661Y-101446213D01*
X158317788Y-101180340D01*
X157636379Y-101044800D01*
X156941621Y-101044800D01*
X156260212Y-101180340D01*
X155618339Y-101446213D01*
X155040668Y-101832200D01*
X154549400Y-102323468D01*
X154163413Y-102901139D01*
X153897540Y-103543012D01*
X153762000Y-104224421D01*
X148844000Y-104224421D01*
X148844000Y-102851889D01*
X148930576Y-102981460D01*
X149129340Y-103180224D01*
X149363062Y-103336391D01*
X149622759Y-103443962D01*
X149898453Y-103498800D01*
X150179547Y-103498800D01*
X150455241Y-103443962D01*
X150714938Y-103336391D01*
X150948660Y-103180224D01*
X151147424Y-102981460D01*
X151303591Y-102747738D01*
X151411162Y-102488041D01*
X151466000Y-102212347D01*
X151466000Y-101931253D01*
X151411162Y-101655559D01*
X151303591Y-101395862D01*
X151147424Y-101162140D01*
X150948660Y-100963376D01*
X150714938Y-100807209D01*
X150455241Y-100699638D01*
X150179547Y-100644800D01*
X149898453Y-100644800D01*
X149622759Y-100699638D01*
X149363062Y-100807209D01*
X149129340Y-100963376D01*
X148930576Y-101162140D01*
X148844000Y-101291711D01*
X148844000Y-100507800D01*
X148841560Y-100483024D01*
X148834333Y-100459199D01*
X148822597Y-100437243D01*
X148806803Y-100417997D01*
X148787557Y-100402203D01*
X148765601Y-100390467D01*
X148741776Y-100383240D01*
X148717000Y-100380800D01*
X142303800Y-100380800D01*
X142303800Y-97433157D01*
X142359677Y-97349531D01*
X142422018Y-97199027D01*
X142453800Y-97039252D01*
X142453800Y-96876348D01*
X142422018Y-96716573D01*
X142359677Y-96566069D01*
X142269172Y-96430619D01*
X142153981Y-96315428D01*
X142018531Y-96224923D01*
X141868027Y-96162582D01*
X141708252Y-96130800D01*
X141545348Y-96130800D01*
X141385573Y-96162582D01*
X141235069Y-96224923D01*
X141099619Y-96315428D01*
X140984428Y-96430619D01*
X140893923Y-96566069D01*
X140831582Y-96716573D01*
X140799800Y-96876348D01*
X140799800Y-97039252D01*
X140831582Y-97199027D01*
X140893923Y-97349531D01*
X140949800Y-97433157D01*
X140949801Y-102296642D01*
X140893923Y-102380269D01*
X140831582Y-102530773D01*
X140799800Y-102690548D01*
X140799800Y-102853452D01*
X140831582Y-103013227D01*
X140893923Y-103163731D01*
X140949800Y-103247357D01*
X140949801Y-103566642D01*
X140893923Y-103650269D01*
X140831582Y-103800773D01*
X140799800Y-103960548D01*
X140799800Y-104123452D01*
X140831582Y-104283227D01*
X140893923Y-104433731D01*
X140949800Y-104517357D01*
X140949801Y-104669543D01*
X140893923Y-104753169D01*
X140831582Y-104903673D01*
X140825180Y-104935858D01*
X139875700Y-103986378D01*
X139875700Y-103502757D01*
X139931577Y-103419131D01*
X139993918Y-103268627D01*
X140025700Y-103108852D01*
X140025700Y-102945948D01*
X139993918Y-102786173D01*
X139931577Y-102635669D01*
X139841072Y-102500219D01*
X139725881Y-102385028D01*
X139590431Y-102294523D01*
X139439927Y-102232182D01*
X139280152Y-102200400D01*
X139117248Y-102200400D01*
X138957473Y-102232182D01*
X138806969Y-102294523D01*
X138671519Y-102385028D01*
X138556328Y-102500219D01*
X138465823Y-102635669D01*
X138403482Y-102786173D01*
X138371700Y-102945948D01*
X134631500Y-102945948D01*
X134631500Y-99522122D01*
X138011756Y-96141866D01*
X138023423Y-96170031D01*
X138113928Y-96305481D01*
X138229119Y-96420672D01*
X138364569Y-96511177D01*
X138515073Y-96573518D01*
X138674848Y-96605300D01*
X138837752Y-96605300D01*
X138997527Y-96573518D01*
X139148031Y-96511177D01*
X139283481Y-96420672D01*
X139398672Y-96305481D01*
X139489177Y-96170031D01*
X139551518Y-96019527D01*
X139583300Y-95859752D01*
X139583300Y-95761622D01*
X147745283Y-87599640D01*
X147843927Y-87580018D01*
X147994431Y-87517677D01*
X148129881Y-87427172D01*
X148245072Y-87311981D01*
X148335577Y-87176531D01*
X148397918Y-87026027D01*
X148429700Y-86866252D01*
X148429700Y-86703348D01*
X148397918Y-86543573D01*
X148335577Y-86393069D01*
X148245072Y-86257619D01*
X148129881Y-86142428D01*
X147994431Y-86051923D01*
X147843927Y-85989582D01*
X147684152Y-85957800D01*
X147521248Y-85957800D01*
X147361473Y-85989582D01*
X147210969Y-86051923D01*
X147075519Y-86142428D01*
X146960328Y-86257619D01*
X146869823Y-86393069D01*
X146807482Y-86543573D01*
X146787860Y-86642217D01*
X140358100Y-93071978D01*
X140358100Y-88476053D01*
X140366619Y-88484572D01*
X140502069Y-88575077D01*
X140652573Y-88637418D01*
X140812348Y-88669200D01*
X140975252Y-88669200D01*
X141135027Y-88637418D01*
X141285531Y-88575077D01*
X141420981Y-88484572D01*
X141536172Y-88369381D01*
X141626677Y-88233931D01*
X141689018Y-88083427D01*
X141720800Y-87923652D01*
X141720800Y-87760748D01*
X141689018Y-87600973D01*
X141626677Y-87450469D01*
X141536172Y-87315019D01*
X141420981Y-87199828D01*
X141285531Y-87109323D01*
X141135027Y-87046982D01*
X141036382Y-87027360D01*
X140883122Y-86874100D01*
X144184778Y-86874100D01*
X141271918Y-89786960D01*
X141173273Y-89806582D01*
X141022769Y-89868923D01*
X140887319Y-89959428D01*
X140772128Y-90074619D01*
X140681623Y-90210069D01*
X140619282Y-90360573D01*
X140587500Y-90520348D01*
X140587500Y-90683252D01*
X140619282Y-90843027D01*
X140681623Y-90993531D01*
X140772128Y-91128981D01*
X140887319Y-91244172D01*
X141022769Y-91334677D01*
X141173273Y-91397018D01*
X141333048Y-91428800D01*
X141495952Y-91428800D01*
X141655727Y-91397018D01*
X141806231Y-91334677D01*
X141941681Y-91244172D01*
X142056872Y-91128981D01*
X142147377Y-90993531D01*
X142209718Y-90843027D01*
X142229340Y-90744382D01*
X147155922Y-85817800D01*
X148876643Y-85817800D01*
X148960269Y-85873677D01*
X149110773Y-85936018D01*
X149270548Y-85967800D01*
X149433452Y-85967800D01*
X149593227Y-85936018D01*
X149743731Y-85873677D01*
X149879181Y-85783172D01*
X149994372Y-85667981D01*
X150084877Y-85532531D01*
X150147218Y-85382027D01*
X150179000Y-85222252D01*
X150179000Y-85059348D01*
X150147218Y-84899573D01*
X150084877Y-84749069D01*
X149994372Y-84613619D01*
X149879181Y-84498428D01*
X149743731Y-84407923D01*
X149593227Y-84345582D01*
X149433452Y-84313800D01*
X149270548Y-84313800D01*
X149110773Y-84345582D01*
X148960269Y-84407923D01*
X148876643Y-84463800D01*
X147012522Y-84463800D01*
X148181482Y-83294840D01*
X148280127Y-83275218D01*
X148430631Y-83212877D01*
X148566081Y-83122372D01*
X148681272Y-83007181D01*
X148771777Y-82871731D01*
X148834118Y-82721227D01*
X148865900Y-82561452D01*
X148865900Y-82398548D01*
X148847610Y-82306600D01*
X152598477Y-82306600D01*
X152580123Y-82334069D01*
X152517782Y-82484573D01*
X152486000Y-82644348D01*
X152486000Y-82807252D01*
X152517782Y-82967027D01*
X152580123Y-83117531D01*
X152636000Y-83201157D01*
X152636001Y-89188737D01*
X152581523Y-89270269D01*
X152519182Y-89420773D01*
X152487400Y-89580548D01*
X152487400Y-89743452D01*
X152519182Y-89903227D01*
X152581523Y-90053731D01*
X152672028Y-90189181D01*
X152787219Y-90304372D01*
X152922669Y-90394877D01*
X153073173Y-90457218D01*
X153232948Y-90489000D01*
X153395852Y-90489000D01*
X153555627Y-90457218D01*
X153706131Y-90394877D01*
X153841581Y-90304372D01*
X153956772Y-90189181D01*
X154047277Y-90053731D01*
X154109618Y-89903227D01*
X154141400Y-89743452D01*
X154141400Y-89580548D01*
X154109618Y-89420773D01*
X154047277Y-89270269D01*
X153990000Y-89184548D01*
X153990000Y-83201157D01*
X154045877Y-83117531D01*
X154108218Y-82967027D01*
X154140000Y-82807252D01*
X154140000Y-82644348D01*
X154108218Y-82484573D01*
X154045877Y-82334069D01*
X154027523Y-82306600D01*
X155690955Y-82306600D01*
X155724200Y-82309874D01*
X155757445Y-82306600D01*
X155757452Y-82306600D01*
X155856915Y-82296804D01*
X155984530Y-82258092D01*
X156102141Y-82195228D01*
X156205227Y-82110627D01*
X156226426Y-82084796D01*
X165041480Y-73269743D01*
X165158837Y-73318354D01*
X165482830Y-73382800D01*
X165813170Y-73382800D01*
X166137163Y-73318354D01*
X166442357Y-73191938D01*
X166717025Y-73008411D01*
X166950611Y-72774825D01*
X167134138Y-72500157D01*
X167260554Y-72194963D01*
X167325000Y-71870970D01*
X167325000Y-71540630D01*
X168971000Y-71540630D01*
X168971000Y-71870970D01*
X169035446Y-72194963D01*
X169161862Y-72500157D01*
X169345389Y-72774825D01*
X169578975Y-73008411D01*
X169853643Y-73191938D01*
X170158837Y-73318354D01*
X170482830Y-73382800D01*
X170813170Y-73382800D01*
X171137163Y-73318354D01*
X171442357Y-73191938D01*
X171717025Y-73008411D01*
X171950611Y-72774825D01*
X172134138Y-72500157D01*
X172260554Y-72194963D01*
X172325000Y-71870970D01*
X172325000Y-71540630D01*
X172260554Y-71216637D01*
X172134138Y-70911443D01*
X171950611Y-70636775D01*
X171717025Y-70403189D01*
X171442357Y-70219662D01*
X171137163Y-70093246D01*
X170813170Y-70028800D01*
X170482830Y-70028800D01*
X170158837Y-70093246D01*
X169853643Y-70219662D01*
X169578975Y-70403189D01*
X169345389Y-70636775D01*
X169161862Y-70911443D01*
X169035446Y-71216637D01*
X168971000Y-71540630D01*
X167325000Y-71540630D01*
X167260554Y-71216637D01*
X167134138Y-70911443D01*
X166950611Y-70636775D01*
X166717025Y-70403189D01*
X166442357Y-70219662D01*
X166137163Y-70093246D01*
X165813170Y-70028800D01*
X165482830Y-70028800D01*
X165158837Y-70093246D01*
X164853643Y-70219662D01*
X164578975Y-70403189D01*
X164345389Y-70636775D01*
X164161862Y-70911443D01*
X164035446Y-71216637D01*
X163971000Y-71540630D01*
X163971000Y-71870970D01*
X164035446Y-72194963D01*
X164084057Y-72312320D01*
X155443778Y-80952600D01*
X147290741Y-80952600D01*
X147257499Y-80949326D01*
X147224257Y-80952600D01*
X147224248Y-80952600D01*
X147124785Y-80962396D01*
X146997170Y-81001108D01*
X146879559Y-81063972D01*
X146776473Y-81148573D01*
X146755276Y-81174402D01*
X144875850Y-83053828D01*
X144838877Y-82964569D01*
X144783000Y-82880943D01*
X144783000Y-78288222D01*
X149801480Y-73269743D01*
X149918837Y-73318354D01*
X150242830Y-73382800D01*
X150573170Y-73382800D01*
X150897163Y-73318354D01*
X151202357Y-73191938D01*
X151477025Y-73008411D01*
X151710611Y-72774825D01*
X151894138Y-72500157D01*
X152020554Y-72194963D01*
X152085000Y-71870970D01*
X152085000Y-71540630D01*
X153731000Y-71540630D01*
X153731000Y-71870970D01*
X153795446Y-72194963D01*
X153921862Y-72500157D01*
X154105389Y-72774825D01*
X154338975Y-73008411D01*
X154613643Y-73191938D01*
X154918837Y-73318354D01*
X155242830Y-73382800D01*
X155573170Y-73382800D01*
X155897163Y-73318354D01*
X156202357Y-73191938D01*
X156477025Y-73008411D01*
X156710611Y-72774825D01*
X156894138Y-72500157D01*
X157020554Y-72194963D01*
X157085000Y-71870970D01*
X157085000Y-71540630D01*
X157020554Y-71216637D01*
X156894138Y-70911443D01*
X156710611Y-70636775D01*
X156477025Y-70403189D01*
X156202357Y-70219662D01*
X155897163Y-70093246D01*
X155573170Y-70028800D01*
X155242830Y-70028800D01*
X154918837Y-70093246D01*
X154613643Y-70219662D01*
X154338975Y-70403189D01*
X154105389Y-70636775D01*
X153921862Y-70911443D01*
X153795446Y-71216637D01*
X153731000Y-71540630D01*
X152085000Y-71540630D01*
X152020554Y-71216637D01*
X151894138Y-70911443D01*
X151710611Y-70636775D01*
X151477025Y-70403189D01*
X151202357Y-70219662D01*
X150897163Y-70093246D01*
X150573170Y-70028800D01*
X150242830Y-70028800D01*
X149918837Y-70093246D01*
X149613643Y-70219662D01*
X149338975Y-70403189D01*
X149105389Y-70636775D01*
X148921862Y-70911443D01*
X148795446Y-71216637D01*
X148731000Y-71540630D01*
X148731000Y-71870970D01*
X148795446Y-72194963D01*
X148844057Y-72312320D01*
X143650800Y-77505578D01*
X143624974Y-77526773D01*
X143603779Y-77552599D01*
X143603776Y-77552602D01*
X143540372Y-77629860D01*
X143477508Y-77747471D01*
X143438796Y-77875086D01*
X143425726Y-78007800D01*
X143429001Y-78041055D01*
X143429000Y-82880943D01*
X143373123Y-82964569D01*
X143310782Y-83115073D01*
X143279000Y-83274848D01*
X143279000Y-83437752D01*
X143310782Y-83597527D01*
X143373123Y-83748031D01*
X143463628Y-83883481D01*
X143578819Y-83998672D01*
X143714269Y-84089177D01*
X143762402Y-84109114D01*
X143735800Y-84242848D01*
X143735800Y-84405752D01*
X143767582Y-84565527D01*
X143829923Y-84716031D01*
X143920428Y-84851481D01*
X144035619Y-84966672D01*
X144171069Y-85057177D01*
X144321573Y-85119518D01*
X144421986Y-85139492D01*
X144041378Y-85520100D01*
X142070933Y-85520100D01*
X142087118Y-85481027D01*
X142118900Y-85321252D01*
X142118900Y-85158348D01*
X142087118Y-84998573D01*
X142024777Y-84848069D01*
X141934272Y-84712619D01*
X141819081Y-84597428D01*
X141683631Y-84506923D01*
X141533127Y-84444582D01*
X141434482Y-84424960D01*
X135845000Y-78835478D01*
X135845000Y-73240549D01*
X135962357Y-73191938D01*
X136237025Y-73008411D01*
X136470611Y-72774825D01*
X136654138Y-72500157D01*
X136780554Y-72194963D01*
X136845000Y-71870970D01*
X136845000Y-71540630D01*
X138491000Y-71540630D01*
X138491000Y-71870970D01*
X138555446Y-72194963D01*
X138681862Y-72500157D01*
X138865389Y-72774825D01*
X139098975Y-73008411D01*
X139373643Y-73191938D01*
X139678837Y-73318354D01*
X140002830Y-73382800D01*
X140333170Y-73382800D01*
X140657163Y-73318354D01*
X140962357Y-73191938D01*
X141237025Y-73008411D01*
X141470611Y-72774825D01*
X141654138Y-72500157D01*
X141780554Y-72194963D01*
X141845000Y-71870970D01*
X141845000Y-71540630D01*
X141780554Y-71216637D01*
X141654138Y-70911443D01*
X141470611Y-70636775D01*
X141237025Y-70403189D01*
X140962357Y-70219662D01*
X140657163Y-70093246D01*
X140333170Y-70028800D01*
X140002830Y-70028800D01*
X139678837Y-70093246D01*
X139373643Y-70219662D01*
X139098975Y-70403189D01*
X138865389Y-70636775D01*
X138681862Y-70911443D01*
X138555446Y-71216637D01*
X138491000Y-71540630D01*
X136845000Y-71540630D01*
X136780554Y-71216637D01*
X136654138Y-70911443D01*
X136470611Y-70636775D01*
X136237025Y-70403189D01*
X135962357Y-70219662D01*
X135657163Y-70093246D01*
X135333170Y-70028800D01*
X135002830Y-70028800D01*
X134678837Y-70093246D01*
X134373643Y-70219662D01*
X134098975Y-70403189D01*
X133865389Y-70636775D01*
X133681862Y-70911443D01*
X133555446Y-71216637D01*
X133491000Y-71540630D01*
X133491000Y-71870970D01*
X133555446Y-72194963D01*
X133681862Y-72500157D01*
X133865389Y-72774825D01*
X134098975Y-73008411D01*
X134373643Y-73191938D01*
X134491000Y-73240549D01*
X134491001Y-78816778D01*
X131231926Y-75557704D01*
X131210727Y-75531873D01*
X131107641Y-75447272D01*
X130990030Y-75384408D01*
X130862415Y-75345696D01*
X130762952Y-75335900D01*
X130762945Y-75335900D01*
X130729700Y-75332626D01*
X130696455Y-75335900D01*
X120184523Y-75335900D01*
X118213729Y-73365106D01*
X118224227Y-73363018D01*
X118374731Y-73300677D01*
X118458357Y-73244800D01*
X118777643Y-73244800D01*
X118861269Y-73300677D01*
X119011773Y-73363018D01*
X119171548Y-73394800D01*
X119334452Y-73394800D01*
X119494227Y-73363018D01*
X119644731Y-73300677D01*
X119728357Y-73244800D01*
X120047643Y-73244800D01*
X120131269Y-73300677D01*
X120281773Y-73363018D01*
X120441548Y-73394800D01*
X120604452Y-73394800D01*
X120764227Y-73363018D01*
X120914731Y-73300677D01*
X120998357Y-73244800D01*
X128306070Y-73244800D01*
X128339315Y-73248074D01*
X128372560Y-73244800D01*
X128372567Y-73244800D01*
X128374852Y-73244575D01*
X128429868Y-73244575D01*
X128513494Y-73300452D01*
X128663998Y-73362793D01*
X128762643Y-73382415D01*
X128852385Y-73472157D01*
X128872007Y-73570802D01*
X128934348Y-73721306D01*
X129024853Y-73856756D01*
X129140044Y-73971947D01*
X129275494Y-74062452D01*
X129425998Y-74124793D01*
X129524643Y-74144415D01*
X129614385Y-74234157D01*
X129634007Y-74332802D01*
X129696348Y-74483306D01*
X129786853Y-74618756D01*
X129902044Y-74733947D01*
X130037494Y-74824452D01*
X130187998Y-74886793D01*
X130347773Y-74918575D01*
X130510677Y-74918575D01*
X130670452Y-74886793D01*
X130820956Y-74824452D01*
X130956406Y-74733947D01*
X131071597Y-74618756D01*
X131162102Y-74483306D01*
X131224443Y-74332802D01*
X131256225Y-74173027D01*
X131256225Y-74010123D01*
X131224443Y-73850348D01*
X131162102Y-73699844D01*
X131071597Y-73564394D01*
X130956406Y-73449203D01*
X130820956Y-73358698D01*
X130670452Y-73296357D01*
X130571807Y-73276735D01*
X130482065Y-73186993D01*
X130462443Y-73088348D01*
X130400102Y-72937844D01*
X130309597Y-72802394D01*
X130194406Y-72687203D01*
X130058956Y-72596698D01*
X129908452Y-72534357D01*
X129809807Y-72514735D01*
X129720065Y-72424993D01*
X129700443Y-72326348D01*
X129638102Y-72175844D01*
X129547597Y-72040394D01*
X129432406Y-71925203D01*
X129296956Y-71834698D01*
X129146452Y-71772357D01*
X128986677Y-71740575D01*
X128823773Y-71740575D01*
X128663998Y-71772357D01*
X128513494Y-71834698D01*
X128429868Y-71890575D01*
X128372781Y-71890575D01*
X128339539Y-71887301D01*
X128306297Y-71890575D01*
X128306288Y-71890575D01*
X128304003Y-71890800D01*
X120998357Y-71890800D01*
X120914731Y-71834923D01*
X120764227Y-71772582D01*
X120604452Y-71740800D01*
X120441548Y-71740800D01*
X120281773Y-71772582D01*
X120131269Y-71834923D01*
X120047643Y-71890800D01*
X119728357Y-71890800D01*
X119644731Y-71834923D01*
X119494227Y-71772582D01*
X119334452Y-71740800D01*
X119171548Y-71740800D01*
X119011773Y-71772582D01*
X118861269Y-71834923D01*
X118777643Y-71890800D01*
X118458357Y-71890800D01*
X118374731Y-71834923D01*
X118224227Y-71772582D01*
X118064452Y-71740800D01*
X117901548Y-71740800D01*
X117741773Y-71772582D01*
X117591269Y-71834923D01*
X117455819Y-71925428D01*
X117340628Y-72040619D01*
X117250123Y-72176069D01*
X117187782Y-72326573D01*
X117185694Y-72337071D01*
X116765840Y-71917218D01*
X116746218Y-71818573D01*
X116683877Y-71668069D01*
X116593372Y-71532619D01*
X116478181Y-71417428D01*
X116342731Y-71326923D01*
X116192227Y-71264582D01*
X116032452Y-71232800D01*
X115869548Y-71232800D01*
X115709773Y-71264582D01*
X115559269Y-71326923D01*
X115423819Y-71417428D01*
X115308628Y-71532619D01*
X115218123Y-71668069D01*
X115155782Y-71818573D01*
X115124000Y-71978348D01*
X115124000Y-72141252D01*
X115155782Y-72301027D01*
X115218123Y-72451531D01*
X115308628Y-72586981D01*
X115423819Y-72702172D01*
X115559269Y-72792677D01*
X115709773Y-72855018D01*
X115808418Y-72874640D01*
X119401878Y-76468101D01*
X119423073Y-76493927D01*
X119448899Y-76515122D01*
X119448901Y-76515124D01*
X119526159Y-76578528D01*
X119643770Y-76641392D01*
X119771385Y-76680104D01*
X119904100Y-76693175D01*
X119937352Y-76689900D01*
X130449278Y-76689900D01*
X134658960Y-80899583D01*
X134678582Y-80998227D01*
X134740923Y-81148731D01*
X134831428Y-81284181D01*
X134946619Y-81399372D01*
X135082069Y-81489877D01*
X135232573Y-81552218D01*
X135392348Y-81584000D01*
X135555252Y-81584000D01*
X135715027Y-81552218D01*
X135865531Y-81489877D01*
X136000981Y-81399372D01*
X136116172Y-81284181D01*
X136206677Y-81148731D01*
X136217436Y-81122758D01*
X140477060Y-85382382D01*
X140496682Y-85481027D01*
X140512867Y-85520100D01*
X134669052Y-85520100D01*
X134635800Y-85516825D01*
X134602548Y-85520100D01*
X134503085Y-85529896D01*
X134375470Y-85568608D01*
X134257859Y-85631472D01*
X134154773Y-85716073D01*
X134133576Y-85741902D01*
X134056618Y-85818860D01*
X133957973Y-85838482D01*
X133807469Y-85900823D01*
X133672019Y-85991328D01*
X133556828Y-86106519D01*
X133466323Y-86241969D01*
X133403982Y-86392473D01*
X133372200Y-86552248D01*
X133372200Y-86715152D01*
X133403982Y-86874927D01*
X133446594Y-86977800D01*
X127047243Y-86977800D01*
X127014001Y-86974526D01*
X126980759Y-86977800D01*
X126980750Y-86977800D01*
X126881287Y-86987596D01*
X126753672Y-87026308D01*
X126636061Y-87089172D01*
X126532975Y-87173773D01*
X126511778Y-87199602D01*
X116124100Y-97587280D01*
X116098273Y-97608476D01*
X116077078Y-97634302D01*
X116077076Y-97634304D01*
X116058063Y-97657472D01*
X116013672Y-97711562D01*
X115950808Y-97829173D01*
X115912096Y-97956788D01*
X115902300Y-98056251D01*
X115902300Y-98056257D01*
X115899026Y-98089502D01*
X115902300Y-98122747D01*
X115902300Y-98576249D01*
X115902301Y-114679077D01*
X104659521Y-125921857D01*
X104542163Y-125873246D01*
X104218170Y-125808800D01*
X103887830Y-125808800D01*
X103563837Y-125873246D01*
X103258643Y-125999662D01*
X102983975Y-126183189D01*
X102750389Y-126416775D01*
X102566862Y-126691443D01*
X102440446Y-126996637D01*
X102376000Y-127320630D01*
X99882942Y-127320630D01*
X99940000Y-127033783D01*
X99940000Y-126417817D01*
X99819831Y-125813688D01*
X99584111Y-125244610D01*
X99241899Y-124732454D01*
X98806346Y-124296901D01*
X98294190Y-123954689D01*
X97725112Y-123718969D01*
X97120983Y-123598800D01*
X96505017Y-123598800D01*
X95900888Y-123718969D01*
X95331810Y-123954689D01*
X94819654Y-124296901D01*
X94384101Y-124732454D01*
X94265000Y-124910701D01*
X94265000Y-114820630D01*
X102376000Y-114820630D01*
X102376000Y-115150970D01*
X102440446Y-115474963D01*
X102566862Y-115780157D01*
X102750389Y-116054825D01*
X102983975Y-116288411D01*
X103258643Y-116471938D01*
X103563837Y-116598354D01*
X103887830Y-116662800D01*
X104218170Y-116662800D01*
X104542163Y-116598354D01*
X104847357Y-116471938D01*
X105122025Y-116288411D01*
X105355611Y-116054825D01*
X105539138Y-115780157D01*
X105665554Y-115474963D01*
X105730000Y-115150970D01*
X105730000Y-114820630D01*
X105665554Y-114496637D01*
X105539138Y-114191443D01*
X105355611Y-113916775D01*
X105122025Y-113683189D01*
X104847357Y-113499662D01*
X104542163Y-113373246D01*
X104218170Y-113308800D01*
X103887830Y-113308800D01*
X103563837Y-113373246D01*
X103258643Y-113499662D01*
X102983975Y-113683189D01*
X102750389Y-113916775D01*
X102566862Y-114191443D01*
X102440446Y-114496637D01*
X102376000Y-114820630D01*
X94265000Y-114820630D01*
X94265000Y-109640630D01*
X102376000Y-109640630D01*
X102376000Y-109970970D01*
X102440446Y-110294963D01*
X102566862Y-110600157D01*
X102750389Y-110874825D01*
X102983975Y-111108411D01*
X103258643Y-111291938D01*
X103563837Y-111418354D01*
X103887830Y-111482800D01*
X104218170Y-111482800D01*
X104542163Y-111418354D01*
X104847357Y-111291938D01*
X105122025Y-111108411D01*
X105355611Y-110874825D01*
X105539138Y-110600157D01*
X105665554Y-110294963D01*
X105730000Y-109970970D01*
X105730000Y-109640630D01*
X107376000Y-109640630D01*
X107376000Y-109970970D01*
X107440446Y-110294963D01*
X107566862Y-110600157D01*
X107750389Y-110874825D01*
X107983975Y-111108411D01*
X108258643Y-111291938D01*
X108563837Y-111418354D01*
X108887830Y-111482800D01*
X109218170Y-111482800D01*
X109542163Y-111418354D01*
X109847357Y-111291938D01*
X110122025Y-111108411D01*
X110355611Y-110874825D01*
X110539138Y-110600157D01*
X110665554Y-110294963D01*
X110730000Y-109970970D01*
X110730000Y-109640630D01*
X110665554Y-109316637D01*
X110539138Y-109011443D01*
X110355611Y-108736775D01*
X110122025Y-108503189D01*
X109847357Y-108319662D01*
X109542163Y-108193246D01*
X109218170Y-108128800D01*
X108887830Y-108128800D01*
X108563837Y-108193246D01*
X108258643Y-108319662D01*
X107983975Y-108503189D01*
X107750389Y-108736775D01*
X107566862Y-109011443D01*
X107440446Y-109316637D01*
X107376000Y-109640630D01*
X105730000Y-109640630D01*
X105665554Y-109316637D01*
X105539138Y-109011443D01*
X105355611Y-108736775D01*
X105122025Y-108503189D01*
X104847357Y-108319662D01*
X104542163Y-108193246D01*
X104218170Y-108128800D01*
X103887830Y-108128800D01*
X103563837Y-108193246D01*
X103258643Y-108319662D01*
X102983975Y-108503189D01*
X102750389Y-108736775D01*
X102566862Y-109011443D01*
X102440446Y-109316637D01*
X102376000Y-109640630D01*
X94265000Y-109640630D01*
X94265000Y-97140630D01*
X102376000Y-97140630D01*
X102376000Y-97470970D01*
X102440446Y-97794963D01*
X102566862Y-98100157D01*
X102750389Y-98374825D01*
X102983975Y-98608411D01*
X103258643Y-98791938D01*
X103563837Y-98918354D01*
X103887830Y-98982800D01*
X104218170Y-98982800D01*
X104542163Y-98918354D01*
X104847357Y-98791938D01*
X105122025Y-98608411D01*
X105355611Y-98374825D01*
X105539138Y-98100157D01*
X105665554Y-97794963D01*
X105730000Y-97470970D01*
X105730000Y-97140630D01*
X105665554Y-96816637D01*
X105539138Y-96511443D01*
X105355611Y-96236775D01*
X105122025Y-96003189D01*
X104847357Y-95819662D01*
X104542163Y-95693246D01*
X104218170Y-95628800D01*
X103887830Y-95628800D01*
X103563837Y-95693246D01*
X103258643Y-95819662D01*
X102983975Y-96003189D01*
X102750389Y-96236775D01*
X102566862Y-96511443D01*
X102440446Y-96816637D01*
X102376000Y-97140630D01*
X94265000Y-97140630D01*
X94265000Y-92495630D01*
X102376000Y-92495630D01*
X102376000Y-92825970D01*
X102440446Y-93149963D01*
X102566862Y-93455157D01*
X102750389Y-93729825D01*
X102983975Y-93963411D01*
X103258643Y-94146938D01*
X103563837Y-94273354D01*
X103887830Y-94337800D01*
X104218170Y-94337800D01*
X104542163Y-94273354D01*
X104847357Y-94146938D01*
X105122025Y-93963411D01*
X105355611Y-93729825D01*
X105539138Y-93455157D01*
X105665554Y-93149963D01*
X105730000Y-92825970D01*
X105730000Y-92495630D01*
X107376000Y-92495630D01*
X107376000Y-92825970D01*
X107440446Y-93149963D01*
X107566862Y-93455157D01*
X107750389Y-93729825D01*
X107983975Y-93963411D01*
X108258643Y-94146938D01*
X108563837Y-94273354D01*
X108887830Y-94337800D01*
X109218170Y-94337800D01*
X109542163Y-94273354D01*
X109847357Y-94146938D01*
X110122025Y-93963411D01*
X110355611Y-93729825D01*
X110539138Y-93455157D01*
X110665554Y-93149963D01*
X110730000Y-92825970D01*
X110730000Y-92495630D01*
X110665554Y-92171637D01*
X110539138Y-91866443D01*
X110355611Y-91591775D01*
X110122025Y-91358189D01*
X109847357Y-91174662D01*
X109542163Y-91048246D01*
X109218170Y-90983800D01*
X108887830Y-90983800D01*
X108563837Y-91048246D01*
X108258643Y-91174662D01*
X107983975Y-91358189D01*
X107750389Y-91591775D01*
X107566862Y-91866443D01*
X107440446Y-92171637D01*
X107376000Y-92495630D01*
X105730000Y-92495630D01*
X105665554Y-92171637D01*
X105539138Y-91866443D01*
X105355611Y-91591775D01*
X105122025Y-91358189D01*
X104847357Y-91174662D01*
X104542163Y-91048246D01*
X104218170Y-90983800D01*
X103887830Y-90983800D01*
X103563837Y-91048246D01*
X103258643Y-91174662D01*
X102983975Y-91358189D01*
X102750389Y-91591775D01*
X102566862Y-91866443D01*
X102440446Y-92171637D01*
X102376000Y-92495630D01*
X94265000Y-92495630D01*
X94265000Y-79995630D01*
X102376000Y-79995630D01*
X102376000Y-80325970D01*
X102440446Y-80649963D01*
X102566862Y-80955157D01*
X102750389Y-81229825D01*
X102983975Y-81463411D01*
X103258643Y-81646938D01*
X103563837Y-81773354D01*
X103887830Y-81837800D01*
X104218170Y-81837800D01*
X104542163Y-81773354D01*
X104847357Y-81646938D01*
X105122025Y-81463411D01*
X105355611Y-81229825D01*
X105539138Y-80955157D01*
X105665554Y-80649963D01*
X105730000Y-80325970D01*
X105730000Y-79995630D01*
X105665554Y-79671637D01*
X105539138Y-79366443D01*
X105355611Y-79091775D01*
X105122025Y-78858189D01*
X105021171Y-78790800D01*
X116048064Y-78790800D01*
X116071755Y-79031334D01*
X116141916Y-79262624D01*
X116255851Y-79475783D01*
X116409183Y-79662617D01*
X116596017Y-79815949D01*
X116809176Y-79929884D01*
X117040466Y-80000045D01*
X117220732Y-80017800D01*
X118341268Y-80017800D01*
X118521534Y-80000045D01*
X118752824Y-79929884D01*
X118965983Y-79815949D01*
X119152817Y-79662617D01*
X119306149Y-79475783D01*
X119310416Y-79467800D01*
X121385578Y-79467800D01*
X124418000Y-82500222D01*
X124418001Y-86250538D01*
X124418000Y-86250548D01*
X124418000Y-86589691D01*
X123336957Y-87670734D01*
X123218007Y-87525793D01*
X123021488Y-87364514D01*
X122797281Y-87244672D01*
X122560351Y-87172800D01*
X122797281Y-87100928D01*
X123021488Y-86981086D01*
X123218007Y-86819807D01*
X123379286Y-86623288D01*
X123499128Y-86399081D01*
X123572926Y-86155802D01*
X123597844Y-85902800D01*
X123572926Y-85649798D01*
X123499128Y-85406519D01*
X123379286Y-85182312D01*
X123218007Y-84985793D01*
X123021488Y-84824514D01*
X122797281Y-84704672D01*
X122635071Y-84655466D01*
X123164600Y-84655466D01*
X123248307Y-84647222D01*
X123328796Y-84622805D01*
X123402976Y-84583155D01*
X123467995Y-84529795D01*
X123521355Y-84464776D01*
X123561005Y-84390596D01*
X123585422Y-84310107D01*
X123593666Y-84226400D01*
X123593666Y-82499200D01*
X123585422Y-82415493D01*
X123561005Y-82335004D01*
X123521355Y-82260824D01*
X123467995Y-82195805D01*
X123402976Y-82142445D01*
X123328796Y-82102795D01*
X123248307Y-82078378D01*
X123164600Y-82070134D01*
X121437400Y-82070134D01*
X121353693Y-82078378D01*
X121273204Y-82102795D01*
X121199024Y-82142445D01*
X121134005Y-82195805D01*
X121080645Y-82260824D01*
X121040995Y-82335004D01*
X121016578Y-82415493D01*
X121008334Y-82499200D01*
X121008334Y-83028729D01*
X120959128Y-82866519D01*
X120839286Y-82642312D01*
X120678007Y-82445793D01*
X120561469Y-82350153D01*
X121401983Y-81509640D01*
X121500627Y-81490018D01*
X121651131Y-81427677D01*
X121786581Y-81337172D01*
X121901772Y-81221981D01*
X121992277Y-81086531D01*
X122054618Y-80936027D01*
X122086400Y-80776252D01*
X122086400Y-80613348D01*
X122054618Y-80453573D01*
X121992277Y-80303069D01*
X121901772Y-80167619D01*
X121786581Y-80052428D01*
X121651131Y-79961923D01*
X121500627Y-79899582D01*
X121340852Y-79867800D01*
X121177948Y-79867800D01*
X121018173Y-79899582D01*
X120867669Y-79961923D01*
X120732219Y-80052428D01*
X120617028Y-80167619D01*
X120526523Y-80303069D01*
X120464182Y-80453573D01*
X120444560Y-80552217D01*
X119609333Y-81387445D01*
X119500670Y-81420408D01*
X119383059Y-81483272D01*
X119279973Y-81567873D01*
X119195372Y-81670959D01*
X119132508Y-81788570D01*
X119093796Y-81916185D01*
X119080725Y-82048900D01*
X119084001Y-82082162D01*
X119084001Y-82261269D01*
X119040512Y-82284514D01*
X118843993Y-82445793D01*
X118682714Y-82642312D01*
X118562872Y-82866519D01*
X118489074Y-83109798D01*
X118464156Y-83362800D01*
X118489074Y-83615802D01*
X118562872Y-83859081D01*
X118682714Y-84083288D01*
X118843993Y-84279807D01*
X119040512Y-84441086D01*
X119264719Y-84560928D01*
X119501649Y-84632800D01*
X119264719Y-84704672D01*
X119040512Y-84824514D01*
X118843993Y-84985793D01*
X118682714Y-85182312D01*
X118562872Y-85406519D01*
X118489074Y-85649798D01*
X118464156Y-85902800D01*
X118489074Y-86155802D01*
X118562872Y-86399081D01*
X118682714Y-86623288D01*
X118843993Y-86819807D01*
X119040512Y-86981086D01*
X119264719Y-87100928D01*
X119507998Y-87174726D01*
X119697602Y-87193400D01*
X119824398Y-87193400D01*
X120014002Y-87174726D01*
X120257281Y-87100928D01*
X120481488Y-86981086D01*
X120678007Y-86819807D01*
X120839286Y-86623288D01*
X120959128Y-86399081D01*
X121031000Y-86162151D01*
X121102872Y-86399081D01*
X121222714Y-86623288D01*
X121383993Y-86819807D01*
X121580512Y-86981086D01*
X121804719Y-87100928D01*
X122041649Y-87172800D01*
X121804719Y-87244672D01*
X121580512Y-87364514D01*
X121383993Y-87525793D01*
X121222714Y-87722312D01*
X121102872Y-87946519D01*
X121029074Y-88189798D01*
X121004156Y-88442800D01*
X121029074Y-88695802D01*
X121102872Y-88939081D01*
X121222714Y-89163288D01*
X121383993Y-89359807D01*
X121580512Y-89521086D01*
X121804719Y-89640928D01*
X122047998Y-89714726D01*
X122237602Y-89733400D01*
X122364398Y-89733400D01*
X122554002Y-89714726D01*
X122797281Y-89640928D01*
X123021488Y-89521086D01*
X123218007Y-89359807D01*
X123379286Y-89163288D01*
X123402531Y-89119800D01*
X123489069Y-89119800D01*
X123522314Y-89123074D01*
X123555559Y-89119800D01*
X123555566Y-89119800D01*
X123655029Y-89110004D01*
X123782644Y-89071292D01*
X123900255Y-89008428D01*
X124003341Y-88923827D01*
X124024540Y-88897996D01*
X125550206Y-87372331D01*
X125576026Y-87351141D01*
X125597218Y-87325319D01*
X125597224Y-87325313D01*
X125660628Y-87248055D01*
X125723492Y-87130444D01*
X125762204Y-87002829D01*
X125762412Y-87000713D01*
X125772000Y-86903366D01*
X125772000Y-86903359D01*
X125775274Y-86870114D01*
X125772000Y-86836869D01*
X125772000Y-82253041D01*
X125775274Y-82219799D01*
X125772000Y-82186557D01*
X125772000Y-82186548D01*
X125762204Y-82087085D01*
X125723492Y-81959470D01*
X125660628Y-81841859D01*
X125576026Y-81738773D01*
X125550200Y-81717578D01*
X122168226Y-78335604D01*
X122147027Y-78309773D01*
X122043941Y-78225172D01*
X121926330Y-78162308D01*
X121798715Y-78123596D01*
X121699252Y-78113800D01*
X121699245Y-78113800D01*
X121666000Y-78110526D01*
X121632755Y-78113800D01*
X119310416Y-78113800D01*
X119306149Y-78105817D01*
X119152817Y-77918983D01*
X118965983Y-77765651D01*
X118752824Y-77651716D01*
X118521534Y-77581555D01*
X118341268Y-77563800D01*
X117220732Y-77563800D01*
X117040466Y-77581555D01*
X116809176Y-77651716D01*
X116596017Y-77765651D01*
X116409183Y-77918983D01*
X116255851Y-78105817D01*
X116141916Y-78318976D01*
X116071755Y-78550266D01*
X116048064Y-78790800D01*
X105021171Y-78790800D01*
X104847357Y-78674662D01*
X104542163Y-78548246D01*
X104218170Y-78483800D01*
X103887830Y-78483800D01*
X103563837Y-78548246D01*
X103258643Y-78674662D01*
X102983975Y-78858189D01*
X102750389Y-79091775D01*
X102566862Y-79366443D01*
X102440446Y-79671637D01*
X102376000Y-79995630D01*
X94265000Y-79995630D01*
X94265000Y-75350630D01*
X102376000Y-75350630D01*
X102376000Y-75680970D01*
X102440446Y-76004963D01*
X102566862Y-76310157D01*
X102750389Y-76584825D01*
X102983975Y-76818411D01*
X103258643Y-77001938D01*
X103563837Y-77128354D01*
X103887830Y-77192800D01*
X104218170Y-77192800D01*
X104542163Y-77128354D01*
X104847357Y-77001938D01*
X105122025Y-76818411D01*
X105355611Y-76584825D01*
X105539138Y-76310157D01*
X105665554Y-76004963D01*
X105730000Y-75680970D01*
X105730000Y-75350630D01*
X107376000Y-75350630D01*
X107376000Y-75680970D01*
X107440446Y-76004963D01*
X107566862Y-76310157D01*
X107750389Y-76584825D01*
X107983975Y-76818411D01*
X108258643Y-77001938D01*
X108563837Y-77128354D01*
X108887830Y-77192800D01*
X109218170Y-77192800D01*
X109542163Y-77128354D01*
X109847357Y-77001938D01*
X110122025Y-76818411D01*
X110355611Y-76584825D01*
X110539138Y-76310157D01*
X110665554Y-76004963D01*
X110730000Y-75680970D01*
X110730000Y-75350630D01*
X110665554Y-75026637D01*
X110539138Y-74721443D01*
X110355611Y-74446775D01*
X110122025Y-74213189D01*
X109847357Y-74029662D01*
X109542163Y-73903246D01*
X109218170Y-73838800D01*
X108887830Y-73838800D01*
X108563837Y-73903246D01*
X108258643Y-74029662D01*
X107983975Y-74213189D01*
X107750389Y-74446775D01*
X107566862Y-74721443D01*
X107440446Y-75026637D01*
X107376000Y-75350630D01*
X105730000Y-75350630D01*
X105665554Y-75026637D01*
X105539138Y-74721443D01*
X105355611Y-74446775D01*
X105122025Y-74213189D01*
X104847357Y-74029662D01*
X104542163Y-73903246D01*
X104218170Y-73838800D01*
X103887830Y-73838800D01*
X103563837Y-73903246D01*
X103258643Y-74029662D01*
X102983975Y-74213189D01*
X102750389Y-74446775D01*
X102566862Y-74721443D01*
X102440446Y-75026637D01*
X102376000Y-75350630D01*
X94265000Y-75350630D01*
X94265000Y-62540899D01*
X94384101Y-62719146D01*
X94819654Y-63154699D01*
X95331810Y-63496911D01*
X95900888Y-63732631D01*
X96505017Y-63852800D01*
X97120983Y-63852800D01*
X97725112Y-63732631D01*
X98294190Y-63496911D01*
X98806346Y-63154699D01*
X99110415Y-62850630D01*
X102376000Y-62850630D01*
X102376000Y-63180970D01*
X102440446Y-63504963D01*
X102566862Y-63810157D01*
X102750389Y-64084825D01*
X102983975Y-64318411D01*
X103258643Y-64501938D01*
X103563837Y-64628354D01*
X103887830Y-64692800D01*
X104218170Y-64692800D01*
X104542163Y-64628354D01*
X104847357Y-64501938D01*
X105122025Y-64318411D01*
X105355611Y-64084825D01*
X105539138Y-63810157D01*
X105665554Y-63504963D01*
X105706450Y-63299364D01*
X118716780Y-63299364D01*
X118716780Y-63472036D01*
X118750467Y-63641389D01*
X118816545Y-63800916D01*
X118912476Y-63944487D01*
X119034573Y-64066584D01*
X119178144Y-64162515D01*
X119337671Y-64228593D01*
X119507024Y-64262280D01*
X119679696Y-64262280D01*
X119849049Y-64228593D01*
X120008576Y-64162515D01*
X120152147Y-64066584D01*
X120274244Y-63944487D01*
X120370175Y-63800916D01*
X120436253Y-63641389D01*
X120469940Y-63472036D01*
X120469940Y-63299364D01*
X123116060Y-63299364D01*
X123116060Y-63472036D01*
X123149747Y-63641389D01*
X123215825Y-63800916D01*
X123311756Y-63944487D01*
X123433853Y-64066584D01*
X123577424Y-64162515D01*
X123736951Y-64228593D01*
X123906304Y-64262280D01*
X124078976Y-64262280D01*
X124248329Y-64228593D01*
X124407856Y-64162515D01*
X124551427Y-64066584D01*
X124673524Y-63944487D01*
X124769455Y-63800916D01*
X124835533Y-63641389D01*
X124869220Y-63472036D01*
X124869220Y-63299364D01*
X124835533Y-63130011D01*
X124769455Y-62970484D01*
X124673524Y-62826913D01*
X124551427Y-62704816D01*
X124407856Y-62608885D01*
X124248329Y-62542807D01*
X124078976Y-62509120D01*
X123906304Y-62509120D01*
X123736951Y-62542807D01*
X123577424Y-62608885D01*
X123433853Y-62704816D01*
X123311756Y-62826913D01*
X123215825Y-62970484D01*
X123149747Y-63130011D01*
X123116060Y-63299364D01*
X120469940Y-63299364D01*
X120436253Y-63130011D01*
X120370175Y-62970484D01*
X120274244Y-62826913D01*
X120152147Y-62704816D01*
X120008576Y-62608885D01*
X119849049Y-62542807D01*
X119679696Y-62509120D01*
X119507024Y-62509120D01*
X119337671Y-62542807D01*
X119178144Y-62608885D01*
X119034573Y-62704816D01*
X118912476Y-62826913D01*
X118816545Y-62970484D01*
X118750467Y-63130011D01*
X118716780Y-63299364D01*
X105706450Y-63299364D01*
X105730000Y-63180970D01*
X105730000Y-62850630D01*
X105665554Y-62526637D01*
X105539138Y-62221443D01*
X105355611Y-61946775D01*
X105122025Y-61713189D01*
X104847357Y-61529662D01*
X104542163Y-61403246D01*
X104218170Y-61338800D01*
X103887830Y-61338800D01*
X103563837Y-61403246D01*
X103258643Y-61529662D01*
X102983975Y-61713189D01*
X102750389Y-61946775D01*
X102566862Y-62221443D01*
X102440446Y-62526637D01*
X102376000Y-62850630D01*
X99110415Y-62850630D01*
X99241899Y-62719146D01*
X99584111Y-62206990D01*
X99819831Y-61637912D01*
X99940000Y-61033783D01*
X99940000Y-60417817D01*
X99819831Y-59813688D01*
X99584111Y-59244610D01*
X99241899Y-58732454D01*
X98806346Y-58296901D01*
X98628099Y-58177800D01*
X133837977Y-58177800D01*
X133681862Y-58411443D01*
M02*
